# This file uses centimeters as units for non-parametric coordinates.

mtllib sword.mtl
g default
v 0.003076 12.331968 -0.248680
v 0.002504 12.331968 -0.748680
v 1.000000 11.721050 -0.748680
v -1.000000 11.726004 -0.748680
v -1.000000 11.717153 -0.248679
v 1.000000 11.720165 -0.248679
v -0.526341 4.442697 -0.248480
v 0.526341 4.442697 -0.248480
v 0.700000 11.419710 -0.248679
v -0.700000 11.417603 -0.248679
v 0.000106 11.992461 -0.248680
v 0.700000 11.419710 -0.348680
v -0.700000 11.417603 -0.348680
v 0.000106 11.992461 -0.348680
v -0.526341 4.442697 -0.098480
v 0.526341 4.442697 -0.098480
v 0.700000 11.419710 -0.098679
v -0.700000 11.417603 -0.098679
v 0.000106 11.992461 -0.098680
v -0.877977 4.846550 -0.248680
v -0.877977 4.847376 -0.748680
v 0.877977 4.846914 -0.748680
v 0.877977 4.846830 -0.248680
v 0.645150 4.838544 -0.248679
v 0.666996 4.838544 -0.348680
v 0.612147 4.838544 -0.098680
v -0.612147 4.838424 -0.098680
v -0.666996 4.838424 -0.348680
v -0.645150 4.838424 -0.248679
v -0.644661 4.434381 -0.248680
v -0.644661 4.434723 -0.748680
v 0.644661 4.434531 -0.748680
v 0.644661 4.434497 -0.248680
v 0.896869 5.974177 -0.748680
v -0.896869 5.975375 -0.748680
v -0.896869 5.973232 -0.248679
v 0.896869 5.973960 -0.248679
v 0.723493 11.444313 -0.238742
v 0.700000 8.660385 -0.348680
v 0.642043 8.604603 -0.119000
v -0.642043 8.603330 -0.119000
v -0.700000 8.659111 -0.348680
v -0.723493 11.443038 -0.238742
v 0.921218 8.541539 -0.748680
v -0.921218 8.544416 -0.748680
v -0.921218 8.539276 -0.248679
v 0.921218 8.541025 -0.248679
v -0.606435 4.095050 -0.748680
v 0.606435 4.095050 -0.748680
v 0.606435 4.095050 -0.248680
v -0.606435 4.095050 -0.248680
v 0.644661 4.434531 -0.748680
v 0.644661 4.434497 -0.248680
v -0.644661 4.434723 -0.748680
v -0.644661 4.434381 -0.248680
v 0.647024 6.027791 -0.119206
v -0.647024 6.027324 -0.119206
v 0.668668 6.024240 -0.244533
v -0.668668 6.023912 -0.247101
vt 0.375000 0.000000
vt 0.625000 0.000000
vt 0.375000 0.750000
vt 0.625000 0.750000
vt 0.375000 1.000000
vt 0.625000 1.000000
vt 0.875000 0.000000
vt 0.125000 0.000000
vt 0.500385 0.250000
vt 0.500313 0.500000
vt 0.750000 0.375000
vt 0.250000 0.375000
vt 0.375000 0.224460
vt 0.625000 0.224270
vt 0.375000 0.000000
vt 0.625000 0.000000
vt 0.625000 0.224270
vt 0.375000 0.224460
vt 0.500013 0.224365
vt 0.625000 0.224270
vt 0.375000 0.224460
vt 0.500013 0.224365
vt 0.375000 0.000000
vt 0.625000 0.000000
vt 0.625000 0.224270
vt 0.375000 0.224460
vt 0.500013 0.224365
vt 0.375000 0.020858
vt 0.136616 0.034847
vt 0.363384 0.715153
vt 0.636616 0.715153
vt 0.863384 0.034847
vt 0.625000 0.020840
vt 0.625000 0.012724
vt 0.625000 0.012724
vt 0.625000 0.012724
vt 0.375000 0.012735
vt 0.375000 0.012735
vt 0.375000 0.012735
vt 0.375000 0.008644
vt 0.129814 0.014441
vt 0.370186 0.735559
vt 0.629814 0.735559
vt 0.870186 0.014441
vt 0.625000 0.008636
vt 0.655209 0.659373
vt 0.844791 0.090627
vt 0.155209 0.090627
vt 0.344791 0.659373
vt 0.375000 0.054246
vt 0.625000 0.054200
vt 0.625000 0.135574
vt 0.625000 0.135574
vt 0.625000 0.135574
vt 0.375000 0.135689
vt 0.375000 0.135689
vt 0.375000 0.135689
vt 0.697556 0.532332
vt 0.802444 0.217668
vt 0.197556 0.217668
vt 0.302444 0.532332
vt 0.375000 0.130288
vt 0.625000 0.130177
vt 0.870186 0.014441
vt 0.625000 0.008636
vt 0.370186 0.735559
vt 0.629814 0.735559
vt 0.375000 0.008644
vt 0.129814 0.014441
vt 0.625000 0.049663
vt 0.375000 0.049705
vt 0.625000 0.034775
vt 0.375000 0.034804
vn -0.200964 -0.740568 -0.641227
vn 0.200934 -0.740542 -0.641267
vn 0.200978 -0.740706 0.641063
vn -0.200996 -0.740686 0.641081
vn 0.481920 -0.054267 -0.874533
vn 0.482159 -0.054294 0.874400
vn -0.481900 -0.054259 -0.874545
vn -0.482243 -0.054298 0.874353
vn -0.085689 -0.250512 0.964314
vn 0.085720 -0.250526 0.964307
vn 0.544724 0.000155 0.838615
vn -0.544613 0.000155 0.838688
vn -0.311074 0.075893 -0.947351
vn 0.000253 0.673433 -0.739249
vn 0.310853 0.075321 -0.947469
vn 0.844613 0.203721 0.495102
vn 0.000361 0.606319 0.795221
vn -0.842047 0.205671 0.498655
vn 0.148292 -0.034450 0.988343
vn 0.000166 -0.110281 0.993900
vn -0.143099 -0.034456 0.989108
vn 0.318093 0.026699 0.947684
vn -0.000064 0.041339 0.999145
vn -0.317994 0.026700 0.947716
vn -0.338954 -0.006439 0.940781
vn 0.339043 -0.006439 0.940749
vn 0.001505 -0.999999 -0.000000
vn 0.981308 0.059082 0.183149
vn -0.981315 0.059106 0.183102
vn -0.001505 0.999999 0.000000
vn -0.251512 -0.004514 -0.967844
vn -0.773066 -0.014235 0.634166
vn 0.251497 -0.004514 -0.967848
vn 0.776548 -0.014138 0.629900
vn 0.080264 -0.233977 -0.968923
vn -0.080236 -0.233963 -0.968929
vn 0.437992 -0.008543 0.898938
vn -0.440569 -0.008334 0.897680
vn 0.980082 -0.008180 0.198427
vn -0.423666 0.004200 0.905809
vn -0.249645 0.000811 0.968337
vn 0.980135 -0.008800 0.198136
vn 0.479368 -0.000357 0.877614
vn -0.479276 -0.000357 0.877664
vn -0.980386 -0.008823 0.196887
vn -0.980406 -0.008214 0.196818
vn 0.259072 0.000763 0.965858
vn 0.429044 0.004109 0.903274
vn -0.505511 -0.006095 0.862799
vn 0.509031 -0.006081 0.860727
vn -0.184325 -0.104280 -0.977318
vn -0.184456 -0.104354 0.977285
vn -0.323284 -0.052957 0.944819
vn -0.323058 -0.052913 -0.944899
vn 0.323049 -0.052921 -0.944901
vn 0.184310 -0.104285 -0.977320
vn 0.184421 -0.104348 0.977292
vn 0.323227 -0.052951 0.944839
vn -0.265868 -0.003111 -0.964004
vn 0.265845 -0.003112 -0.964011
s 1
g pCube1
usemtl initialShadingGroup
f 48/3/1 49/4/2 50/6/3 51/5/4
f 50/2/3 49/7/2 52/64/5 53/65/6
f 54/66/7 52/67/5 49/4/2 48/3/1
f 48/8/1 51/1/4 55/68/8 54/69/7
f 15/23/9 16/24/10 26/36/11 27/37/12
f 4/12/13 2/10/14 3/11/15
f 6/14/16 1/9/17 5/13/18 10/18/19 11/19/20 9/17/21
f 2/10/14 4/12/13 5/13/18 1/9/17
f 3/11/15 2/10/14 1/9/17 6/14/16
f 17/25/22 19/27/23 18/26/24 41/55/25 40/54/26
f 53/65/6 55/68/8 51/1/4 50/2/3
f 9/17/21 11/19/20 14/22/27 12/20/28
f 11/19/20 10/18/19 13/21/29 14/22/27
f 12/20/28 14/22/30 19/27/23 17/25/22
f 14/22/30 13/21/29 18/26/24 19/27/23
f 45/60/31 46/62/32 5/13/18 4/12/13
f 4/12/13 3/11/15 44/58/33 45/61/31
f 47/63/34 44/59/33 3/11/15 6/14/16
f 8/16/35 7/15/36 29/39/37 24/34/38
f 25/35/39 24/34/38 58/72/40 38/52/41 39/53/42
f 40/54/26 56/70/43 26/36/11 25/35/39 39/53/42 12/20/28 17/25/22
f 27/37/12 26/36/11 56/70/43 57/71/44
f 42/56/45 28/38/46 27/37/12 57/71/44 41/55/25 18/26/24 13/21/29
f 42/56/45 43/57/47 59/73/48 29/39/37 28/38/46
f 38/52/41 58/72/40 24/34/38 29/39/37 59/73/48 43/57/47 10/18/19 5/13/18 46/62/32 36/50/49 37/51/50 47/63/34 6/14/16 9/17/21
f 31/41/51 30/40/52 20/28/53 21/29/54
f 21/30/54 22/31/55 32/43/56 31/42/51
f 33/45/57 32/44/56 22/32/55 23/33/58
f 23/33/58 20/28/53 30/40/52 33/45/57
f 35/49/59 34/46/60 22/31/55 21/30/54
f 21/29/54 20/28/53 36/50/49 35/48/59
f 37/51/50 36/50/49 20/28/53 23/33/58
f 23/33/58 22/32/55 34/47/60 37/51/50
f 39/53/42 38/52/41 9/17/21 12/20/28
f 10/18/19 43/57/47 42/56/45 13/21/29
f 45/61/31 44/58/33 34/46/60 35/49/59
f 35/48/59 36/50/49 46/62/32 45/60/31
f 37/51/50 34/47/60 44/59/33 47/63/34
f 32/44/56 33/45/57 53/65/6 52/64/5
f 31/42/51 32/43/56 52/67/5 54/66/7
f 30/40/52 31/41/51 54/69/7 55/68/8
f 33/45/57 30/40/52 55/68/8 53/65/6
f 57/71/44 56/70/43 40/54/26 41/55/25
f 8/16/35 24/34/38 26/36/11 16/24/10
f 29/39/37 7/15/36 15/23/9 27/37/12
f 7/15/36 8/16/35 16/24/10 15/23/9
g default
v 0.886750 9.761633 -0.505852
v 0.886750 9.873358 -0.423780
v 1.469141 9.725971 -0.505852
v 1.426042 9.876721 -0.423780
v 0.886750 10.051548 -0.423780
v 1.754623 10.029640 -0.505807
v 1.754395 10.029653 -0.505898
v 1.377059 10.048047 -0.423780
v 0.886750 10.159692 -0.505852
v 1.334944 10.195353 -0.505852
v 0.886750 10.051548 -0.587925
v 0.886750 9.873358 -0.587925
v 1.377059 10.048047 -0.587925
v 1.426042 9.876721 -0.587925
v -0.886750 9.761633 -0.505852
v -0.886749 9.873358 -0.423780
v -1.329616 9.719160 -0.505852
v -1.352405 9.874285 -0.423780
v -0.886749 10.051548 -0.423780
v -1.753134 10.073101 -0.505807
v -1.752906 10.073114 -0.505898
v -1.378304 10.050583 -0.423780
v -0.886750 10.159692 -0.505852
v -1.400573 10.202164 -0.505852
v -0.886749 10.051548 -0.587925
v -0.886749 9.873358 -0.587925
v -1.378304 10.050583 -0.587925
v -1.352405 9.874285 -0.587925
v 1.050830 9.746759 -0.505852
v 1.085824 9.876376 -0.587925
v 1.132269 10.048406 -0.587925
v 1.166330 10.174566 -0.505852
v 1.132269 10.048406 -0.423780
v 1.085824 9.876376 -0.423780
v -1.169804 9.744478 -0.505852
v -1.137943 9.875818 -0.423780
v -1.095935 10.048986 -0.423780
v -1.064919 10.176846 -0.505852
v -1.095935 10.048986 -0.587925
v -1.137943 9.875818 -0.587925
vt 0.447401 0.875000
vt 0.447401 0.000000
vt 0.447401 0.669919
vt 0.447401 0.080081
vt 0.552600 0.875000
vt 0.552600 0.000000
vt 0.552600 0.080081
vt 0.750000 0.080081
vt 0.447401 0.169919
vt 0.552600 0.169919
vt 0.447401 0.375000
vt 0.625000 0.669919
vt 0.552600 0.669919
vt 0.625000 0.580081
vt 0.750000 0.169919
vt 0.552600 0.375000
vt 0.447401 0.580081
vt 0.552600 0.580081
vt 0.625000 0.375000
vt 0.447401 0.080081
vt 0.447401 0.000000
vt 0.552600 0.000000
vt 0.552600 0.080081
vt 0.750000 0.080081
vt 0.750000 0.169919
vt 0.552600 0.169919
vt 0.447401 0.375000
vt 0.447401 0.169919
vt 0.552600 0.375000
vt 0.447401 0.580081
vt 0.552600 0.580081
vt 0.625000 0.580081
vt 0.625000 0.669919
vt 0.552600 0.669919
vt 0.447401 0.875000
vt 0.447401 0.669919
vt 0.552600 0.875000
vt 0.625000 0.375000
vt 0.500000 0.875000
vt 0.500000 0.000000
vt 0.500000 0.669919
vt 0.500000 0.580081
vt 0.500000 0.375000
vt 0.500000 0.169919
vt 0.500000 0.080081
vt 0.502082 0.000000
vt 0.502082 0.875000
vt 0.502082 0.080081
vt 0.502082 0.169919
vt 0.502082 0.375000
vt 0.502082 0.580081
vt 0.502082 0.669919
vn -0.007869 -0.275890 0.961157
vn -0.028974 -0.999580 -0.000000
vn 0.227001 -0.973894 -0.000063
vn 0.104466 -0.271689 0.956699
vn 0.772671 -0.286453 0.566501
vn 0.765423 0.494791 -0.411472
vn 0.083453 0.238503 0.967550
vn -0.036260 0.999342 -0.000000
vn -0.008241 0.250599 0.968056
vn 0.126193 0.992006 0.000072
vn -0.008241 0.250599 -0.968056
vn 0.083449 0.238328 -0.967593
vn 0.104525 -0.271830 -0.956652
vn -0.007869 -0.275890 -0.961157
vn 0.048968 -0.998800 0.000000
vn 0.011062 -0.253461 0.967282
vn -0.153654 -0.266889 0.951399
vn -0.285149 -0.958483 -0.000074
vn -0.073467 0.247975 0.965977
vn -0.856860 0.224527 -0.464089
vn -0.732485 -0.480442 0.482330
vn 0.011079 0.266601 0.963743
vn 0.041094 0.999155 0.000000
vn -0.102775 0.994705 0.000067
vn 0.011079 0.266602 -0.963743
vn -0.073515 0.247737 -0.966034
vn -0.153743 -0.267034 -0.951344
vn 0.011062 -0.253462 -0.967282
vn -0.032630 -0.999467 0.000000
vn -0.007838 -0.240069 -0.970724
vn -0.006659 0.298039 -0.954530
vn -0.022336 0.999751 -0.000000
vn -0.006659 0.298038 0.954531
vn -0.007838 -0.240068 0.970724
vn 0.007978 -0.290081 0.956969
vn 0.027493 -0.999622 -0.000000
vn 0.009239 0.245236 0.969419
vn 0.037645 0.999291 0.000000
vn 0.009239 0.245237 -0.969419
vn 0.007978 -0.290081 -0.956969
s 1
g spearhead_GEO spikes2_GRP
usemtl initialShadingGroup
f 93/118/61 88/113/62 62/79/63 63/80/64
f 63/80/64 65/81/65 66/88/66 67/83/67
f 91/116/68 92/117/69 67/83/67 69/89/70
f 90/115/71 91/116/68 69/89/70 72/91/72
f 72/91/72 66/87/66 65/85/65 73/86/73
f 88/112/62 89/114/74 73/86/73 62/78/63
f 92/117/69 93/118/61 63/80/64 67/83/67
f 89/114/74 90/115/71 72/91/72 73/86/73
f 65/81/65 63/80/64 62/79/63
f 69/89/70 67/83/67 66/88/66
f 72/91/72 69/89/70 66/92/66
f 62/78/63 73/86/73 65/85/65
s 3
f 94/119/75 95/121/76 77/96/77 76/95/78
f 77/96/77 81/99/79 80/98/80 79/97/81
f 96/122/82 97/123/83 83/102/84 81/99/79
f 97/123/83 98/124/85 86/104/86 83/102/84
f 86/104/86 87/107/87 79/106/81 80/105/80
f 99/125/88 94/120/75 76/110/78 87/107/87
f 95/121/76 96/122/82 81/99/79 77/96/77
f 98/124/85 99/125/88 87/107/87 86/104/86
f 79/97/81 76/95/78 77/96/77
f 83/102/84 80/98/80 81/99/79
f 86/104/86 80/111/80 83/102/84
f 76/110/78 79/106/81 87/107/87
s 1
f 60/74/89 71/76/90 89/114/74 88/112/62
f 70/90/91 90/115/71 89/114/74 71/76/90
f 70/90/91 68/84/92 91/116/68 90/115/71
f 68/84/92 64/82/93 92/117/69 91/116/68
f 61/77/94 93/118/61 92/117/69 64/82/93
f 61/77/94 60/75/89 88/113/62 93/118/61
s 3
f 75/93/95 95/121/76 94/119/75 74/94/96
f 75/93/95 78/101/97 96/122/82 95/121/76
f 82/100/98 97/123/83 96/122/82 78/101/97
f 84/103/99 98/124/85 97/123/83 82/100/98
f 84/103/99 85/109/100 99/125/88 98/124/85
f 74/108/96 94/120/75 99/125/88 85/109/100
g default
v 0.886750 7.796693 -0.505852
v 0.886750 7.908418 -0.423780
v 1.330410 7.751628 -0.505852
v 1.330410 7.908418 -0.423780
v 0.886750 8.086608 -0.423780
v 1.753134 7.995716 -0.505807
v 1.752906 7.995729 -0.505898
v 1.330410 8.086608 -0.423780
v 0.886750 8.194752 -0.505852
v 1.330411 8.239816 -0.505852
v 0.886750 8.086608 -0.587925
v 0.886750 7.908418 -0.587925
v 1.330410 8.086608 -0.587925
v 1.330410 7.908418 -0.587925
v -0.886750 7.796693 -0.505852
v -0.886749 7.908418 -0.423780
v -1.330410 7.751628 -0.505852
v -1.330410 7.908418 -0.423780
v -0.886749 8.086608 -0.423780
v -1.753134 7.995716 -0.505807
v -1.752906 7.995729 -0.505898
v -1.330410 8.086608 -0.423780
v -0.886750 8.194752 -0.505852
v -1.330410 8.239816 -0.505852
v -0.886749 8.086608 -0.587925
v -0.886749 7.908418 -0.587925
v -1.330410 8.086608 -0.587925
v -1.330410 7.908418 -0.587925
v -1.096013 7.775437 -0.505852
v -1.096013 7.908418 -0.423780
v -1.096013 8.086608 -0.423780
v -1.096014 8.216008 -0.505852
v -1.096013 8.086608 -0.587925
v -1.096013 7.908418 -0.587925
v 1.118232 7.773180 -0.505852
v 1.118232 7.908418 -0.587925
v 1.118232 8.086608 -0.587925
v 1.118232 8.218265 -0.505852
v 1.118232 8.086608 -0.423780
v 1.118232 7.908418 -0.423780
vt 0.447401 0.875000
vt 0.447401 0.000000
vt 0.447401 0.669919
vt 0.447401 0.080081
vt 0.552600 0.875000
vt 0.552600 0.000000
vt 0.552600 0.080081
vt 0.750000 0.080081
vt 0.447401 0.169919
vt 0.552600 0.169919
vt 0.447401 0.375000
vt 0.625000 0.669919
vt 0.552600 0.669919
vt 0.625000 0.580081
vt 0.750000 0.169919
vt 0.552600 0.375000
vt 0.447401 0.580081
vt 0.552600 0.580081
vt 0.625000 0.375000
vt 0.447401 0.080081
vt 0.447401 0.000000
vt 0.552600 0.000000
vt 0.552600 0.080081
vt 0.750000 0.080081
vt 0.750000 0.169919
vt 0.552600 0.169919
vt 0.447401 0.375000
vt 0.447401 0.169919
vt 0.552600 0.375000
vt 0.447401 0.580081
vt 0.552600 0.580081
vt 0.625000 0.580081
vt 0.625000 0.669919
vt 0.552600 0.669919
vt 0.447401 0.875000
vt 0.447401 0.669919
vt 0.552600 0.875000
vt 0.625000 0.375000
vt 0.497020 0.000000
vt 0.497020 0.875000
vt 0.497020 0.080081
vt 0.497020 0.169919
vt 0.497020 0.375000
vt 0.497020 0.580081
vt 0.497020 0.669919
vt 0.502289 0.875000
vt 0.502289 0.000000
vt 0.502289 0.669919
vt 0.502289 0.580081
vt 0.502289 0.375000
vt 0.502289 0.169919
vt 0.502289 0.080081
vn -0.012902 -0.254037 0.967108
vn -0.050722 -0.998713 0.000000
vn 0.216381 -0.976309 -0.000077
vn 0.109674 -0.247376 0.962692
vn 0.578249 -0.486382 0.655028
vn 0.855379 0.295170 -0.425679
vn 0.110815 0.250727 0.961694
vn -0.050721 0.998713 0.000000
vn -0.013041 0.256789 0.966380
vn 0.216866 0.976201 0.000076
vn -0.013041 0.256789 -0.966379
vn 0.110778 0.250514 -0.961754
vn 0.109710 -0.247590 -0.962633
vn -0.012902 -0.254038 -0.967108
vn 0.050722 -0.998713 0.000000
vn 0.012902 -0.254037 0.967108
vn -0.103692 -0.247796 0.963247
vn -0.202120 -0.979361 -0.000073
vn -0.104767 0.251121 0.962269
vn -0.855296 0.295206 -0.425819
vn -0.578384 -0.486233 0.655019
vn 0.013041 0.256789 0.966380
vn 0.050721 0.998713 0.000000
vn -0.202598 0.979262 0.000072
vn 0.013041 0.256789 -0.966379
vn -0.104731 0.250918 -0.962326
vn -0.103727 -0.247999 -0.963191
vn 0.012902 -0.254038 -0.967108
vn 0.013378 -0.263412 0.964591
vn 0.050722 -0.998713 0.000000
vn 0.013528 0.266363 0.963778
vn 0.050721 0.998713 0.000000
vn 0.013528 0.266364 -0.963777
vn 0.013378 -0.263413 -0.964590
vn -0.050722 -0.998713 0.000000
vn -0.013332 -0.262495 -0.964841
vn -0.013480 0.265427 -0.964037
vn -0.050721 0.998713 0.000000
vn -0.013480 0.265426 0.964037
vn -0.013331 -0.262495 0.964841
s 1
g spikes2_GRP spearhead2_GEO1
usemtl initialShadingGroup
f 139/177/101 134/172/102 102/131/103 103/132/104
f 103/132/104 105/133/105 106/140/106 107/135/107
f 137/175/108 138/176/109 107/135/107 109/141/110
f 136/174/111 137/175/108 109/141/110 112/143/112
f 112/143/112 106/139/106 105/137/105 113/138/113
f 134/171/102 135/173/114 113/138/113 102/130/103
f 138/176/109 139/177/101 103/132/104 107/135/107
f 135/173/114 136/174/111 112/143/112 113/138/113
f 105/133/105 103/132/104 102/131/103
f 109/141/110 107/135/107 106/140/106
f 112/143/112 109/141/110 106/144/106
f 102/130/103 113/138/113 105/137/105
s 3
f 128/164/115 129/166/116 117/148/117 116/147/118
f 117/148/117 121/151/119 120/150/120 119/149/121
f 130/167/122 131/168/123 123/154/124 121/151/119
f 131/168/123 132/169/125 126/156/126 123/154/124
f 126/156/126 127/159/127 119/158/121 120/157/120
f 133/170/128 128/165/115 116/162/118 127/159/127
f 129/166/116 130/167/122 121/151/119 117/148/117
f 132/169/125 133/170/128 127/159/127 126/156/126
f 119/149/121 116/147/118 117/148/117
f 123/154/124 120/150/120 121/151/119
f 126/156/126 120/163/120 123/154/124
f 116/162/118 119/158/121 127/159/127
f 115/145/129 129/166/116 128/164/115 114/146/130
f 115/145/129 118/153/131 130/167/122 129/166/116
f 122/152/132 131/168/123 130/167/122 118/153/131
f 124/155/133 132/169/125 131/168/123 122/152/132
f 124/155/133 125/161/134 133/170/128 132/169/125
f 114/160/130 128/165/115 133/170/128 125/161/134
s 1
f 100/126/135 111/128/136 135/173/114 134/171/102
f 110/142/137 136/174/111 135/173/114 111/128/136
f 110/142/137 108/136/138 137/175/108 136/174/111
f 108/136/138 104/134/139 138/176/109 137/175/108
f 101/129/140 139/177/101 138/176/109 104/134/139
f 101/129/140 100/127/135 134/172/102 139/177/101
g default
v 0.886750 6.042343 -0.505852
v 0.886750 6.154067 -0.423780
v 1.423712 6.026800 -0.517666
v 1.385462 6.157175 -0.429041
v 0.886750 6.332258 -0.423780
v 1.710204 6.278859 -0.505807
v 1.709976 6.278873 -0.505898
v 1.338960 6.315761 -0.417748
v 0.886750 6.440401 -0.505852
v 1.340936 6.473482 -0.490747
v 0.886750 6.332258 -0.587925
v 0.886750 6.154067 -0.587925
v 1.332352 6.325482 -0.581472
v 1.326211 6.147696 -0.591781
v -0.886750 6.042343 -0.505852
v -0.886749 6.154067 -0.423780
v -1.426015 6.065181 -0.505852
v -1.364605 6.161043 -0.423780
v -0.886749 6.332258 -0.423780
v -1.683282 6.334451 -0.505807
v -1.683055 6.334465 -0.505898
v -1.268901 6.324997 -0.423780
v -0.886750 6.440401 -0.505852
v -1.341810 6.465964 -0.505852
v -0.886749 6.332258 -0.587925
v -0.886749 6.154067 -0.587925
v -1.294813 6.324997 -0.587925
v -1.364605 6.161043 -0.587925
v 1.093865 6.015955 -0.505852
v 1.146541 6.154067 -0.587925
v 1.146541 6.332258 -0.587925
v 1.146541 6.466790 -0.505852
v 1.118120 6.332258 -0.423780
v 1.108605 6.154067 -0.423780
v -1.083379 6.022370 -0.505852
v -1.083379 6.154067 -0.423780
v -1.083379 6.332258 -0.423780
v -1.083380 6.460374 -0.505852
v -1.083379 6.332258 -0.587925
v -1.083379 6.154067 -0.587925
vt 0.447401 0.875000
vt 0.447401 0.000000
vt 0.447401 0.669919
vt 0.447401 0.080081
vt 0.552600 0.875000
vt 0.552600 0.000000
vt 0.552600 0.080081
vt 0.750000 0.080081
vt 0.447401 0.169919
vt 0.552600 0.169919
vt 0.447401 0.375000
vt 0.625000 0.669919
vt 0.552600 0.669919
vt 0.625000 0.580081
vt 0.750000 0.169919
vt 0.552600 0.375000
vt 0.447401 0.580081
vt 0.552600 0.580081
vt 0.625000 0.375000
vt 0.447401 0.080081
vt 0.447401 0.000000
vt 0.552600 0.000000
vt 0.552600 0.080081
vt 0.750000 0.080081
vt 0.750000 0.169919
vt 0.552600 0.169919
vt 0.447401 0.375000
vt 0.447401 0.169919
vt 0.552600 0.375000
vt 0.447401 0.580081
vt 0.552600 0.580081
vt 0.625000 0.580081
vt 0.625000 0.669919
vt 0.552600 0.669919
vt 0.447401 0.875000
vt 0.447401 0.669919
vt 0.552600 0.875000
vt 0.625000 0.375000
vt 0.509001 0.875000
vt 0.509001 0.000000
vt 0.509001 0.669919
vt 0.509001 0.580081
vt 0.509001 0.375000
vt 0.509001 0.169919
vt 0.509001 0.080081
vt 0.494025 0.000000
vt 0.494025 0.875000
vt 0.494025 0.080081
vt 0.494025 0.169919
vt 0.494025 0.375000
vt 0.494025 0.580081
vt 0.494025 0.669919
vn 0.004300 -0.287186 0.957865
vn -0.015531 -0.995867 0.089485
vn 0.307555 -0.951402 0.015616
vn 0.128465 -0.305316 0.943546
vn 0.772002 -0.417688 0.479115
vn 0.723658 0.353925 -0.592500
vn 0.087398 0.197688 0.976361
vn -0.021251 0.999564 -0.020507
vn -0.016459 0.248221 0.968564
vn 0.219123 0.965231 0.142526
vn 0.004876 0.271978 -0.962291
vn 0.124436 0.278942 -0.952212
vn 0.092445 -0.247688 -0.964419
vn -0.010901 -0.259642 -0.965643
vn -0.028919 -0.999582 -0.000000
vn -0.008839 -0.297641 0.954637
vn -0.141113 -0.277793 0.950220
vn -0.344714 -0.938708 -0.000062
vn -0.061515 0.245253 0.967506
vn -0.744806 0.596748 -0.298590
vn -0.735954 -0.132467 0.663946
vn 0.005671 0.262562 0.964898
vn 0.020674 0.999460 -0.025527
vn -0.181522 0.983387 -0.000033
vn 0.005501 0.262238 -0.964988
vn -0.067078 0.245132 -0.967166
vn -0.136896 -0.286260 -0.948322
vn -0.008710 -0.293320 -0.955975
vn -0.058661 -0.995753 -0.070956
vn -0.013849 -0.245034 -0.969416
vn -0.013420 0.264243 -0.964363
vn -0.052090 0.997583 -0.045981
vn -0.014866 0.276697 0.960842
vn -0.015571 -0.253125 0.967308
vn 0.013405 -0.263936 0.964447
vn 0.050722 -0.998713 0.000000
vn 0.013555 0.266900 0.963629
vn 0.050722 0.998713 0.000000
vn 0.013555 0.266900 -0.963629
vn 0.013405 -0.263936 -0.964447
s 1
g spikes2_GRP spearhead3_GEO
usemtl initialShadingGroup
f 173/222/141 168/217/142 142/183/143 143/184/144
f 143/184/144 145/185/145 146/192/146 147/187/147
f 171/220/148 172/221/149 147/187/147 149/193/150
f 170/219/151 171/220/148 149/193/150 152/195/152
f 152/195/152 146/191/146 145/189/145 153/190/153
f 168/216/142 169/218/154 153/190/153 142/182/143
f 172/221/149 173/222/141 143/184/144 147/187/147
f 169/218/154 170/219/151 152/195/152 153/190/153
f 145/185/145 143/184/144 142/183/143
f 149/193/150 147/187/147 146/192/146
f 152/195/152 149/193/150 146/196/146
f 142/182/143 153/190/153 145/189/145
s 3
f 174/223/155 175/225/156 157/200/157 156/199/158
f 157/200/157 161/203/159 160/202/160 159/201/161
f 176/226/162 177/227/163 163/206/164 161/203/159
f 177/227/163 178/228/165 166/208/166 163/206/164
f 166/208/166 167/211/167 159/210/161 160/209/160
f 179/229/168 174/224/155 156/214/158 167/211/167
f 175/225/156 176/226/162 161/203/159 157/200/157
f 178/228/165 179/229/168 167/211/167 166/208/166
f 159/201/161 156/199/158 157/200/157
f 163/206/164 160/202/160 161/203/159
f 166/208/166 160/215/160 163/206/164
f 156/214/158 159/210/161 167/211/167
s 1
f 140/178/169 151/180/170 169/218/154 168/216/142
f 150/194/171 170/219/151 169/218/154 151/180/170
f 150/194/171 148/188/172 171/220/148 170/219/151
f 148/188/172 144/186/173 172/221/149 171/220/148
f 141/181/174 173/222/141 172/221/149 144/186/173
f 141/181/174 140/179/169 168/217/142 173/222/141
s 3
f 155/197/175 175/225/156 174/223/155 154/198/176
f 155/197/175 158/205/177 176/226/162 175/225/156
f 162/204/178 177/227/163 176/226/162 158/205/177
f 164/207/179 178/228/165 177/227/163 162/204/178
f 164/207/179 165/213/180 179/229/168 178/228/165
f 154/212/176 174/224/155 179/229/168 165/213/180
g default
v 0.183608 0.456763 -0.536433
v 0.157875 0.456763 -0.573729
v 0.117795 0.456763 -0.603327
v 0.067291 0.456763 -0.622330
v 0.011308 0.456763 -0.628878
v -0.044676 0.456763 -0.622330
v -0.095180 0.456763 -0.603327
v -0.135260 0.456763 -0.573729
v -0.160993 0.456763 -0.536433
v -0.169860 0.456763 -0.495091
v -0.160993 0.456763 -0.453748
v -0.135260 0.456763 -0.416452
v -0.095180 0.456763 -0.386854
v -0.044676 0.456763 -0.367851
v 0.011308 0.456763 -0.361303
v 0.067291 0.456763 -0.367851
v 0.117795 0.456763 -0.386854
v 0.157875 0.456763 -0.416452
v 0.183608 0.456763 -0.453748
v 0.192475 0.456763 -0.495091
v 0.183608 3.681391 -0.536433
v 0.157875 3.681391 -0.573729
v 0.117795 3.681391 -0.603327
v 0.067291 3.681391 -0.622330
v 0.011308 3.681391 -0.628878
v -0.044676 3.681391 -0.622330
v -0.095180 3.681391 -0.603327
v -0.135260 3.681391 -0.573729
v -0.160993 3.681391 -0.536433
v -0.169860 3.681391 -0.495091
v -0.160993 3.681391 -0.453748
v -0.135260 3.681391 -0.416452
v -0.095180 3.681391 -0.386854
v -0.044676 3.681391 -0.367851
v 0.011308 3.681391 -0.361303
v 0.067291 3.681391 -0.367851
v 0.117795 3.681391 -0.386854
v 0.157875 3.681391 -0.416452
v 0.183608 3.681391 -0.453748
v 0.192475 3.681391 -0.495091
v 0.011308 0.456763 -0.495091
v 0.011308 3.681391 -0.495091
vt 0.648603 0.107966
vt 0.626409 0.064408
vt 0.591842 0.029841
vt 0.548284 0.007647
vt 0.500000 -0.000000
vt 0.451716 0.007647
vt 0.408159 0.029841
vt 0.373591 0.064409
vt 0.351397 0.107966
vt 0.343750 0.156250
vt 0.351397 0.204534
vt 0.373591 0.248091
vt 0.408159 0.282659
vt 0.451716 0.304853
vt 0.500000 0.312500
vt 0.548284 0.304853
vt 0.591841 0.282659
vt 0.626409 0.248091
vt 0.648603 0.204534
vt 0.656250 0.156250
vt 0.375000 0.312500
vt 0.387500 0.312500
vt 0.400000 0.312500
vt 0.412500 0.312500
vt 0.425000 0.312500
vt 0.437500 0.312500
vt 0.450000 0.312500
vt 0.462500 0.312500
vt 0.475000 0.312500
vt 0.487500 0.312500
vt 0.500000 0.312500
vt 0.512500 0.312500
vt 0.525000 0.312500
vt 0.537500 0.312500
vt 0.550000 0.312500
vt 0.562500 0.312500
vt 0.575000 0.312500
vt 0.587500 0.312500
vt 0.600000 0.312500
vt 0.612500 0.312500
vt 0.625000 0.312500
vt 0.375000 0.687500
vt 0.387500 0.687500
vt 0.400000 0.687500
vt 0.412500 0.687500
vt 0.425000 0.687500
vt 0.437500 0.687500
vt 0.450000 0.687500
vt 0.462500 0.687500
vt 0.475000 0.687500
vt 0.487500 0.687500
vt 0.500000 0.687500
vt 0.512500 0.687500
vt 0.525000 0.687500
vt 0.537500 0.687500
vt 0.550000 0.687500
vt 0.562500 0.687500
vt 0.575000 0.687500
vt 0.587500 0.687500
vt 0.600000 0.687500
vt 0.612500 0.687500
vt 0.625000 0.687500
vt 0.648603 0.795466
vt 0.626409 0.751908
vt 0.591842 0.717341
vt 0.548284 0.695147
vt 0.500000 0.687500
vt 0.451716 0.695147
vt 0.408159 0.717341
vt 0.373591 0.751909
vt 0.351397 0.795466
vt 0.343750 0.843750
vt 0.351397 0.892034
vt 0.373591 0.935591
vt 0.408159 0.970159
vt 0.451716 0.992353
vt 0.500000 1.000000
vt 0.548284 0.992353
vt 0.591841 0.970159
vt 0.626409 0.935591
vt 0.648603 0.892034
vt 0.656250 0.843750
vt 0.500000 0.156250
vt 0.500000 0.843750
vn 0.915049 -0.024325 -0.402608
vn 0.712666 -0.022271 -0.701150
vn 0.712666 0.022271 -0.701150
vn 0.915049 0.024325 -0.402608
vn 0.472685 -0.020331 -0.880997
vn 0.472685 0.020331 -0.880997
vn 0.233280 -0.019086 -0.972222
vn 0.233280 0.019086 -0.972222
vn -0.000000 -0.018667 -0.999826
vn -0.000000 0.018667 -0.999826
vn -0.233280 -0.019086 -0.972222
vn -0.233280 0.019086 -0.972222
vn -0.472685 -0.020331 -0.880997
vn -0.472685 0.020331 -0.880997
vn -0.712666 -0.022271 -0.701150
vn -0.712666 0.022271 -0.701150
vn -0.915049 -0.024325 -0.402609
vn -0.915049 0.024325 -0.402609
vn -0.999681 -0.025274 0.000000
vn -0.999681 0.025274 0.000000
vn -0.915049 -0.024325 0.402610
vn -0.915049 0.024325 0.402610
vn -0.712666 -0.022271 0.701150
vn -0.712666 0.022271 0.701150
vn -0.472685 -0.020331 0.880997
vn -0.472685 0.020331 0.880997
vn -0.233280 -0.019086 0.972222
vn -0.233280 0.019086 0.972222
vn 0.000000 -0.018667 0.999826
vn 0.000000 0.018667 0.999826
vn 0.233280 -0.019086 0.972222
vn 0.233280 0.019086 0.972222
vn 0.472685 -0.020331 0.880997
vn 0.472685 0.020331 0.880997
vn 0.712666 -0.022271 0.701150
vn 0.712666 0.022271 0.701150
vn 0.915049 -0.024325 0.402610
vn 0.915049 0.024325 0.402610
vn 0.999681 -0.025274 0.000001
vn 0.999681 0.025274 0.000001
vn 0.000000 -1.000000 0.000000
vn 0.000000 1.000000 0.000000
s 1
g handle_GEO sword_handle_GRP
usemtl initialShadingGroup
f 180/250/181 181/251/182 201/272/183 200/271/184
f 181/251/182 182/252/185 202/273/186 201/272/183
f 182/252/185 183/253/187 203/274/188 202/273/186
f 183/253/187 184/254/189 204/275/190 203/274/188
f 184/254/189 185/255/191 205/276/192 204/275/190
f 185/255/191 186/256/193 206/277/194 205/276/192
f 186/256/193 187/257/195 207/278/196 206/277/194
f 187/257/195 188/258/197 208/279/198 207/278/196
f 188/258/197 189/259/199 209/280/200 208/279/198
f 189/259/199 190/260/201 210/281/202 209/280/200
f 190/260/201 191/261/203 211/282/204 210/281/202
f 191/261/203 192/262/205 212/283/206 211/282/204
f 192/262/205 193/263/207 213/284/208 212/283/206
f 193/263/207 194/264/209 214/285/210 213/284/208
f 194/264/209 195/265/211 215/286/212 214/285/210
f 195/265/211 196/266/213 216/287/214 215/286/212
f 196/266/213 197/267/215 217/288/216 216/287/214
f 197/267/215 198/268/217 218/289/218 217/288/216
f 198/268/217 199/269/219 219/290/220 218/289/218
f 199/269/219 180/270/181 200/291/184 219/290/220
f 181/231/182 180/230/181 220/312/221
f 182/232/185 181/231/182 220/312/221
f 183/233/187 182/232/185 220/312/221
f 184/234/189 183/233/187 220/312/221
f 185/235/191 184/234/189 220/312/221
f 186/236/193 185/235/191 220/312/221
f 187/237/195 186/236/193 220/312/221
f 188/238/197 187/237/195 220/312/221
f 189/239/199 188/238/197 220/312/221
f 190/240/201 189/239/199 220/312/221
f 191/241/203 190/240/201 220/312/221
f 192/242/205 191/241/203 220/312/221
f 193/243/207 192/242/205 220/312/221
f 194/244/209 193/243/207 220/312/221
f 195/245/211 194/244/209 220/312/221
f 196/246/213 195/245/211 220/312/221
f 197/247/215 196/246/213 220/312/221
f 198/248/217 197/247/215 220/312/221
f 199/249/219 198/248/217 220/312/221
f 180/230/181 199/249/219 220/312/221
f 200/310/184 201/309/183 221/313/222
f 201/309/183 202/308/186 221/313/222
f 202/308/186 203/307/188 221/313/222
f 203/307/188 204/306/190 221/313/222
f 204/306/190 205/305/192 221/313/222
f 205/305/192 206/304/194 221/313/222
f 206/304/194 207/303/196 221/313/222
f 207/303/196 208/302/198 221/313/222
f 208/302/198 209/301/200 221/313/222
f 209/301/200 210/300/202 221/313/222
f 210/300/202 211/299/204 221/313/222
f 211/299/204 212/298/206 221/313/222
f 212/298/206 213/297/208 221/313/222
f 213/297/208 214/296/210 221/313/222
f 214/296/210 215/295/212 221/313/222
f 215/295/212 216/294/214 221/313/222
f 216/294/214 217/293/216 221/313/222
f 217/293/216 218/292/218 221/313/222
f 218/292/218 219/311/220 221/313/222
f 219/311/220 200/310/184 221/313/222
g default
v -0.430864 3.960997 -0.702718
v -0.365220 3.833039 -0.702718
v -0.262975 3.731491 -0.702718
v -0.134140 3.666294 -0.702718
v 0.008675 3.643828 -0.702718
v 0.151489 3.666294 -0.702718
v 0.280324 3.731492 -0.702718
v 0.382569 3.833040 -0.702718
v 0.448213 3.960997 -0.702718
v 0.470833 4.102840 -0.702718
v -0.453483 4.102840 -0.702718
v -0.430864 3.960997 -0.295163
v -0.365220 3.833039 -0.295163
v -0.262975 3.731491 -0.295163
v -0.134140 3.666294 -0.295163
v 0.008675 3.643828 -0.295163
v 0.151489 3.666294 -0.295163
v 0.280324 3.731492 -0.295163
v 0.382569 3.833040 -0.295163
v 0.448213 3.960997 -0.295163
v 0.470833 4.102840 -0.295163
v -0.453483 4.102840 -0.295163
v 0.008675 4.102840 -0.702718
v 0.008675 4.102840 -0.295163
v 0.307051 3.842306 -0.658358
v 0.359437 3.940838 -0.658358
v 0.225458 3.764110 -0.658358
v 0.122644 3.713906 -0.658358
v 0.008675 3.696606 -0.658358
v -0.105295 3.713906 -0.658358
v -0.208109 3.764110 -0.658358
v -0.289702 3.842306 -0.658358
v -0.342088 3.940838 -0.658358
v -0.360139 4.050061 -0.658358
v 0.008675 4.050061 -0.658358
v 0.377489 4.050061 -0.658358
v -0.360139 4.050061 -0.339523
v 0.008675 4.050061 -0.339523
v -0.342088 3.940838 -0.339523
v -0.289702 3.842306 -0.339523
v -0.208109 3.764110 -0.339523
v -0.105295 3.713906 -0.339523
v 0.008675 3.696606 -0.339523
v 0.122644 3.713906 -0.339523
v 0.225458 3.764110 -0.339523
v 0.307051 3.842306 -0.339523
v 0.359437 3.940838 -0.339523
v 0.377489 4.050061 -0.339523
vt 0.648603 0.107966
vt 0.626409 0.064408
vt 0.591842 0.029841
vt 0.548284 0.007647
vt 0.500000 -0.000000
vt 0.451716 0.007647
vt 0.408159 0.029841
vt 0.373591 0.064409
vt 0.351397 0.107966
vt 0.343750 0.156250
vt 0.656250 0.156250
vt 0.375000 0.312500
vt 0.387500 0.312500
vt 0.400000 0.312500
vt 0.412500 0.312500
vt 0.425000 0.312500
vt 0.437500 0.312500
vt 0.450000 0.312500
vt 0.462500 0.312500
vt 0.475000 0.312500
vt 0.487500 0.312500
vt 0.612500 0.312500
vt 0.625000 0.312500
vt 0.375000 0.687500
vt 0.387500 0.687500
vt 0.400000 0.687500
vt 0.412500 0.687500
vt 0.425000 0.687500
vt 0.437500 0.687500
vt 0.450000 0.687500
vt 0.462500 0.687500
vt 0.475000 0.687500
vt 0.487500 0.687500
vt 0.612500 0.687500
vt 0.625000 0.687500
vt 0.343750 0.843750
vt 0.351397 0.892034
vt 0.373591 0.935591
vt 0.408159 0.970159
vt 0.451716 0.992353
vt 0.500000 1.000000
vt 0.548284 0.992353
vt 0.591841 0.970159
vt 0.626409 0.935591
vt 0.648603 0.892034
vt 0.656250 0.843750
vt 0.500000 0.156250
vt 0.500000 0.843750
vt 0.351397 0.107966
vt 0.373591 0.064409
vt 0.408159 0.029841
vt 0.451716 0.007647
vt 0.500000 -0.000000
vt 0.548284 0.007647
vt 0.591842 0.029841
vt 0.626409 0.064408
vt 0.648603 0.107966
vt 0.656250 0.156250
vt 0.500000 0.156250
vt 0.343750 0.156250
vt 0.500000 0.843750
vt 0.656250 0.843750
vt 0.648603 0.892034
vt 0.626409 0.935591
vt 0.591841 0.970159
vt 0.548284 0.992353
vt 0.500000 1.000000
vt 0.451716 0.992353
vt 0.408159 0.970159
vt 0.373591 0.935591
vt 0.351397 0.892034
vt 0.343750 0.843750
vn -0.934884 -0.311208 -0.170709
vn -0.795756 -0.587830 -0.145698
vn -0.795756 -0.587830 0.145698
vn -0.934884 -0.311208 0.170709
vn -0.577382 -0.806312 -0.128421
vn -0.577382 -0.806312 0.128421
vn -0.303014 -0.945574 -0.118625
vn -0.303014 -0.945574 0.118625
vn 0.000000 -0.993308 -0.115496
vn 0.000000 -0.993308 0.115496
vn 0.303015 -0.945574 -0.118625
vn 0.303015 -0.945574 0.118625
vn 0.577383 -0.806311 -0.128421
vn 0.577383 -0.806311 0.128421
vn 0.795756 -0.587830 -0.145698
vn 0.795756 -0.587830 0.145698
vn 0.934883 -0.311210 -0.170709
vn 0.934883 -0.311210 0.170709
vn 0.935357 -0.259557 -0.240287
vn 0.935357 -0.259557 0.240287
vn -0.935358 -0.259553 -0.240288
vn -0.935358 -0.259553 0.240288
vn -0.030115 0.011680 -0.999478
vn -0.025074 0.020556 -0.999474
vn -0.017743 0.027150 -0.999474
vn -0.009124 0.031092 -0.999475
vn -0.000000 0.032386 -0.999475
vn 0.009124 0.031092 -0.999475
vn 0.017743 0.027150 -0.999474
vn 0.025074 0.020556 -0.999474
vn 0.030115 0.011680 -0.999478
vn 0.033741 -0.125205 -0.991557
vn -0.000000 -0.082242 -0.996612
vn -0.033741 -0.125205 -0.991557
vn -0.000000 -0.082242 0.996612
vn 0.033741 -0.125205 0.991557
vn 0.030115 0.011680 0.999478
vn 0.025074 0.020556 0.999474
vn 0.017743 0.027149 0.999474
vn 0.009124 0.031092 0.999475
vn -0.000000 0.032386 0.999475
vn -0.009124 0.031092 0.999475
vn -0.017743 0.027149 0.999474
vn -0.025074 0.020556 0.999474
vn -0.030115 0.011680 0.999478
vn -0.033741 -0.125205 0.991557
vn 0.000000 -0.643411 -0.765521
vn 0.000000 -0.643411 0.765521
s 1
g sword_handle_GRP low_handle_GEO
usemtl initialShadingGroup
f 222/325/223 223/326/224 234/338/225 233/337/226
f 223/326/224 224/327/227 235/339/228 234/338/225
f 224/327/227 225/328/229 236/340/230 235/339/228
f 225/328/229 226/329/231 237/341/232 236/340/230
f 226/329/231 227/330/233 238/342/234 237/341/232
f 227/330/233 228/331/235 239/343/236 238/342/234
f 228/331/235 229/332/237 240/344/238 239/343/236
f 229/332/237 230/333/239 241/345/240 240/344/238
f 230/333/239 231/334/241 242/346/242 241/345/240
f 232/335/243 222/336/223 233/348/226 243/347/244
f 247/362/245 246/363/246 248/364/247 249/365/248 250/366/249 251/367/250 252/368/251 253/369/252 254/370/253 255/371/254 256/372/255 257/373/256
f 259/374/257 258/375/258 260/376/259 261/377/260 262/378/261 263/379/262 264/380/263 265/381/264 266/382/265 267/383/266 268/384/267 269/385/268
f 230/322/239 229/321/237 246/363/246 247/362/245
f 229/321/237 228/320/235 248/364/247 246/363/246
f 228/320/235 227/319/233 249/365/248 248/364/247
f 227/319/233 226/318/231 250/366/249 249/365/248
f 226/318/231 225/317/229 251/367/250 250/366/249
f 225/317/229 224/316/227 252/368/251 251/367/250
f 224/316/227 223/315/224 253/369/252 252/368/251
f 223/315/224 222/314/223 254/370/253 253/369/252
f 222/314/223 232/324/243 255/371/254 254/370/253
f 232/324/243 244/360/269 256/372/255 255/371/254
f 244/360/269 231/323/241 257/373/256 256/372/255
f 231/323/241 230/322/239 247/362/245 257/373/256
f 245/361/270 243/359/244 258/375/258 259/374/257
f 243/359/244 233/358/226 260/376/259 258/375/258
f 233/358/226 234/357/225 261/377/260 260/376/259
f 234/357/225 235/356/228 262/378/261 261/377/260
f 235/356/228 236/355/230 263/379/262 262/378/261
f 236/355/230 237/354/232 264/380/263 263/379/262
f 237/354/232 238/353/234 265/381/264 264/380/263
f 238/353/234 239/352/236 266/382/265 265/381/264
f 239/352/236 240/351/238 267/383/266 266/382/265
f 240/351/238 241/350/240 268/384/267 267/383/266
f 241/350/240 242/349/242 269/385/268 268/384/267
f 242/349/242 245/361/270 259/374/257 269/385/268
g default
v -0.277778 -0.082289 -0.229057
v 0.277778 -0.082289 -0.229057
v -0.361001 0.473266 -0.229057
v 0.361001 0.473266 -0.229057
v -0.277778 0.473266 -0.784613
v 0.277778 0.473266 -0.784613
v -0.277778 -0.082289 -0.784613
v 0.277778 -0.082289 -0.784613
v -0.375000 0.533585 -0.506835
v 0.375000 0.195489 -0.881835
v 0.000000 -0.179511 -0.881835
v -0.375000 0.195489 -0.881835
v 0.375000 -0.179511 -0.506835
v -0.375000 -0.179511 -0.506835
v 0.000000 -0.179511 -0.131835
v 0.375000 0.195489 -0.131835
v 0.000000 0.550539 -0.131835
v -0.375000 0.195489 -0.131835
v 0.375000 0.533585 -0.506835
v 0.000000 0.550539 -0.881835
v 0.000000 0.195489 -0.006835
v 0.000000 0.410122 -0.506835
v 0.000000 0.195489 -1.006835
v 0.000000 -0.304511 -0.506835
v 0.500000 0.195489 -0.506835
v -0.500000 0.195489 -0.506835
v 0.375000 0.195489 -0.881835
v 0.500000 0.195489 -0.506835
v 0.277778 0.473266 -0.784613
v 0.375000 0.535002 -0.506835
v 0.375000 0.195489 -0.131835
v 0.361001 0.473266 -0.229057
v 0.560732 0.252360 -0.982457
v 0.847694 0.362124 -0.506835
v 0.452167 0.562546 -0.873892
v 0.788043 0.661345 -0.506835
v 0.560732 0.252360 -0.031213
v 0.452167 0.562546 -0.139778
v -0.560732 0.252360 -0.031213
v -0.887660 0.383313 -0.506835
v -0.452167 0.562546 -0.139778
v -0.748077 0.671110 -0.506835
v -0.560732 0.252360 -0.982457
v -0.452167 0.562546 -0.873892
v 0.560732 0.252360 -0.982457
v 0.847694 0.362124 -0.506835
v 0.452167 0.562546 -0.873892
v 0.788043 0.661345 -0.506835
v 0.560732 0.252360 -0.031213
v 0.452167 0.562546 -0.139778
v 0.938085 0.551040 -1.343487
v 1.725883 0.915393 -0.506835
v 0.874635 0.659258 -1.283492
v 1.738976 1.028114 -0.506835
v 0.938085 0.551039 0.329816
v 0.874635 0.659258 0.269822
v -0.907227 0.588092 0.325239
v -1.699109 1.041486 -0.506835
v -0.857051 0.705166 0.275799
v -1.649255 1.149855 -0.506835
v -0.907227 0.588092 -1.338909
v -0.857050 0.705166 -1.289470
v 0.573088 -0.258747 -0.506835
v 0.451855 -0.151920 -0.159426
v 0.698088 0.116253 -0.506835
v 0.549078 0.125858 -0.062204
v 0.451855 -0.151920 -0.854244
v 0.549078 0.125858 -0.951466
v -0.451855 -0.151920 -0.854244
v -0.573088 -0.258747 -0.506835
v -0.698088 0.116253 -0.506835
v -0.549078 0.125858 -0.951466
v -0.451855 -0.151920 -0.159426
v -0.549078 0.125858 -0.062204
v 1.308481 -0.444373 -0.506835
v 1.119128 -0.321711 0.013199
v 1.357351 -0.255557 -0.506835
v 1.169125 -0.216078 0.056340
v 1.119128 -0.321711 -1.026869
v 1.169125 -0.216078 -1.070010
v -1.119128 -0.321711 -1.026869
v -1.308481 -0.444373 -0.506835
v -1.357350 -0.255557 -0.506835
v -1.169125 -0.216078 -1.070010
v -1.119128 -0.321711 0.013199
v -1.169125 -0.216078 0.056340
v 0.698088 0.116253 -0.506835
v 0.549078 0.125858 -0.062204
v 1.169125 -0.216078 0.056339
v 1.357351 -0.255557 -0.506835
v 0.549078 0.125858 -0.951466
v 1.169125 -0.216078 -1.070010
v -0.698088 0.116253 -0.506835
v -0.549078 0.125858 -0.951466
v -1.169125 -0.216078 -1.070010
v -1.357350 -0.255557 -0.506835
v -0.549078 0.125858 -0.062204
v -1.169125 -0.216078 0.056340
v 0.955981 -0.355396 -0.506835
v 0.799280 -0.240324 -0.069547
v 0.871914 -0.052176 -0.000483
v 1.041342 -0.077335 -0.506835
v 0.871914 -0.052176 -1.013186
v 0.799280 -0.240324 -0.944123
v -0.955981 -0.355396 -0.506835
v -0.992184 -0.364534 -0.506835
v -0.799280 -0.240324 -0.069547
v -0.966928 -0.282983 -0.987494
v -1.041342 -0.077335 -0.506835
v -0.871914 -0.052176 -1.013186
v -0.879123 -0.056151 -1.014566
v 0.867391 -0.049681 -0.001348
v -0.867391 -0.049681 -0.001348
v 1.324592 0.222232 -0.506323
v 1.177216 0.243909 -0.037690
v 1.305536 0.176325 -0.013113
v 1.459862 0.151033 -0.506829
v 1.180799 0.241935 -0.976644
v 1.305576 0.176309 -1.000544
v -1.324591 0.222232 -0.506322
v -1.180799 0.241935 -0.976644
v -1.305576 0.176309 -1.000544
v -1.459862 0.151033 -0.506829
v -1.177216 0.243909 -0.037690
v -1.305536 0.176325 -0.013113
v -0.864961 -0.049621 -0.002754
v 0.263279 0.624510 -0.506835
v -0.000422 0.550838 -0.882366
v 0.649120 0.700175 -0.506835
v 0.460069 0.641005 -0.715041
v 0.000377 0.550590 -0.129715
v 0.460069 0.641005 -0.298629
v 0.000513 0.549939 -0.128162
v -0.253691 0.623011 -0.506835
v -0.615596 0.705373 -0.506835
v -0.450870 0.640354 -0.297459
v -0.001201 0.550492 -0.881909
v -0.450870 0.640354 -0.716211
v 0.286008 0.804719 -0.506835
v 0.001485 0.770211 -0.722428
v 0.572134 0.875339 -0.506835
v 0.399074 0.820114 -0.706902
v 0.007879 0.764849 -0.291242
v 0.399074 0.820114 -0.306769
v 0.006951 0.766723 -0.288747
v -0.268411 0.800439 -0.506835
v -0.532197 0.877310 -0.506835
v -0.382191 0.816627 -0.304888
v 0.002053 0.772495 -0.724923
v -0.382191 0.816627 -0.708782
v 1.141693 1.128600 -0.506835
v 0.950987 1.101053 -0.661812
v 0.890713 1.184441 -0.655754
v 1.068705 1.210152 -0.506835
v 0.950987 1.101053 -0.351858
v 0.890713 1.184441 -0.357916
v -0.941896 1.100750 -0.350987
v -1.109910 1.131021 -0.506835
v -0.874030 1.182817 -0.356517
v -1.030842 1.211069 -0.506835
v -0.941897 1.100750 -0.662683
v -0.874030 1.182817 -0.657154
vt 0.375000 0.000000
vt 0.375000 1.000000
vt 0.625000 0.000000
vt 0.625000 1.000000
vt 0.375000 0.250000
vt 0.625000 0.250000
vt 0.375000 0.500000
vt 0.125000 0.250000
vt 0.625000 0.500000
vt 0.875000 0.250000
vt 0.375000 0.750000
vt 0.125000 0.000000
vt 0.625000 0.750000
vt 0.875000 0.000000
vt 0.500000 0.125000
vt 0.500000 0.375000
vt 0.500000 0.625000
vt 0.500000 0.875000
vt 0.750000 0.125000
vt 0.250000 0.125000
vt 0.500000 0.000000
vt 0.500000 1.000000
vt 0.625000 0.125000
vt 0.500000 0.250000
vt 0.375000 0.125000
vt 0.625000 0.375000
vt 0.750000 0.250000
vt 0.500000 0.500000
vt 0.375000 0.375000
vt 0.250000 0.250000
vt 0.625000 0.625000
vt 0.875000 0.125000
vt 0.500000 0.750000
vt 0.375000 0.625000
vt 0.125000 0.125000
vt 0.625000 0.875000
vt 0.750000 0.000000
vt 0.375000 0.875000
vt 0.250000 0.000000
vt 0.750000 0.125000
vt 0.875000 0.125000
vt 0.875000 0.250000
vt 0.750000 0.250000
vt 0.625000 0.125000
vt 0.625000 0.250000
vt 0.750000 0.125000
vt 0.875000 0.125000
vt 0.875000 0.250000
vt 0.750000 0.250000
vt 0.625000 0.125000
vt 0.625000 0.250000
vt 0.250000 0.125000
vt 0.375000 0.125000
vt 0.375000 0.250000
vt 0.250000 0.250000
vt 0.125000 0.125000
vt 0.125000 0.250000
vt 0.750000 0.125000
vt 0.875000 0.125000
vt 0.875000 0.250000
vt 0.750000 0.250000
vt 0.625000 0.125000
vt 0.625000 0.250000
vt 0.750000 0.125000
vt 0.875000 0.125000
vt 0.875000 0.250000
vt 0.750000 0.250000
vt 0.625000 0.125000
vt 0.625000 0.250000
vt 0.250000 0.125000
vt 0.375000 0.125000
vt 0.375000 0.250000
vt 0.250000 0.250000
vt 0.125000 0.125000
vt 0.125000 0.250000
vt 0.625000 0.000000
vt 0.750000 0.000000
vt 0.750000 0.125000
vt 0.625000 0.125000
vt 0.875000 0.000000
vt 0.875000 0.125000
vt 0.125000 0.000000
vt 0.250000 0.000000
vt 0.250000 0.125000
vt 0.125000 0.125000
vt 0.375000 0.000000
vt 0.375000 0.125000
vt 0.625000 0.000000
vt 0.750000 0.000000
vt 0.750000 0.125000
vt 0.625000 0.125000
vt 0.875000 0.000000
vt 0.875000 0.125000
vt 0.125000 0.000000
vt 0.250000 0.000000
vt 0.250000 0.125000
vt 0.125000 0.125000
vt 0.375000 0.000000
vt 0.375000 0.125000
vt 0.750000 0.125000
vt 0.625000 0.125000
vt 0.625000 0.125000
vt 0.750000 0.125000
vt 0.875000 0.125000
vt 0.875000 0.125000
vt 0.250000 0.125000
vt 0.125000 0.125000
vt 0.125000 0.125000
vt 0.250000 0.125000
vt 0.375000 0.125000
vt 0.375000 0.125000
vt 0.750000 0.000000
vt 0.625000 0.000000
vt 0.625000 0.125000
vt 0.750000 0.125000
vt 0.875000 0.125000
vt 0.875000 0.000000
vt 0.250000 0.000000
vt 0.250000 0.000000
vt 0.375000 0.000000
vt 0.125000 0.000000
vt 0.250000 0.125000
vt 0.125000 0.125000
vt 0.125000 0.125000
vt 0.625000 0.125000
vt 0.375000 0.125000
vt 0.750000 0.125000
vt 0.625000 0.125000
vt 0.625000 0.125000
vt 0.750000 0.125000
vt 0.250000 0.125000
vt 0.125000 0.125000
vt 0.125000 0.125000
vt 0.250000 0.125000
vt 0.875000 0.125000
vt 0.875000 0.125000
vt 0.375000 0.125000
vt 0.375000 0.125000
vt 0.375000 0.125000
vt 0.875000 0.250000
vt 0.750000 0.250000
vt 0.750000 0.250000
vt 0.875000 0.250000
vt 0.625000 0.250000
vt 0.625000 0.250000
vt 0.375000 0.250000
vt 0.250000 0.250000
vt 0.250000 0.250000
vt 0.375000 0.250000
vt 0.125000 0.250000
vt 0.125000 0.250000
vt 0.875000 0.250000
vt 0.750000 0.250000
vt 0.750000 0.250000
vt 0.875000 0.250000
vt 0.625000 0.250000
vt 0.625000 0.250000
vt 0.375000 0.250000
vt 0.250000 0.250000
vt 0.250000 0.250000
vt 0.375000 0.250000
vt 0.125000 0.250000
vt 0.125000 0.250000
vt 0.750000 0.250000
vt 0.875000 0.250000
vt 0.875000 0.250000
vt 0.750000 0.250000
vt 0.625000 0.250000
vt 0.625000 0.250000
vt 0.250000 0.250000
vt 0.375000 0.250000
vt 0.375000 0.250000
vt 0.250000 0.250000
vt 0.125000 0.250000
vt 0.125000 0.250000
vn -0.158782 -0.706078 0.690103
vn -0.000000 -0.707107 0.707107
vn -0.000000 -0.000649 1.000000
vn -0.306896 -0.167374 0.936910
vn 0.158782 -0.706078 0.690103
vn 0.271408 0.265956 0.924989
vn 0.147343 0.849837 0.506030
vn 0.000000 0.813113 0.582106
vn 0.204813 0.573885 0.792911
vn -0.000000 0.999995 -0.003150
vn 0.771287 0.633040 -0.066152
vn -0.086134 0.996160 -0.015671
vn 0.163572 0.860103 -0.483184
vn 0.000000 0.815648 -0.578548
vn 0.165817 0.621015 -0.766058
vn -0.000000 -0.000696 -1.000000
vn -0.282084 -0.187713 -0.940847
vn 0.280773 0.273282 -0.920046
vn 0.158782 -0.706078 -0.690103
vn -0.000000 -0.707107 -0.707107
vn -0.158782 -0.706078 -0.690103
vn 0.000000 -1.000000 0.000000
vn -0.014038 -0.999901 -0.000000
vn 0.014038 -0.999901 -0.000000
vn -0.042348 -0.928628 0.368588
vn 0.101995 -0.993578 0.048989
vn 0.929908 -0.367792 -0.000000
vn 0.477034 -0.385718 0.789722
vn -0.019144 -0.747093 -0.664444
vn 0.106621 -0.334039 -0.936510
vn 0.795749 -0.605627 -0.000000
vn 0.495336 -0.774157 -0.394112
vn -0.335076 0.860592 -0.383543
vn -0.079533 0.996832 0.000000
vn 0.495336 -0.774157 0.394111
vn -0.335075 0.860592 0.383544
vn -0.028011 -0.680471 -0.732240
vn -0.308073 -0.951213 0.016887
vn -0.929909 -0.367791 -0.000000
vn -0.106619 -0.334042 -0.936509
vn -0.109363 -0.867371 0.485496
vn -0.471758 -0.385739 0.792875
vn -0.845256 -0.534362 -0.000000
vn -0.547678 -0.703922 0.452264
vn 0.391525 0.838322 0.379375
vn 0.107350 0.994221 0.000000
vn -0.547678 -0.703921 -0.452265
vn 0.391525 0.838322 -0.379375
vn 0.354005 0.935244 -0.000000
vn 0.108577 -0.851825 -0.512451
vn 0.376363 -0.926472 0.000000
vn -0.672873 -0.404484 -0.619382
vn -0.438061 -0.898655 -0.022842
vn 0.152123 -0.914317 0.375343
vn -0.674263 -0.463600 0.574843
vn 0.156383 -0.881339 -0.445854
vn 0.376363 -0.926472 0.000000
vn -0.266813 0.348166 -0.898661
vn -0.765458 0.559059 -0.318632
vn -0.581949 0.813154 0.010754
vn -0.516180 0.856480 0.000518
vn -0.110137 0.719081 -0.686143
vn 0.162436 -0.917622 0.362746
vn -0.761402 0.565359 0.317234
vn -0.116207 0.720675 0.683465
vn -0.285991 0.406436 0.867767
vn -0.856752 -0.515730 -0.000000
vn -0.429417 -0.838403 0.335682
vn -0.599152 -0.800636 -0.000000
vn 0.533302 0.804039 0.262887
vn 0.782563 0.535618 0.317347
vn 0.625590 0.780140 0.004325
vn 0.511702 0.859163 0.000454
vn 0.116232 0.705325 0.699291
vn -0.426908 -0.833116 -0.351664
vn 0.778486 0.538534 -0.322399
vn 0.112045 0.701168 -0.704137
vn 0.531746 0.795561 -0.290395
vn 0.399453 -0.868577 -0.293277
vn 0.535029 -0.844833 -0.000000
vn -0.442222 0.879445 -0.176115
vn 0.257909 0.966169 0.000000
vn -0.330272 0.943886 0.000000
vn 0.399453 -0.868577 0.293277
vn -0.442222 0.879445 0.176115
vn 0.417396 0.908725 0.000000
vn -0.283679 -0.957878 0.044675
vn -0.348284 -0.833118 0.429665
vn -0.142209 0.316228 0.937964
vn 0.354005 0.935243 -0.000000
vn -0.377729 -0.681920 -0.626343
vn -0.188552 0.182442 -0.964968
vn 0.290723 -0.956704 -0.014031
vn 0.371556 -0.724759 -0.580234
vn 0.188552 0.182442 -0.964968
vn -0.354005 0.935244 0.000000
vn 0.377162 -0.745181 0.549958
vn 0.140097 0.320488 0.936835
vn -0.294992 -0.894271 0.336539
vn -0.263611 -0.963128 0.053800
vn -0.404262 0.914637 -0.003261
vn -0.498128 0.841959 0.207299
vn 0.797518 0.084388 0.597364
vn 0.999897 -0.014360 0.000132
vn -0.299032 -0.224547 0.927447
vn -0.328959 -0.709913 -0.622743
vn 0.474276 0.871173 -0.126967
vn 0.478189 0.878257 -0.000417
vn -0.300675 0.953719 -0.003819
vn -0.090847 0.976339 -0.196239
vn 0.267074 -0.963525 -0.017058
vn 0.263844 -0.964565 -0.000717
vn 0.329151 -0.706846 -0.626122
vn 0.404263 0.914637 -0.003261
vn 0.500273 0.840726 -0.207138
vn -0.800643 0.081087 -0.593630
vn -0.999897 -0.014360 0.000132
vn 0.299074 -0.224677 -0.927402
vn 0.313731 -0.826839 0.466808
vn 0.299506 -0.225641 0.927029
vn -0.474356 0.871113 0.127082
vn -0.478189 0.878257 -0.000417
vn 0.300675 0.953719 -0.003819
vn 0.091406 0.975717 0.199050
vn 0.474356 0.871112 0.127082
vn 0.756910 -0.135411 0.639337
vn -0.089807 0.976418 0.196321
vn 0.965563 -0.260169 0.000019
vn 0.760369 -0.137382 -0.634796
vn -0.474276 0.871173 -0.126967
vn 0.090848 0.976339 -0.196239
vn -0.760369 -0.137382 -0.634796
vn -0.965563 -0.260169 0.000019
vn -0.755105 -0.136954 0.641140
vn -0.500273 0.840726 -0.207138
vn 0.800643 0.081086 -0.593630
vn 0.498129 0.841959 0.207299
vn -0.797518 0.084389 0.597363
vn -0.716605 -0.697409 0.009886
vn -0.744311 -0.050908 -0.665890
vn 0.282063 0.267007 -0.921492
vn 0.891083 -0.453841 0.000001
vn -0.743718 -0.240410 0.623768
vn 0.282713 0.268480 0.920865
vn 0.701700 -0.712469 0.002296
vn 0.733596 -0.273109 0.622293
vn -0.289395 0.255685 0.922429
vn -0.871180 -0.490964 0.000002
vn 0.749131 -0.098141 -0.655111
vn -0.290081 0.251118 -0.923468
vn 0.806751 -0.590892 0.000000
vn 0.503315 -0.384220 -0.773983
vn -0.471652 0.848926 -0.238471
vn -0.256926 0.966431 -0.000000
vn 0.503315 -0.384220 0.773983
vn -0.471653 0.848926 0.238469
vn -0.805211 -0.592988 0.000001
vn -0.535188 -0.410144 0.738482
vn 0.448295 0.824584 0.345098
vn 0.271056 0.962564 0.000001
vn -0.535189 -0.410145 -0.738481
vn 0.448294 0.824583 -0.345101
s 1
g sword_handle_GRP top_handle_GEO
usemtl initialShadingGroup
f 270/386/271 284/406/272 290/400/273 287/410/274
f 284/406/272 271/388/275 285/408/276 290/400/273
f 290/400/273 285/408/276 273/391/277 286/409/278
f 287/410/274 290/400/273 286/409/278 272/390/279
f 272/390/279 286/409/278 291/401/280 278/414/281
f 286/409/278 273/391/277 288/411/282 291/401/280
f 291/401/280 288/411/282 275/394/283 289/413/284
f 278/414/281 291/401/280 289/413/284 274/392/285
f 274/392/285 289/413/284 292/402/286 281/419/287
f 289/413/284 275/394/283 279/416/288 292/402/286
f 292/402/286 279/416/288 277/398/289 280/418/290
f 281/419/287 292/402/286 280/418/290 276/396/291
f 276/396/291 280/418/290 293/403/292 283/423/293
f 280/418/290 277/398/289 282/421/294 293/403/292
f 293/403/292 282/421/294 271/389/275 284/407/272
f 283/423/293 293/403/292 284/407/272 270/387/271
f 345/473/295 344/474/296 346/475/297 347/476/298
f 344/474/296 348/477/299 349/478/300 346/475/297
f 321/449/301 320/450/302 322/451/303 323/452/304
f 324/453/305 321/449/301 323/452/304 325/454/306
f 350/479/307 351/480/308 352/481/309 353/482/310
f 351/480/308 354/483/311 355/484/312 352/481/309
f 327/455/313 326/456/314 328/457/315 329/458/316
f 330/459/317 327/455/313 329/458/316 331/460/318
f 294/404/319 279/417/288 296/426/320 297/425/321
f 279/417/288 275/395/283 298/427/322 296/426/320
f 275/395/283 288/412/282 299/428/323 298/427/322
f 285/408/276 294/404/319 297/425/321 300/429/324
f 288/412/282 273/391/277 301/430/325 299/428/323
f 273/391/277 285/408/276 300/429/324 301/430/325
f 297/425/321 296/426/320 302/432/326 303/431/327
f 296/426/320 298/427/322 304/433/328 302/432/326
f 409/537/329 408/538/330 410/539/331 411/540/332
f 300/429/324 297/425/321 303/431/327 306/435/333
f 408/538/330 412/541/334 413/542/335 410/539/331
f 301/430/325 300/429/324 306/435/333 307/436/336
f 295/405/337 287/410/274 308/438/338 309/437/339
f 287/410/274 272/390/279 310/439/340 308/438/338
f 414/543/341 415/544/342 416/545/343 417/546/344
f 281/420/287 295/405/337 309/437/339 312/441/345
f 415/544/342 418/547/346 419/548/347 416/545/343
f 274/393/285 281/420/287 312/441/345 313/442/348
f 303/431/327 302/432/326 314/444/349 315/443/350
f 302/432/326 304/433/328 316/445/351 314/444/349
f 304/433/328 305/434/352 317/446/353 316/445/351
f 306/435/333 303/431/327 315/443/350 318/447/354
f 305/434/352 307/436/336 319/448/355 317/446/353
f 307/436/336 306/435/333 318/447/354 319/448/355
f 315/443/350 314/444/349 320/450/302 321/449/301
f 314/444/349 316/445/351 322/451/303 320/450/302
f 316/445/351 317/446/353 323/452/304 322/451/303
f 318/447/354 315/443/350 321/449/301 324/453/305
f 317/446/353 319/448/355 325/454/306 323/452/304
f 319/448/355 318/447/354 324/453/305 325/454/306
f 309/437/339 308/438/338 326/456/314 327/455/313
f 308/438/338 310/439/340 328/457/315 326/456/314
f 310/439/340 311/440/356 329/458/316 328/457/315
f 312/441/345 309/437/339 327/455/313 330/459/317
f 311/440/356 313/442/348 331/460/318 329/458/316
f 313/442/348 312/441/345 330/459/317 331/460/318
f 271/388/275 282/422/294 332/462/357 333/461/358
f 294/404/319 285/408/276 335/464/359 334/463/360
f 285/408/276 271/388/275 333/461/358 335/464/359
f 282/422/294 277/399/289 336/465/361 332/462/357
f 277/399/289 279/417/288 337/466/362 336/465/361
f 279/417/288 294/404/319 334/463/360 337/466/362
f 276/397/291 283/424/293 339/468/363 338/467/364
f 295/405/337 281/420/287 341/470/365 340/469/366
f 281/420/287 276/397/291 338/467/364 341/470/365
f 283/424/293 270/386/271 342/471/367 339/468/363
f 270/386/271 287/410/274 343/472/368 342/471/367
f 287/410/274 295/405/337 340/469/366 343/472/368
f 369/498/369 333/461/358 332/462/357 368/497/370 344/474/296 345/473/295
f 383/512/371 384/513/372 385/514/373 386/515/374
f 335/464/359 333/461/358 369/498/369 370/499/375
f 332/462/357 336/465/361 373/502/376 368/497/370
f 336/465/361 337/466/362 349/478/300 348/477/299 373/502/376
f 360/489/377 356/485/378 371/500/379 372/501/380
f 338/467/364 339/468/363 374/503/381 375/504/382 377/506/383
f 389/516/384 390/517/385 391/518/386 392/519/387
f 341/470/365 338/467/364 377/506/383 350/479/307 353/482/310 380/509/388
f 376/505/389 375/504/382 374/503/381 339/468/363 342/471/367
f 376/505/389 395/524/390 355/484/312 354/483/311
f 366/495/391 362/491/392 378/507/393 382/511/394
f 334/463/360 335/464/359 357/486/395 356/485/378
f 335/464/359 370/499/375 347/476/298 358/487/396 381/510/397 357/486/395
f 347/476/298 346/475/297 359/488/398 358/487/396
f 337/466/362 334/463/360 356/485/378 360/489/377
f 346/475/297 349/478/300 361/490/399 359/488/398
f 349/478/300 337/466/362 360/489/377 372/501/380 361/490/399
f 340/469/366 341/470/365 363/492/400 362/491/392
f 379/508/401 380/509/388 353/482/310 364/493/402
f 353/482/310 352/481/309 365/494/403 364/493/402
f 343/472/368 340/469/366 362/491/392 366/495/391
f 352/481/309 355/484/312 367/496/404 365/494/403
f 355/484/312 395/524/390 343/472/368 366/495/391 382/511/394 367/496/404
f 370/499/375 369/498/369 345/473/295 347/476/298
f 387/520/405 383/512/371 386/515/374 388/521/406
f 368/497/370 373/502/376 348/477/299 344/474/296
f 375/504/382 376/505/389 354/483/311 351/480/308
f 377/506/383 375/504/382 351/480/308 350/479/307
f 362/491/392 363/492/400 379/508/401 378/507/393
f 341/470/365 380/509/388 379/508/401 363/492/400
f 356/485/378 357/486/395 381/510/397 371/500/379
f 393/522/407 389/516/384 392/519/387 394/523/408
f 371/500/379 381/510/397 384/513/372 383/512/371
f 381/510/397 358/487/396 385/514/373 384/513/372
f 358/487/396 359/488/398 386/515/374 385/514/373
f 372/507/380 371/508/379 383/517/371 387/516/405
f 359/508/398 361/493/399 388/518/406 386/517/374
f 361/493/399 372/494/380 387/519/405 388/518/406
f 378/501/393 379/500/401 390/512/385 389/520/384
f 379/488/401 364/490/402 391/521/386 390/515/385
f 364/490/402 365/501/403 392/520/387 391/521/386
f 382/511/394 378/507/393 389/516/384 393/522/407
f 365/494/403 367/496/404 394/523/408 392/519/387
f 367/496/404 382/511/394 393/522/407 394/523/408
f 342/471/367 343/472/368 395/524/390 376/505/389
f 298/427/322 299/428/323 396/526/409 397/525/410
f 305/434/352 304/433/328 399/528/411 398/527/412
f 304/433/328 298/427/322 397/525/410 399/528/411
f 299/428/323 301/430/325 400/529/413 396/526/409
f 301/430/325 307/436/336 401/530/414 400/529/413
f 307/436/336 305/434/352 398/527/412 401/530/414
f 272/390/279 278/415/281 403/532/415 402/531/416
f 311/440/356 310/439/340 405/534/417 404/533/418
f 310/439/340 272/390/279 402/531/416 405/534/417
f 278/415/281 274/393/285 406/535/419 403/532/415
f 274/393/285 313/442/348 407/536/420 406/535/419
f 313/442/348 311/440/356 404/533/418 407/536/420
f 397/525/410 396/526/409 408/538/330 409/537/329
f 420/549/421 421/550/422 422/551/423 423/552/424
f 399/528/411 397/525/410 409/537/329 411/540/332
f 396/526/409 400/529/413 412/541/334 408/538/330
f 400/529/413 401/530/414 413/542/335 412/541/334
f 424/553/425 420/549/421 423/552/424 425/554/426
f 402/531/416 403/532/415 415/544/342 414/543/341
f 427/555/427 426/556/428 428/557/429 429/558/430
f 405/534/417 402/531/416 414/543/341 417/546/344
f 403/532/415 406/535/419 418/547/346 415/544/342
f 406/535/419 407/536/420 419/548/347 418/547/346
f 430/559/431 427/555/427 429/558/430 431/560/432
f 398/527/412 399/528/411 421/550/422 420/549/421
f 399/528/411 411/540/332 422/551/423 421/550/422
f 411/540/332 410/539/331 423/552/424 422/551/423
f 401/530/414 398/527/412 420/549/421 424/553/425
f 410/539/331 413/542/335 425/554/426 423/552/424
f 413/542/335 401/530/414 424/553/425 425/554/426
f 404/533/418 405/534/417 426/556/428 427/555/427
f 405/534/417 417/546/344 428/557/429 426/556/428
f 417/546/344 416/545/343 429/558/430 428/557/429
f 407/536/420 404/533/418 427/555/427 430/559/431
f 416/545/343 419/548/347 431/560/432 429/558/430
f 419/548/347 407/536/420 430/559/431 431/560/432
g default
v 0.977788 11.138294 -0.538953
v 0.963850 10.642627 -0.538953
v 0.963850 10.642627 -0.538953
v 0.978050 11.138286 -0.462076
v 1.644500 11.541349 -0.462076
v 0.964111 10.642619 -0.462076
v 1.617300 10.320100 -0.462076
v 0.964111 10.642619 -0.537711
v 1.617300 10.320100 -0.537711
v 0.978050 11.138286 -0.537711
v 1.647036 11.541521 -0.537711
v 1.644841 11.541581 -0.462076
v 0.978050 11.138286 -0.462076
v 1.617300 10.320100 -0.462076
v 0.961916 10.642684 -0.462076
v 1.494517 11.105720 -0.353112
v 1.026022 11.090365 -0.353112
v 1.481300 10.635702 -0.353112
v 1.014702 10.687773 -0.353112
v 1.024523 11.090407 -0.647806
v 1.495194 11.105701 -0.646899
v 1.479784 10.635747 -0.646899
v 1.013202 10.687813 -0.647806
v 1.645305 11.541566 -0.537829
v 1.645305 11.541566 -0.537829
v 0.976315 11.138340 -0.538953
v 1.615568 10.320149 -0.537829
v 1.615568 10.320149 -0.537829
v -0.977788 11.138295 -0.538953
v -0.963850 10.642627 -0.538953
v -0.963850 10.642627 -0.538953
v -0.978049 11.138288 -0.462076
v -1.644499 11.541347 -0.462076
v -0.964111 10.642619 -0.462076
v -1.617300 10.320100 -0.462076
v -0.964111 10.642619 -0.537711
v -1.617300 10.320100 -0.537711
v -0.978049 11.138288 -0.537711
v -1.647036 11.541520 -0.537711
v -1.644842 11.541580 -0.462076
v -0.978049 11.138288 -0.462076
v -1.617300 10.320100 -0.462076
v -0.961916 10.642682 -0.462076
v -1.494517 11.105720 -0.353112
v -1.026022 11.090365 -0.353112
v -1.481300 10.635703 -0.353112
v -1.014701 10.687772 -0.353112
v -1.024523 11.090409 -0.647806
v -1.495194 11.105702 -0.646899
v -1.479783 10.635747 -0.646899
v -1.013202 10.687813 -0.647806
v -1.645305 11.541568 -0.537829
v -1.645305 11.541568 -0.537829
v -0.976315 11.138338 -0.538953
v -1.615568 10.320147 -0.537829
v -1.615568 10.320147 -0.537829
vt 0.375000 0.000000
vt 0.625000 0.000000
vt 0.625000 0.250000
vt 0.375000 0.250000
vt 0.375000 0.250000
vt 0.625000 0.250000
vt 0.625000 0.500000
vt 0.375000 0.500000
vt 0.625000 0.750000
vt 0.375000 0.750000
vt 0.625000 1.000000
vt 0.375000 1.000000
vt 0.625000 0.000000
vt 0.875000 0.000000
vt 0.875000 0.250000
vt 0.125000 0.000000
vt 0.375000 0.000000
vt 0.125000 0.250000
vt 0.625000 0.000000
vt 0.375000 0.000000
vt 0.625000 0.250000
vt 0.375000 0.250000
vt 0.375000 0.000000
vt 0.375000 0.250000
vt 0.625000 0.250000
vt 0.625000 0.000000
vt 0.375000 0.000000
vt 0.375000 0.000000
vt 0.625000 0.000000
vt 0.625000 0.000000
vt 0.625000 0.250000
vt 0.625000 0.250000
vt 0.375000 0.250000
vt 0.375000 0.250000
vt 0.375000 0.000000
vt 0.375000 0.250000
vt 0.625000 0.250000
vt 0.625000 0.000000
vt 0.375000 0.250000
vt 0.375000 0.500000
vt 0.625000 0.500000
vt 0.625000 0.250000
vt 0.375000 0.750000
vt 0.625000 0.750000
vt 0.375000 1.000000
vt 0.625000 1.000000
vt 0.625000 0.000000
vt 0.875000 0.250000
vt 0.875000 0.000000
vt 0.125000 0.000000
vt 0.125000 0.250000
vt 0.375000 0.000000
vt 0.375000 0.000000
vt 0.625000 0.000000
vt 0.625000 0.250000
vt 0.375000 0.250000
vt 0.375000 0.000000
vt 0.625000 0.000000
vt 0.625000 0.250000
vt 0.375000 0.250000
vt 0.375000 0.000000
vt 0.625000 0.000000
vt 0.625000 0.000000
vt 0.375000 0.000000
vt 0.625000 0.250000
vt 0.625000 0.250000
vt 0.375000 0.250000
vt 0.375000 0.250000
vn -0.195819 0.172396 0.965368
vn -0.206239 -0.176851 0.962387
vn 0.200377 -0.154878 0.967400
vn 0.192669 0.128962 0.972753
vn -0.787926 -0.615608 -0.014137
vn -0.083578 -0.065300 -0.994359
vn 0.168493 -0.127784 -0.977385
vn 0.796647 -0.604173 0.018122
vn -0.085573 0.064898 -0.994216
vn 0.175469 0.136615 -0.974960
vn -0.796767 0.604263 -0.005320
vn 0.786919 0.616976 0.009949
vn -0.398428 0.359673 0.843736
vn 0.242041 0.239772 0.940173
vn 0.293696 -0.280370 0.913858
vn -0.466155 -0.407920 0.785048
vn -0.193947 0.171376 -0.965927
vn 0.193421 0.129275 -0.972562
vn 0.201071 -0.155759 -0.967114
vn -0.204968 -0.175839 -0.962844
vn -0.000048 -0.001531 0.999999
vn -0.000000 -0.000000 0.000000
vn 0.244469 0.238234 -0.939936
vn -0.396963 0.361356 -0.843707
vn 0.000000 0.000000 0.000000
vn 0.297859 -0.279844 -0.912671
vn 0.000000 0.000000 0.000000
vn -0.464683 -0.410476 -0.784589
vn 0.196596 0.173085 0.965086
vn -0.192339 0.128315 0.972903
vn -0.200892 -0.155586 0.967179
vn 0.205361 -0.176103 0.962712
vn 0.787927 -0.615608 -0.014103
vn -0.796647 -0.604173 0.018122
vn -0.169789 -0.128768 -0.977031
vn 0.083226 -0.065024 -0.994407
vn -0.174113 0.135554 -0.975351
vn 0.085877 0.065129 -0.994175
vn -0.786908 0.616990 0.009963
vn 0.796766 0.604264 -0.005313
vn -0.241687 0.239978 0.940212
vn 0.398382 0.359691 0.843750
vn -0.293956 -0.280188 0.913830
vn 0.466211 -0.407898 0.785027
vn 0.194729 0.172065 -0.965647
vn 0.204083 -0.175089 -0.963169
vn -0.201585 -0.156467 -0.966893
vn -0.193095 0.128627 -0.972712
vn 0.000046 -0.001531 0.999999
vn 0.396908 0.361373 -0.843726
vn -0.244116 0.238440 -0.939976
vn 0.000000 -0.000000 0.000000
vn -0.298114 -0.279664 -0.912642
vn 0.000000 0.000000 0.000000
vn 0.000000 0.000000 0.000000
vn 0.464732 -0.410447 -0.784575
s 1
g pasted__pasted__pCube2 rocks_GEO spikes_GRP
usemtl initialShadingGroup
f 448/561/433 450/564/434 449/563/435 447/562/436
f 437/565/437 439/568/438 440/567/439 438/566/440
f 439/568/438 441/570/441 442/569/442 440/567/439
f 441/570/441 435/572/443 436/571/444 442/569/442
f 436/573/444 438/566/440 440/575/439 442/574/442
f 441/576/441 439/578/438 437/565/437 435/577/443
f 435/577/443 444/580/445 443/579/446 436/573/444
f 436/573/444 443/579/446 445/581/447 438/566/440
f 438/566/440 445/581/447 446/582/448 437/565/437
f 437/565/437 446/582/448 444/580/445 435/577/443
f 444/580/445 448/561/433 447/562/436 443/579/446
f 443/579/446 447/562/436 449/563/435 445/581/447
f 445/581/447 449/563/435 450/564/434 446/582/448
f 446/582/448 450/564/434 448/561/433 444/580/445
s 3
f 451/583/449 452/586/450 453/585/451 454/584/452
f 432/587/453 455/590/454 456/589/455 457/588/456
f 455/590/454 458/592/457 459/591/458 456/589/455
f 433/593/459 432/587/453 457/588/456 434/594/460
f 457/588/456 456/589/455 452/586/450 451/583/449
f 456/589/455 459/591/458 453/585/451 452/586/450
f 459/591/458 434/594/460 454/584/452 453/585/451
f 434/594/460 457/588/456 451/583/449 454/584/452
s 5
f 476/595/461 475/598/462 477/597/463 478/596/464
f 465/599/465 466/602/466 468/601/467 467/600/468
f 467/600/468 468/601/467 470/604/469 469/603/470
f 469/603/470 470/604/469 464/606/471 463/605/472
f 464/607/471 470/609/469 468/608/467 466/602/466
f 469/610/470 463/612/472 465/599/465 467/611/468
f 463/612/472 464/607/471 471/614/473 472/613/474
f 464/607/471 466/602/466 473/615/475 471/614/473
f 466/602/466 465/599/465 474/616/476 473/615/475
f 465/599/465 463/612/472 472/613/474 474/616/476
f 472/613/474 471/614/473 475/598/462 476/595/461
f 471/614/473 473/615/475 477/597/463 475/598/462
f 473/615/475 474/616/476 478/596/464 477/597/463
f 474/616/476 472/613/474 476/595/461 478/596/464
s 7
f 479/617/477 482/620/478 481/619/479 480/618/480
f 460/621/481 485/624/482 484/623/483 483/622/484
f 483/622/484 484/623/483 487/626/485 486/625/486
f 461/627/487 462/628/488 485/624/482 460/621/481
f 485/624/482 479/617/477 480/618/480 484/623/483
f 484/623/483 480/618/480 481/619/479 487/626/485
f 487/626/485 481/619/479 482/620/478 462/628/488
f 462/628/488 482/620/478 479/617/477 485/624/482
g default
v 0.912080 7.372749 -0.536689
v 0.905214 6.876936 -0.538212
v 0.905214 6.876936 -0.538212
v 0.912784 7.372505 -0.459815
v 1.575973 7.605078 -0.462887
v 0.905916 6.876690 -0.461337
v 1.562743 6.625618 -0.465896
v 0.905483 6.876928 -0.536971
v 1.562309 6.625856 -0.541530
v 0.912349 7.372741 -0.535449
v 1.578072 7.605525 -0.538534
v 1.576311 7.605315 -0.462888
v 0.912784 7.372505 -0.459815
v 1.562743 6.625618 -0.465896
v 0.903721 6.876723 -0.461324
v 1.430279 7.346975 -0.353898
v 0.962059 7.324931 -0.351282
v 1.423768 6.876815 -0.355341
v 0.956482 6.922220 -0.352518
v 0.958868 7.325879 -0.645961
v 1.429271 7.347890 -0.647682
v 1.420565 6.877767 -0.649113
v 0.953291 6.923166 -0.647197
v 1.576340 7.605545 -0.538642
v 1.576340 7.605545 -0.538642
v 0.910608 7.372775 -0.536681
v 1.560576 6.625880 -0.541637
v 1.560576 6.625880 -0.541637
v -0.912081 7.372749 -0.536689
v -0.905214 6.876936 -0.538211
v -0.905214 6.876936 -0.538211
v -0.912784 7.372504 -0.459815
v -1.575973 7.605079 -0.462887
v -0.905916 6.876690 -0.461337
v -1.562743 6.625618 -0.465896
v -0.905483 6.876928 -0.536971
v -1.562309 6.625856 -0.541530
v -0.912349 7.372741 -0.535449
v -1.578072 7.605525 -0.538534
v -1.576311 7.605315 -0.462888
v -0.912784 7.372504 -0.459815
v -1.562743 6.625618 -0.465896
v -0.903721 6.876724 -0.461324
v -1.430279 7.346975 -0.353898
v -0.962059 7.324930 -0.351282
v -1.423768 6.876816 -0.355341
v -0.956482 6.922221 -0.352518
v -0.958868 7.325880 -0.645961
v -1.429271 7.347891 -0.647682
v -1.420565 6.877766 -0.649113
v -0.953291 6.923166 -0.647197
v -1.576340 7.605546 -0.538642
v -1.576340 7.605546 -0.538642
v -0.910607 7.372775 -0.536681
v -1.560576 6.625879 -0.541637
v -1.560576 6.625879 -0.541637
vt 0.375000 0.000000
vt 0.625000 0.000000
vt 0.625000 0.250000
vt 0.375000 0.250000
vt 0.375000 0.250000
vt 0.625000 0.250000
vt 0.625000 0.500000
vt 0.375000 0.500000
vt 0.625000 0.750000
vt 0.375000 0.750000
vt 0.625000 1.000000
vt 0.375000 1.000000
vt 0.625000 0.000000
vt 0.875000 0.000000
vt 0.875000 0.250000
vt 0.125000 0.000000
vt 0.375000 0.000000
vt 0.125000 0.250000
vt 0.625000 0.000000
vt 0.375000 0.000000
vt 0.625000 0.250000
vt 0.375000 0.250000
vt 0.375000 0.000000
vt 0.375000 0.250000
vt 0.625000 0.250000
vt 0.625000 0.000000
vt 0.375000 0.000000
vt 0.375000 0.000000
vt 0.625000 0.000000
vt 0.625000 0.000000
vt 0.625000 0.250000
vt 0.625000 0.250000
vt 0.375000 0.250000
vt 0.375000 0.250000
vt 0.375000 0.000000
vt 0.375000 0.250000
vt 0.625000 0.250000
vt 0.625000 0.000000
vt 0.375000 0.250000
vt 0.375000 0.500000
vt 0.625000 0.500000
vt 0.625000 0.250000
vt 0.375000 0.750000
vt 0.625000 0.750000
vt 0.375000 1.000000
vt 0.625000 1.000000
vt 0.625000 0.000000
vt 0.875000 0.250000
vt 0.875000 0.000000
vt 0.125000 0.000000
vt 0.125000 0.250000
vt 0.375000 0.000000
vt 0.375000 0.000000
vt 0.625000 0.000000
vt 0.625000 0.250000
vt 0.375000 0.250000
vt 0.375000 0.000000
vt 0.625000 0.000000
vt 0.625000 0.250000
vt 0.375000 0.250000
vt 0.375000 0.000000
vt 0.625000 0.000000
vt 0.625000 0.000000
vt 0.375000 0.000000
vt 0.625000 0.250000
vt 0.625000 0.250000
vt 0.375000 0.250000
vt 0.375000 0.250000
vn -0.191030 0.191667 0.962690
vn -0.197925 -0.191728 0.961284
vn 0.190715 -0.171514 0.966546
vn 0.195437 0.156536 0.968143
vn -0.754356 -0.656369 -0.011203
vn -0.097970 -0.077178 -0.992192
vn 0.141201 -0.132216 -0.981112
vn 0.735345 -0.677616 0.010188
vn -0.095713 0.086083 -0.991680
vn 0.145259 0.133947 -0.980285
vn -0.735364 0.677664 0.003344
vn 0.753273 0.657669 0.007187
vn -0.454140 0.460613 0.762622
vn 0.314759 0.302082 0.899818
vn 0.308762 -0.319678 0.895808
vn -0.480003 -0.459553 0.747268
vn -0.200315 0.196540 -0.959815
vn 0.185199 0.163232 -0.969049
vn 0.180277 -0.166271 -0.969461
vn -0.207663 -0.184487 -0.960646
vn 0.005694 -0.005276 0.999970
vn 0.000000 -0.000000 0.000000
vn 0.306646 0.305589 -0.901434
vn -0.461917 0.468579 -0.753038
vn 0.000000 0.000000 0.000000
vn 0.302356 -0.313172 -0.900280
vn 0.000000 -0.000000 0.000000
vn -0.486897 -0.457758 -0.743901
vn 0.192237 0.185209 0.963713
vn -0.191514 0.161569 0.968100
vn -0.187002 -0.177357 0.966217
vn 0.197738 -0.184412 0.962752
vn 0.764890 -0.644058 -0.011493
vn -0.713652 -0.700428 0.010022
vn -0.144254 -0.126325 -0.981444
vn 0.099280 -0.080865 -0.991768
vn -0.146726 0.126925 -0.981000
vn 0.097292 0.090275 -0.991153
vn -0.732475 0.680756 0.007129
vn 0.746704 0.665147 0.003423
vn -0.326568 0.291790 0.899006
vn 0.443274 0.466824 0.765234
vn -0.321299 -0.309131 0.895100
vn 0.469797 -0.466018 0.749745
vn 0.199987 0.203734 -0.958383
vn 0.206997 -0.190877 -0.959541
vn -0.184610 -0.161096 -0.969519
vn -0.188521 0.157368 -0.969379
vn -0.005730 -0.005316 0.999969
vn 0.473444 0.461978 -0.749952
vn -0.295050 0.315611 -0.901851
vn -0.000000 -0.000000 0.000000
vn -0.290333 -0.323153 -0.900710
vn 0.000000 0.000000 0.000000
vn -0.000000 -0.000000 0.000000
vn 0.497718 -0.450838 -0.740960
s 1
g rocks_GEO spikes_GRP pasted__pasted__pCube3
usemtl initialShadingGroup
f 504/629/489 506/632/490 505/631/491 503/630/492
f 493/633/493 495/636/494 496/635/495 494/634/496
f 495/636/494 497/638/497 498/637/498 496/635/495
f 497/638/497 491/640/499 492/639/500 498/637/498
f 492/641/500 494/634/496 496/643/495 498/642/498
f 497/644/497 495/646/494 493/633/493 491/645/499
f 491/645/499 500/648/501 499/647/502 492/641/500
f 492/641/500 499/647/502 501/649/503 494/634/496
f 494/634/496 501/649/503 502/650/504 493/633/493
f 493/633/493 502/650/504 500/648/501 491/645/499
f 500/648/501 504/629/489 503/630/492 499/647/502
f 499/647/502 503/630/492 505/631/491 501/649/503
f 501/649/503 505/631/491 506/632/490 502/650/504
f 502/650/504 506/632/490 504/629/489 500/648/501
s 3
f 507/651/505 508/654/506 509/653/507 510/652/508
f 488/655/509 511/658/510 512/657/511 513/656/512
f 511/658/510 514/660/513 515/659/514 512/657/511
f 489/661/515 488/655/509 513/656/512 490/662/516
f 513/656/512 512/657/511 508/654/506 507/651/505
f 512/657/511 515/659/514 509/653/507 508/654/506
f 515/659/514 490/662/516 510/652/508 509/653/507
f 490/662/516 513/656/512 507/651/505 510/652/508
s 5
f 532/663/517 531/666/518 533/665/519 534/664/520
f 521/667/521 522/670/522 524/669/523 523/668/524
f 523/668/524 524/669/523 526/672/525 525/671/526
f 525/671/526 526/672/525 520/674/527 519/673/528
f 520/675/527 526/677/525 524/676/523 522/670/522
f 525/678/526 519/680/528 521/667/521 523/679/524
f 519/680/528 520/675/527 527/682/529 528/681/530
f 520/675/527 522/670/522 529/683/531 527/682/529
f 522/670/522 521/667/521 530/684/532 529/683/531
f 521/667/521 519/680/528 528/681/530 530/684/532
f 528/681/530 527/682/529 531/666/518 532/663/517
f 527/682/529 529/683/531 533/665/519 531/666/518
f 529/683/531 530/684/532 534/664/520 533/665/519
f 530/684/532 528/681/530 532/663/517 534/664/520
s 7
f 535/685/533 538/688/534 537/687/535 536/686/536
f 516/689/537 541/692/538 540/691/539 539/690/540
f 539/690/540 540/691/539 543/694/541 542/693/542
f 517/695/543 518/696/544 541/692/538 516/689/537
f 541/692/538 535/685/533 536/686/536 540/691/539
f 540/691/539 536/686/536 537/687/535 543/694/541
f 543/694/541 537/687/535 538/688/534 518/696/544
f 518/696/544 538/688/534 535/685/533 541/692/538
g default
v 0.939431 9.248001 -0.537828
v 0.932252 8.752190 -0.538190
v 0.932252 8.752190 -0.538190
v 0.939981 9.247934 -0.460952
v 1.603323 9.480082 -0.463259
v 0.932802 8.752123 -0.461314
v 1.589476 8.500628 -0.463976
v 0.932518 8.752183 -0.536949
v 1.589192 8.500684 -0.539611
v 0.939698 9.247996 -0.536587
v 1.605573 9.480351 -0.538903
v 1.603662 9.480322 -0.463260
v 0.939981 9.247934 -0.460952
v 1.589476 8.500628 -0.463976
v 0.930607 8.752161 -0.461306
v 1.457250 9.222329 -0.353949
v 0.989012 9.200586 -0.352209
v 1.450442 8.752174 -0.354292
v 0.983180 8.797878 -0.352503
v 0.986405 9.200842 -0.646895
v 1.456824 9.222553 -0.647736
v 1.447823 8.752432 -0.648071
v 0.980574 8.798128 -0.647189
v 1.603841 9.480370 -0.539014
v 1.603841 9.480370 -0.539014
v 0.937958 9.248027 -0.537823
v 1.587460 8.500709 -0.539721
v 1.587460 8.500709 -0.539721
v -0.939431 9.248000 -0.537828
v -0.932252 8.752190 -0.538190
v -0.932252 8.752190 -0.538190
v -0.939981 9.247935 -0.460952
v -1.603323 9.480080 -0.463259
v -0.932802 8.752124 -0.461314
v -1.589476 8.500626 -0.463976
v -0.932518 8.752182 -0.536949
v -1.589192 8.500684 -0.539611
v -0.939698 9.247995 -0.536587
v -1.605573 9.480350 -0.538904
v -1.603662 9.480321 -0.463260
v -0.939981 9.247935 -0.460952
v -1.589476 8.500626 -0.463976
v -0.930607 8.752160 -0.461306
v -1.457250 9.222331 -0.353949
v -0.989011 9.200586 -0.352209
v -1.450442 8.752174 -0.354292
v -0.983181 8.797879 -0.352503
v -0.986405 9.200841 -0.646895
v -1.456825 9.222552 -0.647736
v -1.447823 8.752432 -0.648071
v -0.980574 8.798126 -0.647189
v -1.603841 9.480372 -0.539014
v -1.603841 9.480372 -0.539014
v -0.937958 9.248027 -0.537823
v -1.587460 8.500708 -0.539721
v -1.587460 8.500708 -0.539721
vt 0.375000 0.000000
vt 0.625000 0.000000
vt 0.625000 0.250000
vt 0.375000 0.250000
vt 0.375000 0.250000
vt 0.625000 0.250000
vt 0.625000 0.500000
vt 0.375000 0.500000
vt 0.625000 0.750000
vt 0.375000 0.750000
vt 0.625000 1.000000
vt 0.375000 1.000000
vt 0.625000 0.000000
vt 0.875000 0.000000
vt 0.875000 0.250000
vt 0.125000 0.000000
vt 0.375000 0.000000
vt 0.125000 0.250000
vt 0.625000 0.000000
vt 0.375000 0.000000
vt 0.625000 0.250000
vt 0.375000 0.250000
vt 0.375000 0.000000
vt 0.375000 0.250000
vt 0.625000 0.250000
vt 0.625000 0.000000
vt 0.375000 0.000000
vt 0.375000 0.000000
vt 0.625000 0.000000
vt 0.625000 0.000000
vt 0.625000 0.250000
vt 0.625000 0.250000
vt 0.375000 0.250000
vt 0.375000 0.250000
vt 0.375000 0.000000
vt 0.375000 0.250000
vt 0.625000 0.250000
vt 0.625000 0.000000
vt 0.375000 0.250000
vt 0.375000 0.500000
vt 0.625000 0.500000
vt 0.625000 0.250000
vt 0.375000 0.750000
vt 0.625000 0.750000
vt 0.375000 1.000000
vt 0.625000 1.000000
vt 0.625000 0.000000
vt 0.875000 0.250000
vt 0.875000 0.000000
vt 0.125000 0.000000
vt 0.125000 0.250000
vt 0.375000 0.000000
vt 0.375000 0.000000
vt 0.625000 0.000000
vt 0.625000 0.250000
vt 0.375000 0.250000
vt 0.375000 0.000000
vt 0.625000 0.000000
vt 0.625000 0.250000
vt 0.375000 0.250000
vt 0.375000 0.000000
vt 0.625000 0.000000
vt 0.625000 0.000000
vt 0.375000 0.000000
vt 0.625000 0.250000
vt 0.625000 0.250000
vt 0.375000 0.250000
vt 0.375000 0.250000
vn -0.192815 0.194067 0.961853
vn -0.199952 -0.189327 0.961340
vn 0.188691 -0.169344 0.967325
vn 0.193617 0.158705 0.968156
vn -0.754751 -0.655917 -0.011111
vn -0.096052 -0.079466 -0.992199
vn 0.143060 -0.134628 -0.980515
vn 0.734893 -0.678054 0.013261
vn -0.093692 0.083794 -0.992069
vn 0.147286 0.131533 -0.980309
vn -0.734940 0.678132 0.000302
vn 0.753676 0.657207 0.007121
vn -0.455354 0.462701 0.760632
vn 0.313163 0.304012 0.899725
vn 0.306785 -0.317752 0.897171
vn -0.481777 -0.457481 0.747397
vn -0.198287 0.194392 -0.960674
vn 0.187223 0.160819 -0.969064
vn 0.182092 -0.168680 -0.968705
vn -0.205876 -0.186631 -0.960616
vn 0.003619 -0.002791 0.999990
vn 0.000000 -0.000000 0.000000
vn 0.308628 0.303259 -0.901545
vn -0.460128 0.467088 -0.755057
vn 0.000000 0.000000 0.000000
vn 0.303941 -0.315495 -0.898934
vn 0.000000 -0.000000 0.000000
vn -0.485715 -0.459212 -0.743777
vn 0.193780 0.190030 0.962464
vn -0.190927 0.161871 0.968166
vn -0.186368 -0.173336 0.967068
vn 0.199643 -0.184387 0.962364
vn 0.761587 -0.647963 -0.011342
vn -0.720692 -0.693131 0.013156
vn -0.145323 -0.131008 -0.980672
vn 0.096814 -0.081791 -0.991936
vn -0.148042 0.126756 -0.980824
vn 0.094800 0.086611 -0.991721
vn -0.740086 0.672476 0.007014
vn 0.742323 0.670042 0.000358
vn -0.320806 0.297360 0.899256
vn 0.448155 0.466832 0.762381
vn -0.314988 -0.310876 0.896738
vn 0.475042 -0.461763 0.749073
vn 0.198237 0.199295 -0.959679
vn 0.205264 -0.190665 -0.959955
vn -0.185049 -0.165458 -0.968700
vn -0.189268 0.156846 -0.969318
vn -0.003603 -0.002766 0.999990
vn 0.467596 0.462833 -0.753087
vn -0.300957 0.309910 -0.901876
vn -0.000000 -0.000000 0.000000
vn -0.296052 -0.322052 -0.899242
vn 0.000000 0.000000 0.000000
vn -0.000000 -0.000000 0.000000
vn 0.492724 -0.454735 -0.741916
s 1
g rocks_GEO spikes_GRP pasted__pasted__pCube4
usemtl initialShadingGroup
f 560/697/545 562/700/546 561/699/547 559/698/548
f 549/701/549 551/704/550 552/703/551 550/702/552
f 551/704/550 553/706/553 554/705/554 552/703/551
f 553/706/553 547/708/555 548/707/556 554/705/554
f 548/709/556 550/702/552 552/711/551 554/710/554
f 553/712/553 551/714/550 549/701/549 547/713/555
f 547/713/555 556/716/557 555/715/558 548/709/556
f 548/709/556 555/715/558 557/717/559 550/702/552
f 550/702/552 557/717/559 558/718/560 549/701/549
f 549/701/549 558/718/560 556/716/557 547/713/555
f 556/716/557 560/697/545 559/698/548 555/715/558
f 555/715/558 559/698/548 561/699/547 557/717/559
f 557/717/559 561/699/547 562/700/546 558/718/560
f 558/718/560 562/700/546 560/697/545 556/716/557
s 3
f 563/719/561 564/722/562 565/721/563 566/720/564
f 544/723/565 567/726/566 568/725/567 569/724/568
f 567/726/566 570/728/569 571/727/570 568/725/567
f 545/729/571 544/723/565 569/724/568 546/730/572
f 569/724/568 568/725/567 564/722/562 563/719/561
f 568/725/567 571/727/570 565/721/563 564/722/562
f 571/727/570 546/730/572 566/720/564 565/721/563
f 546/730/572 569/724/568 563/719/561 566/720/564
s 5
f 588/731/573 587/734/574 589/733/575 590/732/576
f 577/735/577 578/738/578 580/737/579 579/736/580
f 579/736/580 580/737/579 582/740/581 581/739/582
f 581/739/582 582/740/581 576/742/583 575/741/584
f 576/743/583 582/745/581 580/744/579 578/738/578
f 581/746/582 575/748/584 577/735/577 579/747/580
f 575/748/584 576/743/583 583/750/585 584/749/586
f 576/743/583 578/738/578 585/751/587 583/750/585
f 578/738/578 577/735/577 586/752/588 585/751/587
f 577/735/577 575/748/584 584/749/586 586/752/588
f 584/749/586 583/750/585 587/734/574 588/731/573
f 583/750/585 585/751/587 589/733/575 587/734/574
f 585/751/587 586/752/588 590/732/576 589/733/575
f 586/752/588 584/749/586 588/731/573 590/732/576
s 7
f 591/753/589 594/756/590 593/755/591 592/754/592
f 572/757/593 597/760/594 596/759/595 595/758/596
f 595/758/596 596/759/595 599/762/597 598/761/598
f 573/763/599 574/764/600 597/760/594 572/757/593
f 597/760/594 591/753/589 592/754/592 596/759/595
f 596/759/595 592/754/592 593/755/591 599/762/597
f 599/762/597 593/755/591 594/756/590 574/764/600
f 574/764/600 594/756/590 591/753/589 597/760/594
g default
v 0.877592 5.120283 -0.538953
v 0.885063 5.616091 -0.538953
v 0.885063 5.616091 -0.538953
v 0.877854 5.120281 -0.462076
v 1.526284 4.688829 -0.462076
v 0.885324 5.616089 -0.462076
v 1.551826 5.910110 -0.462076
v 0.885324 5.616089 -0.537711
v 1.551826 5.910110 -0.537711
v 0.877854 5.120281 -0.537711
v 1.528810 4.688544 -0.537711
v 1.526616 4.688581 -0.462076
v 0.877854 5.120281 -0.462076
v 1.551826 5.910110 -0.462076
v 0.883129 5.616119 -0.462076
v 1.395245 5.130524 -0.353112
v 0.927850 5.166088 -0.353112
v 1.402330 5.600674 -0.353112
v 0.933918 5.568795 -0.353112
v 0.926350 5.166108 -0.647806
v 1.395923 5.130513 -0.646899
v 1.400813 5.600693 -0.646899
v 0.932418 5.568817 -0.647806
v 1.527079 4.688573 -0.537829
v 1.527079 4.688573 -0.537829
v 0.876118 5.120304 -0.538953
v 1.550094 5.910138 -0.537829
v 1.550094 5.910138 -0.537829
v -0.877592 5.120283 -0.538953
v -0.885063 5.616092 -0.538953
v -0.885063 5.616092 -0.538953
v -0.877854 5.120280 -0.462076
v -1.526284 4.688828 -0.462076
v -0.885324 5.616088 -0.462076
v -1.551826 5.910110 -0.462076
v -0.885324 5.616088 -0.537711
v -1.551826 5.910110 -0.537711
v -0.877854 5.120280 -0.537711
v -1.528810 4.688544 -0.537711
v -1.526616 4.688581 -0.462076
v -0.877854 5.120280 -0.462076
v -1.551826 5.910110 -0.462076
v -0.883129 5.616119 -0.462076
v -1.395245 5.130523 -0.353112
v -0.927850 5.166087 -0.353112
v -1.402330 5.600673 -0.353112
v -0.933919 5.568794 -0.353112
v -0.926350 5.166107 -0.647806
v -1.395923 5.130512 -0.646899
v -1.400813 5.600693 -0.646899
v -0.932418 5.568817 -0.647806
v -1.527079 4.688572 -0.537829
v -1.527079 4.688572 -0.537829
v -0.876119 5.120304 -0.538953
v -1.550094 5.910139 -0.537829
v -1.550094 5.910139 -0.537829
vt 0.375000 0.000000
vt 0.375000 0.250000
vt 0.625000 0.250000
vt 0.625000 0.000000
vt 0.375000 0.250000
vt 0.375000 0.500000
vt 0.625000 0.500000
vt 0.625000 0.250000
vt 0.375000 0.750000
vt 0.625000 0.750000
vt 0.375000 1.000000
vt 0.625000 1.000000
vt 0.625000 0.000000
vt 0.875000 0.250000
vt 0.875000 0.000000
vt 0.125000 0.000000
vt 0.125000 0.250000
vt 0.375000 0.000000
vt 0.375000 0.000000
vt 0.625000 0.000000
vt 0.625000 0.250000
vt 0.375000 0.250000
vt 0.375000 0.000000
vt 0.625000 0.000000
vt 0.625000 0.250000
vt 0.375000 0.250000
vt 0.375000 0.000000
vt 0.625000 0.000000
vt 0.625000 0.000000
vt 0.375000 0.000000
vt 0.625000 0.250000
vt 0.625000 0.250000
vt 0.375000 0.250000
vt 0.375000 0.250000
vt 0.375000 0.000000
vt 0.625000 0.000000
vt 0.625000 0.250000
vt 0.375000 0.250000
vt 0.375000 0.250000
vt 0.625000 0.250000
vt 0.625000 0.500000
vt 0.375000 0.500000
vt 0.625000 0.750000
vt 0.375000 0.750000
vt 0.625000 1.000000
vt 0.375000 1.000000
vt 0.625000 0.000000
vt 0.875000 0.000000
vt 0.875000 0.250000
vt 0.125000 0.000000
vt 0.375000 0.000000
vt 0.125000 0.250000
vt 0.625000 0.000000
vt 0.375000 0.000000
vt 0.625000 0.250000
vt 0.375000 0.250000
vt 0.375000 0.000000
vt 0.375000 0.250000
vt 0.625000 0.250000
vt 0.625000 0.000000
vt 0.375000 0.000000
vt 0.375000 0.000000
vt 0.625000 0.000000
vt 0.625000 0.000000
vt 0.625000 0.250000
vt 0.625000 0.250000
vt 0.375000 0.250000
vt 0.375000 0.250000
vn -0.203885 -0.164437 0.965086
vn 0.186621 -0.136498 0.972903
vn 0.207421 0.146770 0.967179
vn -0.197568 0.184804 0.962712
vn -0.760618 0.649046 -0.014092
vn 0.821985 0.569221 0.018123
vn 0.175189 0.121318 -0.977032
vn -0.080341 0.068556 -0.994407
vn 0.168099 -0.142944 -0.975351
vn -0.088608 -0.061361 -0.994175
vn 0.759542 -0.650382 0.009973
vn -0.822108 -0.569307 -0.005305
vn 0.231103 -0.250187 0.940212
vn -0.413537 -0.342159 0.843750
vn 0.305778 0.267239 0.913829
vn -0.448171 0.427644 0.785024
vn -0.201975 -0.163499 -0.965647
vn -0.196335 0.183736 -0.963169
vn 0.208151 0.147620 -0.966893
vn 0.187362 -0.136843 -0.972712
vn 0.000020 0.001532 0.999999
vn -0.412135 -0.343902 -0.843727
vn 0.233595 -0.248755 -0.939976
vn 0.000000 0.000000 0.000000
vn 0.309907 0.266535 -0.912643
vn 0.000000 0.000000 0.000000
vn 0.000000 0.000000 0.000000
vn -0.446581 0.430125 -0.784575
vn 0.201861 -0.162804 0.965788
vn 0.199730 0.186830 0.961874
vn -0.205988 0.145050 0.967744
vn -0.187328 -0.138184 0.972529
vn 0.760618 0.649045 -0.014209
vn 0.081250 0.069332 -0.994279
vn -0.171683 0.118890 -0.977952
vn -0.821984 0.569222 0.018120
vn 0.087865 -0.060846 -0.994272
vn -0.171240 -0.145628 -0.974407
vn 0.822108 -0.569307 -0.005309
vn -0.759572 -0.650348 0.009938
vn 0.413687 -0.342096 0.843703
vn -0.232029 -0.249702 0.940113
vn -0.305167 0.267705 0.913897
vn 0.448061 0.427670 0.785073
vn 0.199940 -0.161869 -0.966345
vn -0.188064 -0.138529 -0.972338
vn -0.206722 0.145898 -0.967461
vn 0.198514 0.185767 -0.962332
vn -0.000021 0.001546 0.999999
vn -0.000000 0.000000 0.000000
vn -0.234517 -0.248272 -0.939874
vn 0.412313 -0.343840 -0.843666
vn 0.000000 0.000000 0.000000
vn -0.309307 0.266994 -0.912712
vn 0.000000 0.000000 0.000000
vn 0.446491 0.430170 -0.784602
s 1
g rocks_GEO spikes_GRP pasted__pasted__pCube5
usemtl initialShadingGroup
f 616/765/601 615/768/602 617/767/603 618/766/604
f 605/769/605 606/772/606 608/771/607 607/770/608
f 607/770/608 608/771/607 610/774/609 609/773/610
f 609/773/610 610/774/609 604/776/611 603/775/612
f 604/777/611 610/779/609 608/778/607 606/772/606
f 609/780/610 603/782/612 605/769/605 607/781/608
f 603/782/612 604/777/611 611/784/613 612/783/614
f 604/777/611 606/772/606 613/785/615 611/784/613
f 606/772/606 605/769/605 614/786/616 613/785/615
f 605/769/605 603/782/612 612/783/614 614/786/616
f 612/783/614 611/784/613 615/768/602 616/765/601
f 611/784/613 613/785/615 617/767/603 615/768/602
f 613/785/615 614/786/616 618/766/604 617/767/603
f 614/786/616 612/783/614 616/765/601 618/766/604
s 3
f 619/787/617 622/790/618 621/789/619 620/788/620
f 600/791/621 625/794/622 624/793/623 623/792/624
f 623/792/624 624/793/623 627/796/625 626/795/626
f 601/797/627 602/798/628 625/794/622 600/791/621
f 625/794/622 619/787/617 620/788/620 624/793/623
f 624/793/623 620/788/620 621/789/619 627/796/625
f 627/796/625 621/789/619 622/790/618 602/798/628
f 602/798/628 622/790/618 619/787/617 625/794/622
s 5
f 644/799/629 646/802/630 645/801/631 643/800/632
f 633/803/633 635/806/634 636/805/635 634/804/636
f 635/806/634 637/808/637 638/807/638 636/805/635
f 637/808/637 631/810/639 632/809/640 638/807/638
f 632/811/640 634/804/636 636/813/635 638/812/638
f 637/814/637 635/816/634 633/803/633 631/815/639
f 631/815/639 640/818/641 639/817/642 632/811/640
f 632/811/640 639/817/642 641/819/643 634/804/636
f 634/804/636 641/819/643 642/820/644 633/803/633
f 633/803/633 642/820/644 640/818/641 631/815/639
f 640/818/641 644/799/629 643/800/632 639/817/642
f 639/817/642 643/800/632 645/801/631 641/819/643
f 641/819/643 645/801/631 646/802/630 642/820/644
f 642/820/644 646/802/630 644/799/629 640/818/641
s 7
f 647/821/645 648/824/646 649/823/647 650/822/648
f 628/825/649 651/828/650 652/827/651 653/826/652
f 651/828/650 654/830/653 655/829/654 652/827/651
f 629/831/655 628/825/649 653/826/652 630/832/656
f 653/826/652 652/827/651 648/824/646 647/821/645
f 652/827/651 655/829/654 649/823/647 648/824/646
f 655/829/654 630/832/656 650/822/648 649/823/647
f 630/832/656 653/826/652 647/821/645 650/822/648
