# This file uses centimeters as units for non-parametric coordinates.

mtllib suelo.mtl
g default
v -133.347983 -76.328278 155.713444
v -73.956561 -77.589243 169.027151
v 3.345315 -77.589243 159.014624
v 80.229318 -77.589243 124.701487
v 145.215354 -77.589243 71.172499
v 188.634633 -77.589243 6.437700
v 203.189743 -76.328278 -52.661748
v 180.970646 -77.589243 -112.285024
v 137.502038 -76.328278 -158.751159
v 78.110590 -77.589243 -172.064885
v 0.808775 -77.589243 -162.052359
v -76.075205 -77.589243 -127.739237
v -141.061287 -77.589243 -74.210197
v -184.480494 -77.589243 -9.475381
v -199.035567 -76.328278 49.624050
v -176.816506 -77.589243 109.247319
v -133.347983 -38.131398 155.713444
v -73.956578 -36.870435 169.027124
v 3.345315 -36.870435 159.014624
v 80.229318 -36.870435 124.701487
v 145.215354 -36.870435 71.172499
v 188.634633 -36.870435 6.437700
v 203.189743 -38.131398 -52.661748
v 180.970646 -36.870435 -112.285023
v 137.502030 -38.131398 -158.751172
v 78.110595 -36.870435 -172.064876
v 0.808759 -36.870435 -162.052386
v -76.075205 -36.870435 -127.739237
v -141.061287 -36.870435 -74.210197
v -184.480494 -36.870435 -9.475381
v -199.035567 -38.131398 49.624050
v -176.816506 -36.870435 109.247319
v 134.496340 -35.249186 -83.509371
v 73.012075 -35.249186 -45.439950
v 2.077021 -35.249186 -1.518856
v -68.857972 -35.249186 42.402211
v -130.342254 -35.249186 80.471654
v 134.496340 -79.210484 -83.509371
v 73.012076 -79.210484 -45.439950
v 2.077022 -79.210484 -1.518855
v -68.857972 -79.210484 42.402211
v -130.342253 -79.210484 80.471655
v -158.290374 -77.589243 187.120852
v -173.820466 -73.715327 205.388866
v -77.379136 -77.589243 212.765344
v -85.073707 -73.715327 233.516821
v -77.379119 -36.870435 212.765370
v -85.073707 -40.744349 233.516821
v -158.290374 -36.870435 187.120852
v -173.820466 -40.744349 205.388866
v 15.628539 -77.589243 205.787097
v 16.940872 -73.715327 225.862794
v 15.628539 -36.870435 205.787097
v 16.940872 -40.744349 225.862794
v 106.573108 -77.589243 167.248320
v 116.692615 -73.715327 183.591885
v 106.573108 -36.870435 167.248320
v 116.692615 -40.744349 183.591885
v 181.609199 -77.589243 103.016369
v 198.995224 -73.715327 113.139633
v 181.609188 -36.870435 103.016352
v 198.995213 -40.744349 113.139616
v 229.313019 -77.589243 22.869783
v 251.318785 -73.715327 25.231554
v 229.313019 -36.870435 22.869783
v 251.318791 -40.744349 25.231563
v 242.422276 -77.589243 -60.989735
v 265.697545 -73.715327 -66.748959
v 242.422298 -36.870435 -60.989749
v 265.697545 -40.744349 -66.748959
v 218.941161 -77.589243 -135.795356
v 239.942456 -73.715327 -148.798799
v 218.941161 -36.870435 -135.795356
v 239.942478 -40.744349 -148.798813
v 162.444391 -77.589243 -190.158555
v 177.974517 -73.715327 -208.426614
v 162.444388 -36.870435 -190.158559
v 177.974495 -40.744349 -208.426600
v 81.533170 -77.589243 -215.803118
v 89.227808 -73.715327 -236.554589
v 81.533170 -36.870435 -215.803118
v 89.227808 -40.744349 -236.554589
v -11.474500 -77.589243 -208.824790
v -12.786822 -73.715327 -228.900493
v -11.474522 -36.870435 -208.824825
v -12.786822 -40.744349 -228.900493
v -102.419058 -77.589243 -170.286019
v -112.538565 -73.715327 -186.629584
v -102.419058 -36.870435 -170.286019
v -112.538565 -40.744349 -186.629584
v -177.455094 -77.589243 -106.054030
v -194.841120 -73.715327 -116.177269
v -177.455071 -36.870435 -106.054044
v -194.841120 -40.744349 -116.177269
v -225.158891 -77.589243 -25.907458
v -247.164708 -73.715327 -28.269234
v -225.158913 -36.870435 -25.907444
v -247.164713 -40.744349 -28.269243
v -238.268221 -77.589243 57.952094
v -261.543432 -73.715327 63.711311
v -238.268221 -36.870435 57.952094
v -261.543429 -40.744349 63.711316
v -214.787017 -77.589243 132.757659
v -235.788308 -73.715327 145.761106
v -214.787017 -36.870435 132.757659
v -235.788309 -40.744349 145.761106
v -137.583465 -60.975341 162.763425
v -67.119648 -60.975341 185.096735
v -74.814275 -60.975341 205.848223
v -153.113602 -60.975341 181.031467
v 13.878786 -60.975341 179.019523
v 15.191091 -60.975341 199.095225
v 93.080534 -60.975341 145.456914
v 103.200013 -60.975341 161.800484
v 158.427794 -60.975341 89.518639
v 175.813836 -60.975341 99.641905
v 199.972083 -60.975341 19.720670
v 221.977799 -60.975341 22.082509
v 211.388662 -60.975341 -53.310810
v 234.663858 -60.975341 -59.070001
v 190.939432 -60.975341 -118.457430
v 211.940715 -60.975341 -131.460866
v 141.737594 -60.975341 -165.801198
v 157.267681 -60.975341 -184.069221
v 71.273744 -60.975341 -188.134487
v 78.968304 -60.975341 -208.885957
v -9.724724 -60.975341 -182.057229
v -11.037052 -60.975341 -202.132918
v -88.926421 -60.975341 -148.494663
v -99.045918 -60.975341 -164.838211
v -154.273677 -60.975341 -92.556331
v -171.659752 -60.975341 -102.679600
v -195.817983 -60.975341 -22.758364
v -217.823676 -60.975341 -25.120192
v -207.234512 -60.975341 50.273122
v -230.509784 -60.975341 56.032341
v -186.785322 -60.975341 115.419752
v -207.786525 -60.975341 128.423140
v -137.583473 -53.484335 162.763412
v -67.119648 -53.484335 185.096735
v -153.113602 -53.484335 181.031467
v -74.814275 -53.484335 205.848223
v 13.878786 -53.484335 179.019523
v 15.191091 -53.484335 199.095225
v 93.080534 -53.484335 145.456914
v 103.200013 -53.484335 161.800484
v 158.427794 -53.484335 89.518639
v 175.813847 -53.484335 99.641922
v 199.972083 -53.484335 19.720670
v 221.977782 -53.484335 22.082482
v 211.388662 -53.484335 -53.310810
v 234.663858 -53.484335 -59.070001
v 190.939432 -53.484335 -118.457430
v 211.940715 -53.484335 -131.460865
v 141.737594 -53.484335 -165.801198
v 157.267681 -53.484335 -184.069221
v 71.273733 -53.484335 -188.134480
v 78.968298 -53.484335 -208.885966
v -9.724724 -53.484335 -182.057229
v -11.037052 -53.484335 -202.132918
v -88.926421 -53.484335 -148.494663
v -99.045918 -53.484335 -164.838211
v -154.273677 -53.484335 -92.556331
v -171.659752 -53.484335 -102.679600
v -195.817983 -53.484335 -22.758364
v -217.823676 -53.484335 -25.120192
v -207.234512 -53.484335 50.273122
v -230.509784 -53.484335 56.032341
v -186.785322 -53.484335 115.419751
v -207.786526 -53.484335 128.423139
v 232.709828 -60.975341 -18.823051
v 240.403053 -77.589243 -19.400285
v 254.059915 -79.210484 -63.869340
v 209.630114 -53.484335 -17.091412
v 232.709812 -53.484335 -18.823078
v 223.026290 -55.105581 -56.190409
v 240.403053 -36.870435 -19.400285
v 254.059915 -35.249186 -63.869340
v 205.026185 -60.975341 -87.520741
v 201.440068 -59.354095 -124.959144
v 227.593931 -60.975341 -97.084058
v 235.116494 -77.589243 -100.271828
v 229.441808 -79.210484 -142.297078
v 205.026185 -53.484335 -87.520741
v 227.593931 -53.484335 -97.084058
v 201.440068 -55.105581 -124.959144
v 235.116517 -36.870435 -100.271842
v 229.441808 -35.249186 -142.297078
v 169.525060 -60.975341 -144.857052
v 149.502653 -59.354095 -174.935210
v 188.145120 -60.975341 -160.796127
v 194.351816 -77.589243 -166.109145
v 170.209450 -79.210484 -199.292591
v 169.525060 -53.484335 -144.857052
v 188.145120 -53.484335 -160.796127
v 149.502653 -55.105581 -174.935210
v 194.351794 -36.870435 -166.109131
v 170.209450 -35.249186 -199.292591
v 108.531500 -60.975341 -180.371431
v 75.121015 -59.354095 -198.510223
v 120.369096 -60.975341 -200.259638
v 124.314975 -77.589243 -206.889069
v 85.380459 -79.210484 -226.178853
v 108.531500 -53.484335 -180.371431
v 120.369102 -53.484335 -200.259629
v 75.121015 -55.105581 -198.510223
v 124.314964 -36.870435 -206.889062
v 85.380459 -35.249186 -226.178853
v 31.331221 -60.975341 -188.657117
v -10.380902 -59.354095 -192.095071
v 34.584247 -60.975341 -209.466720
v 35.668595 -77.589243 -216.403254
v -12.130683 -79.210484 -218.862664
v 31.331221 -53.484335 -188.657117
v 34.584247 -53.484335 -209.466720
v -10.380902 -55.105581 -192.095071
v 35.668584 -36.870435 -216.403247
v -12.130683 -35.249186 -218.862664
v -50.322741 -60.975341 -168.452725
v -93.986169 -59.354095 -156.666437
v -56.149548 -60.975341 -187.015603
v -58.091818 -77.589243 -193.203212
v -107.478806 -79.210484 -178.457793
v -50.322741 -53.484335 -168.452725
v -56.149548 -53.484335 -187.015603
v -93.986169 -55.105581 -156.666437
v -58.091818 -36.870435 -193.203212
v -107.478806 -35.249186 -178.457793
v -123.999320 -60.975341 -122.834118
v -162.966701 -59.354095 -97.617968
v -138.018884 -60.975341 -136.324281
v -142.692083 -77.589243 -140.820970
v -186.148123 -79.210484 -111.115676
v -123.999320 -53.484335 -122.834118
v -138.018884 -53.484335 -136.324281
v -162.966701 -55.105581 -97.617968
v -142.692083 -36.870435 -140.820970
v -186.148123 -35.249186 -111.115676
v -178.481897 -60.975341 -58.746383
v -206.820850 -59.354095 -23.939235
v -198.559873 -60.975341 -65.110005
v -205.252527 -77.589243 -67.231223
v -236.161824 -79.210484 -27.088336
v -178.481902 -53.484335 -58.746392
v -198.559867 -53.484335 -65.109996
v -206.820850 -55.105581 -23.939235
v -205.252527 -36.870435 -67.231223
v -236.161824 -35.249186 -27.088336
v -205.475986 -60.975341 14.053713
v -218.872140 -59.354095 53.152745
v -228.555745 -60.975341 15.785405
v -236.248886 -77.589243 16.362598
v -249.905804 -79.210484 60.831689
v -205.475986 -53.484335 14.053713
v -228.555745 -53.484335 15.785405
v -218.872140 -55.105581 53.152745
v -236.248976 -36.870435 16.362654
v -249.905804 -35.249186 60.831689
v -200.871968 -60.975341 84.483008
v -197.285879 -59.354095 121.921418
v -223.439757 -60.975341 94.046358
v -230.962319 -77.589243 97.234130
v -225.287663 -79.210484 139.259382
v -200.871968 -53.484335 84.483008
v -223.439757 -53.484335 94.046358
v -197.285879 -55.105581 121.921418
v -230.962319 -36.870435 97.234130
v -225.287663 -35.249186 139.259382
v -165.370900 -60.975341 141.819303
v -183.990955 -60.975341 157.758362
v -190.197623 -77.589243 163.071375
v -165.370900 -53.484335 141.819303
v -183.990955 -53.484335 157.758362
v -190.197623 -36.870435 163.071375
v -65.837249 -72.725510 181.638176
v -134.995125 -72.725510 159.718759
v -155.702040 -72.725510 184.076177
v -76.096714 -72.725510 209.306770
v 13.660085 -72.725510 175.673549
v 15.409860 -72.725510 202.441158
v 91.393936 -72.725510 142.732966
v 104.886599 -72.725510 164.524414
v 155.530113 -72.725510 87.831407
v 178.711512 -72.725510 101.329128
v 196.304460 -72.725510 19.327035
v 225.645389 -72.725510 22.476164
v 207.509455 -72.725510 -52.350941
v 238.543085 -72.725510 -60.029864
v 187.439197 -72.725510 -116.290178
v 215.440961 -72.725510 -133.628125
v 139.149249 -72.725510 -162.756540
v 159.856021 -72.725510 -187.113887
v 69.991283 -72.725510 -184.675901
v 80.250714 -72.725510 -212.344524
v -9.506000 -72.725510 -178.711293
v -11.255787 -72.725510 -205.478871
v -87.239824 -72.725510 -145.770715
v -100.732504 -72.725510 -167.562141
v -151.376046 -72.725510 -90.869104
v -174.557441 -72.725510 -104.366768
v -192.150371 -72.725510 -22.364722
v -221.491368 -72.725510 -25.513760
v -203.355226 -72.725510 49.313204
v -234.388975 -72.725510 56.992212
v -183.285077 -72.725510 113.252492
v -211.286816 -72.725510 130.590427
v -134.995125 -41.734171 159.718759
v -65.837249 -41.734171 181.638176
v -76.096714 -41.734171 209.306770
v -155.702040 -41.734171 184.076177
v 13.660085 -41.734171 175.673549
v 15.409860 -41.734171 202.441158
v 91.393936 -41.734171 142.732966
v 104.886599 -41.734171 164.524414
v 155.530113 -41.734171 87.831407
v 178.711512 -41.734171 101.329128
v 196.304460 -41.734171 19.327035
v 225.645389 -41.734171 22.476164
v 207.509455 -41.734171 -52.350941
v 238.543085 -41.734171 -60.029864
v 187.439197 -41.734171 -116.290178
v 215.440961 -41.734171 -133.628125
v 139.149249 -41.734171 -162.756540
v 159.856021 -41.734171 -187.113887
v 69.991283 -41.734171 -184.675901
v 80.250714 -41.734171 -212.344524
v -9.506000 -41.734171 -178.711293
v -11.255787 -41.734171 -205.478871
v -87.239824 -41.734171 -145.770715
v -100.732504 -41.734171 -167.562141
v -151.376046 -41.734171 -90.869104
v -174.557441 -41.734171 -104.366768
v -192.150371 -41.734171 -22.364722
v -221.491368 -41.734171 -25.513760
v -203.355226 -41.734171 49.313204
v -234.388975 -41.734171 56.992212
v -183.285077 -41.734171 113.252492
v -211.286816 -41.734171 130.590427
v -131.998594 -73.715327 223.739536
v -86.356123 -57.229835 236.975404
v -131.998594 -40.744349 223.739536
v -176.408809 -57.229835 208.433528
v -34.767570 -73.715327 234.175110
v 17.159664 -57.229835 229.208713
v -34.767570 -40.744349 234.175110
v 68.072664 -73.715327 208.728398
v 118.379223 -57.229835 186.315851
v 68.072664 -40.744349 208.728398
v 160.865708 -73.715327 151.273426
v 201.892879 -57.229835 114.826822
v 160.865719 -40.744349 151.273444
v 229.484619 -73.715327 70.557227
v 254.986414 -57.229835 25.625222
v 229.484619 -40.744349 70.557227
v 263.482734 -73.715327 -21.131928
v 269.576736 -57.229835 -67.708830
v 263.482734 -40.744349 -21.131928
v 257.684258 -73.715327 -109.835169
v 243.442656 -57.229835 -150.966031
v 257.684258 -40.744349 -109.835169
v 212.971843 -73.715327 -182.048199
v 180.562888 -57.229835 -211.471282
v 212.971843 -40.744349 -182.048199
v 136.152634 -73.715327 -226.777302
v 90.510230 -57.229835 -240.013162
v 136.152611 -40.744349 -226.777288
v 38.921632 -73.715327 -237.212840
v -13.005557 -57.229835 -232.246447
v 38.921643 -40.744349 -237.212847
v -63.918637 -73.715327 -211.766083
v -114.225129 -57.229835 -189.353480
v -63.918637 -40.744349 -211.766083
v -156.711659 -73.715327 -154.311101
v -197.738795 -57.229835 -117.864517
v -156.711670 -40.744349 -154.311118
v -225.330480 -73.715327 -73.594908
v -250.832315 -57.229835 -28.662867
v -225.330480 -40.744349 -73.594908
v -259.328567 -73.715327 18.094266
v -265.422532 -57.229835 64.671127
v -259.328567 -40.744349 18.094266
v -253.530059 -73.715327 106.797459
v -239.288464 -57.229835 147.928310
v -253.530059 -40.744349 106.797459
v -208.817720 -73.715327 179.010466
v -208.817720 -40.744349 179.010466
v -157.410729 -79.210484 97.231755
v -192.937797 -77.589243 76.180630
v -196.326771 -77.589243 24.337589
v -161.471057 -79.210484 29.192631
v 161.564882 -35.249186 -100.269491
v 165.625138 -35.249186 -32.230331
v 200.480914 -36.870435 -27.375291
v 197.091946 -36.870435 -79.218321
v -34.078496 -35.249186 20.867682
v -27.598951 -35.249186 109.037869
v 42.557646 -36.870435 144.639501
v 46.735470 -35.249186 70.607065
v 38.232586 -79.210484 -23.905417
v -42.581377 -79.210484 -73.644796
v -38.403573 -77.589243 -147.677214
v 31.753029 -79.210484 -112.075622
v -100.885276 -35.249186 62.232668
v -98.314459 -35.249186 131.194039
v -35.916265 -36.870435 167.161325
v -34.078496 -79.210484 20.867682
v -110.116994 -79.210484 -24.233447
v -110.714665 -77.589243 -102.904082
v 38.232587 -35.249186 -23.905416
v 114.868760 -36.870435 99.866355
v 114.271103 -35.249186 21.195718
v 105.039358 -79.210484 -65.270391
v 40.070326 -77.589243 -170.199056
v 102.468574 -79.210484 -134.231809
v 105.039336 -35.249186 -65.270376
v 170.008379 -36.870435 39.658281
v 161.564882 -79.210484 -100.269490
v 113.659090 -77.589243 -167.597476
v 158.556449 -77.589243 -141.455335
v -109.505051 -36.870435 164.559735
v -157.410729 -35.249186 97.231756
v -154.402353 -36.870435 138.417610
v -100.885276 -79.210484 62.232669
v -165.854290 -77.589243 -42.695943
v 102.468574 -35.249186 -134.231809
v 158.556449 -36.870435 -141.455335
v 113.659090 -36.870435 -167.597476
v 31.753029 -35.249186 -112.075622
v 40.070338 -36.870435 -170.199063
v -42.581377 -35.249186 -73.644796
v -38.403573 -36.870435 -147.677214
v -110.116994 -35.249186 -24.233447
v -110.714665 -36.870435 -102.904082
v -161.471057 -35.249186 29.192631
v -165.854290 -36.870435 -42.695943
v -196.326771 -36.870435 24.337589
v -192.937797 -36.870435 76.180630
v 165.625138 -79.210484 -32.230331
v 197.091946 -77.589243 -79.218321
v 200.480914 -77.589243 -27.375291
v 114.271103 -79.210484 21.195718
v 170.008368 -77.589243 39.658288
v 46.735470 -79.210484 70.607065
v 114.868760 -77.589243 99.866355
v -27.598951 -79.210484 109.037869
v 42.557646 -77.589243 144.639501
v -98.314459 -79.210484 131.194039
v -35.916265 -77.589243 167.161325
v -154.402353 -77.589243 138.417610
v -109.505051 -77.589243 164.559735
v -104.377455 -60.975341 177.333698
v -70.967026 -59.354095 195.472476
v -116.215079 -60.975341 197.221911
v -145.348577 -59.354095 171.897476
v -120.160975 -77.589243 203.851315
v -81.226418 -79.210484 223.141087
v -166.055351 -79.210484 196.254819
v -104.377460 -53.484335 177.333690
v -145.348577 -55.105581 171.897476
v -116.215079 -53.484335 197.221911
v -70.967026 -55.105581 195.472476
v -120.160975 -36.870435 203.851315
v -166.055351 -35.249186 196.254819
v -81.226418 -35.249186 223.141087
v -27.177120 -60.975341 185.619374
v 14.534958 -59.354095 189.057356
v -30.430174 -60.975341 206.428983
v -31.514533 -77.589243 213.365524
v 16.284733 -79.210484 215.824965
v -27.177120 -53.484335 185.619374
v -30.430174 -53.484335 206.428983
v 14.534958 -55.105581 189.057356
v -31.514533 -36.870435 213.365524
v 16.284733 -35.249186 215.824965
v 54.476791 -60.975341 165.415001
v 98.140254 -59.354095 153.628693
v 60.303610 -60.975341 183.977897
v 62.245902 -77.589243 190.165492
v 111.632867 -79.210484 175.420111
v 54.476791 -53.484335 165.415001
v 60.303610 -53.484335 183.977897
v 98.140254 -55.105581 153.628693
v 62.245902 -36.870435 190.165492
v 111.632867 -35.249186 175.420111
v 128.153382 -60.975341 119.796412
v 167.120807 -59.354095 94.580259
v 142.172956 -60.975341 133.286592
v 146.846156 -77.589243 137.783281
v 190.302206 -79.210484 108.078005
v 128.153382 -53.484335 119.796412
v 142.172956 -53.484335 133.286592
v 167.120807 -55.105581 94.580259
v 146.846156 -36.870435 137.783281
v 190.302206 -35.249186 108.078005
v 182.635991 -60.975341 55.708705
v 210.974910 -59.354095 20.901602
v 202.713966 -60.975341 62.072376
v 209.406621 -77.589243 64.193594
v 240.315896 -79.210484 24.050697
v 182.635991 -53.484335 55.708705
v 202.713966 -53.484335 62.072376
v 210.974910 -55.105581 20.901602
v 209.406621 -36.870435 64.193594
v 240.315896 -35.249186 24.050697
v 209.630120 -60.975341 -17.091403
v 223.026290 -59.354095 -56.190409
v -133.971556 -57.229835 227.054266
v -35.309747 -57.229835 237.643360
v 69.043822 -57.229835 211.822140
v 163.202308 -57.229835 153.521771
v 232.830926 -57.229835 71.617830
v 267.329360 -57.229835 -21.420535
v 261.445519 -57.229835 -111.429036
v 216.075198 -57.229835 -184.704721
v 138.125584 -57.229835 -230.092000
v 39.463798 -57.229835 -240.681108
v -64.889738 -57.229835 -214.859860
v -159.048258 -57.229835 -156.559470
v -228.676810 -57.229835 -74.655522
v -263.175187 -57.229835 18.382833
v -257.291342 -57.229835 108.391341
v -211.921007 -57.229835 181.666947
v -180.419052 -79.210484 56.055070
v 184.573174 -35.249186 -59.092777
v 9.713613 -35.249186 91.594416
v -5.559501 -79.210484 -94.632166
v -63.760148 -35.249186 122.191909
v -77.870598 -79.210484 -49.859042
v 82.024705 -35.249186 46.821308
v 67.914213 -79.210484 -125.229636
v 142.164510 -35.249186 -5.311162
v 134.960708 -79.210484 -139.219737
v -130.806570 -35.249186 136.181978
v -138.010446 -79.210484 2.273460
v 134.960708 -35.249186 -139.219737
v 67.914213 -35.249186 -125.229636
v -5.559501 -35.249186 -94.632166
v -77.870598 -35.249186 -49.859042
v -138.010446 -35.249186 2.273460
v -180.419052 -35.249186 56.055070
v 184.573174 -79.210484 -59.092777
v 142.164510 -79.210484 -5.311162
v 82.024705 -79.210484 46.821308
v 9.713613 -79.210484 91.594416
v -63.760148 -79.210484 122.191909
v -130.806570 -79.210484 136.181978
v -110.296228 -59.354095 187.277768
v -126.079792 -79.210484 213.795413
v -110.296222 -55.105581 187.277777
v -126.079792 -35.249186 213.795413
v -28.803672 -59.354095 196.024188
v -33.141040 -79.210484 223.770310
v -28.803672 -55.105581 196.024188
v -33.141051 -35.249186 223.770292
v 57.390229 -59.354095 174.696419
v 65.159294 -79.210484 199.446938
v 57.390229 -55.105581 174.696419
v 65.159294 -35.249186 199.446938
v 135.163147 -59.354095 126.541491
v 153.855932 -79.210484 144.528354
v 135.163147 -55.105581 126.541491
v 153.855932 -35.249186 144.528354
v 192.674987 -59.354095 58.890529
v 219.445595 -79.210484 67.375408
v 192.674976 -55.105581 58.890536
v 219.445595 -35.249186 67.375408
v 221.169966 -59.354095 -17.957252
v 251.942865 -79.210484 -20.266089
v 221.169966 -55.105581 -17.957252
v 251.942865 -35.249186 -20.266089
v 216.310036 -59.354095 -92.302386
v 246.400366 -79.210484 -105.053489
v 216.310036 -55.105581 -92.302386
v 246.400368 -35.249186 -105.053487
v 178.835098 -59.354095 -152.826588
v 203.661820 -79.210484 -174.078663
v 178.835072 -55.105581 -152.826581
v 203.661818 -35.249186 -174.078665
v 114.450301 -59.354095 -190.315530
v 130.233804 -79.210484 -216.833173
v 114.450301 -55.105581 -190.315530
v 130.233799 -35.249186 -216.833182
v 32.957734 -59.354095 -199.061919
v 37.295125 -79.210484 -226.808054
v 32.957745 -55.105581 -199.061926
v 37.295125 -35.249186 -226.808054
v -53.236145 -59.354095 -177.734139
v -61.005244 -79.210484 -202.484662
v -53.236156 -55.105581 -177.734157
v -61.005233 -35.249186 -202.484644
v -131.009074 -59.354095 -129.579204
v -149.701837 -79.210484 -147.566056
v -131.009074 -55.105581 -129.579204
v -149.701837 -35.249186 -147.566056
v -188.520848 -59.354095 -61.928211
v -215.291534 -79.210484 -70.413040
v -188.520848 -55.105581 -61.928211
v -215.291534 -35.249186 -70.413040
v -217.015832 -59.354095 14.919538
v -247.788743 -79.210484 17.228406
v -217.015832 -55.105581 14.919538
v -247.788743 -35.249186 17.228406
v -212.155860 -59.354095 89.264688
v -242.246168 -79.210484 102.015777
v -212.155860 -55.105581 89.264688
v -242.246168 -35.249186 102.015777
v -174.680903 -59.354095 149.788821
v -199.507670 -79.210484 171.040923
v -174.680903 -55.105581 149.788821
v -199.507670 -35.249186 171.040923
v -102.404453 -72.725510 174.018932
v -118.188002 -72.725510 200.536603
v -26.634977 -72.725510 182.151120
v -30.972390 -72.725510 209.897270
v 53.505674 -72.725510 162.321174
v 61.274722 -72.725510 187.071715
v 125.816799 -72.725510 117.548045
v 144.509545 -72.725510 135.534919
v 179.289673 -72.725510 54.648085
v 206.060274 -72.725510 63.132979
v 205.783505 -72.725510 -16.802803
v 236.556404 -72.725510 -19.111639
v 201.264900 -72.725510 -85.926861
v 231.355211 -72.725510 -98.677947
v 166.421712 -72.725510 -142.200543
v 191.248436 -72.725510 -163.452613
v 106.558578 -72.725510 -177.056738
v 122.342036 -72.725510 -203.574353
v 30.789061 -72.725510 -185.188865
v 35.126407 -72.725510 -212.934972
v -49.351612 -72.725510 -165.358904
v -57.120683 -72.725510 -190.109408
v -121.662704 -72.725510 -120.585772
v -140.355484 -72.725510 -138.572601
v -175.135572 -72.725510 -57.685778
v -201.906203 -72.725510 -66.170619
v -201.629360 -72.725510 13.765105
v -232.402248 -72.725510 16.073960
v -197.110686 -72.725510 82.889125
v -227.200994 -72.725510 95.640214
v -162.267521 -72.725510 139.162769
v -187.094287 -72.725510 160.414871
v -102.404453 -41.734171 174.018932
v -118.188047 -41.734171 200.536631
v -26.634977 -41.734171 182.151120
v -30.972390 -41.734171 209.897270
v 53.505679 -41.734171 162.321182
v 61.274722 -41.734171 187.071715
v 125.816799 -41.734171 117.548045
v 144.509545 -41.734171 135.534919
v 179.289673 -41.734171 54.648085
v 206.060274 -41.734171 63.132979
v 205.783493 -41.734171 -16.802796
v 236.556404 -41.734171 -19.111639
v 201.264900 -41.734171 -85.926861
v 231.355211 -41.734171 -98.677947
v 166.421712 -41.734171 -142.200543
v 191.248436 -41.734171 -163.452613
v 106.558589 -41.734171 -177.056745
v 122.342064 -41.734171 -203.574334
v 30.789061 -41.734171 -185.188865
v 35.126407 -41.734171 -212.934972
v -49.351612 -41.734171 -165.358904
v -57.120683 -41.734171 -190.109408
v -121.662704 -41.734171 -120.585772
v -140.355484 -41.734171 -138.572601
v -175.135572 -41.734171 -57.685778
v -201.906203 -41.734171 -66.170619
v -201.629360 -41.734171 13.765105
v -232.402248 -41.734171 16.073960
v -197.110686 -41.734171 82.889125
v -227.200994 -41.734171 95.640214
v -162.267521 -41.734171 139.162769
v -187.094287 -41.734171 160.414871
vt 2.295425 0.252589
vt 2.354038 0.217860
vt 2.366377 0.244246
vt 2.312668 0.276047
vt 2.418296 0.195250
vt 2.425249 0.223520
vt 2.432204 0.251651
vt 2.378691 0.270499
vt 2.329858 0.299374
vt 2.485737 0.185595
vt 2.487040 0.214694
vt 2.553757 0.189296
vt 2.549362 0.218075
vt 2.545022 0.246726
vt 2.488370 0.243661
vt 2.619759 0.206184
vt 2.609827 0.233567
vt 2.681185 0.235634
vt 2.666111 0.260541
vt 2.651138 0.285350
vt 2.599970 0.260838
vt 2.735700 0.276495
vt 2.716045 0.297992
vt 2.781180 0.327209
vt 2.757722 0.344452
vt 2.734395 0.361642
vt 2.696503 0.319416
vt 2.815909 0.385821
vt 2.789523 0.398161
vt 2.838520 0.450080
vt 2.810249 0.457033
vt 2.782119 0.463988
vt 2.763270 0.410475
vt 2.848175 0.517521
vt 2.819075 0.518824
vt 2.844474 0.585541
vt 2.815694 0.581146
vt 2.787044 0.576807
vt 2.790108 0.520154
vt 2.827585 0.651543
vt 2.800202 0.641611
vt 2.798136 0.712969
vt 2.773229 0.697895
vt 2.748420 0.682922
vt 2.772931 0.631755
vt 2.757275 0.767484
vt 2.735777 0.747829
vt 2.706560 0.812964
vt 2.689318 0.789506
vt 2.672127 0.766179
vt 2.714354 0.728286
vt 2.647948 0.847693
vt 2.635608 0.821307
vt 2.583689 0.870304
vt 2.576736 0.842033
vt 2.569781 0.813903
vt 2.623294 0.795054
vt 2.516248 0.879959
vt 2.514946 0.850859
vt 2.448228 0.876258
vt 2.452623 0.847478
vt 2.456963 0.818828
vt 2.513615 0.821892
vt 2.382226 0.859369
vt 2.392159 0.831986
vt 2.320800 0.829920
vt 2.335874 0.805013
vt 2.350847 0.780204
vt 2.402015 0.804715
vt 2.266285 0.789059
vt 2.285940 0.767561
vt 2.220805 0.738344
vt 2.244263 0.721102
vt 2.267590 0.703911
vt 2.305483 0.746138
vt 2.186076 0.679732
vt 2.212462 0.667392
vt 2.163465 0.615473
vt 2.191736 0.608520
vt 2.219867 0.601565
vt 2.238715 0.655078
vt 2.153811 0.548032
vt 2.182910 0.546730
vt 2.157512 0.480012
vt 2.186291 0.484407
vt 2.214942 0.488747
vt 2.211877 0.545399
vt 2.174400 0.414010
vt 2.201783 0.423942
vt 2.203850 0.352584
vt 2.228757 0.367658
vt 2.253565 0.382631
vt 2.229054 0.433799
vt 2.244710 0.298069
vt 2.266208 0.317724
vt 2.287632 0.337267
vt 3.333594 0.447487
vt 3.305311 0.429982
vt 3.340353 0.377612
vt 3.376340 0.379408
vt 3.284790 0.417282
vt 3.314078 0.378005
vt 3.339476 0.352761
vt 3.367899 0.339231
vt 3.408133 0.327867
vt 4.745032 0.527886
vt 4.720783 0.527184
vt 4.720373 0.463864
vt 4.742198 0.478742
vt 4.687366 0.526214
vt 4.689192 0.445445
vt 4.691067 0.384616
vt 4.718526 0.416421
vt 4.734869 0.443506
vt 4.524518 0.521480
vt 4.480090 0.520188
vt 4.483206 0.407355
vt 4.527860 0.406368
vt 4.437345 0.518945
vt 4.440168 0.412764
vt 4.441875 0.333135
vt 4.485352 0.322812
vt 4.530367 0.320167
vt 3.545222 0.578485
vt 3.509040 0.556088
vt 3.568270 0.460686
vt 3.601049 0.488761
vt 3.471433 0.532809
vt 3.531726 0.435395
vt 3.576885 0.362442
vt 3.612813 0.389301
vt 3.643258 0.421689
vt 4.397961 0.517801
vt 4.400488 0.422477
vt 4.361670 0.516747
vt 4.364530 0.436008
vt 4.366189 0.375174
vt 4.401714 0.350859
vt 3.433825 0.509529
vt 3.492792 0.413965
vt 3.397644 0.487132
vt 3.453045 0.397145
vt 3.494252 0.329455
vt 3.536821 0.342263
vt 4.611691 0.524015
vt 4.568946 0.522772
vt 4.572381 0.409947
vt 4.615032 0.417848
vt 4.575152 0.325421
vt 4.617953 0.338251
vt 3.609272 0.618131
vt 3.578556 0.599119
vt 3.628684 0.518568
vt 3.651135 0.549504
vt 3.666898 0.458407
vt 3.683085 0.498060
vt 4.651075 0.525160
vt 4.654080 0.429850
vt 4.657013 0.358280
vt 3.658075 0.648335
vt 3.637554 0.635635
vt 3.668791 0.580912
vt 3.680156 0.604605
vt 3.690865 0.539138
vt 3.691427 0.570609
vt 4.319040 0.431425
vt 4.336933 0.405335
vt 4.332332 0.452586
vt 4.309678 0.466170
vt 4.328252 0.515777
vt 4.304003 0.515074
vt 3.364309 0.466499
vt 3.414043 0.385704
vt 3.450843 0.324670
vt 4.682847 0.667787
vt 4.684505 0.606952
vt 4.716704 0.590374
vt 4.712102 0.637625
vt 4.739358 0.576791
vt 4.729995 0.611535
vt 4.607161 0.709826
vt 4.608868 0.630196
vt 4.648548 0.620483
vt 4.647321 0.692101
vt 4.518669 0.722793
vt 4.521175 0.636592
vt 4.565830 0.635606
vt 4.563684 0.720148
vt 4.431082 0.704709
vt 4.434004 0.625113
vt 4.476655 0.633013
vt 4.473884 0.717540
vt 4.357968 0.658344
vt 4.359843 0.597516
vt 4.394955 0.613111
vt 4.392023 0.684681
vt 4.328662 0.579096
vt 4.306838 0.564219
vt 4.330510 0.626539
vt 4.314167 0.599454
vt 3.534732 0.737751
vt 3.566525 0.686210
vt 3.602512 0.688006
vt 3.574966 0.726387
vt 3.628787 0.687613
vt 3.603389 0.712857
vt 3.448613 0.736162
vt 3.489820 0.668472
vt 3.528822 0.679913
vt 3.492022 0.740948
vt 3.365980 0.703176
vt 3.411139 0.630222
vt 3.450073 0.651653
vt 3.406044 0.723354
vt 3.299607 0.643928
vt 3.341816 0.576857
vt 3.374595 0.604932
vt 3.330053 0.676317
vt 3.259780 0.567557
vt 3.291730 0.516113
vt 3.314182 0.547050
vt 3.275967 0.607210
vt 3.251438 0.495009
vt 3.262709 0.461013
vt 3.274074 0.484706
vt 3.252000 0.526480
vt 3.222291 0.492019
vt 3.219380 0.541296
vt 3.206104 0.541756
vt 3.209184 0.489864
vt 3.226148 0.590276
vt 3.213175 0.593300
vt 3.200154 0.596336
vt 3.192766 0.542210
vt 3.196021 0.487707
vt 3.164927 0.482641
vt 3.161268 0.543282
vt 2.347330 0.203369
vt 2.286025 0.239687
vt 3.169431 0.603513
vt 3.156184 0.606570
vt 4.350472 0.337565
vt 4.317695 0.374912
vt 4.306799 0.367178
vt 4.341253 0.327847
vt 4.292895 0.417866
vt 4.280696 0.412421
vt 4.268442 0.406962
vt 4.295840 0.359428
vt 4.331991 0.318103
vt 4.310073 0.295168
vt 4.269898 0.341198
vt 2.385403 0.284861
vt 2.435982 0.267035
vt 4.239466 0.394116
vt 2.339236 0.312142
vt 3.242277 0.636996
vt 3.230135 0.642489
vt 3.267094 0.679727
vt 3.256258 0.687487
vt 3.245387 0.695279
vt 3.217950 0.648005
vt 3.189210 0.661039
vt 2.485085 0.169639
vt 3.219757 0.713690
vt 3.208700 0.721601
vt 4.434328 0.285140
vt 4.389854 0.307274
vt 4.382701 0.295946
vt 4.429528 0.272631
vt 4.375512 0.284581
vt 4.424705 0.260080
vt 4.413269 0.230487
vt 4.358494 0.257800
vt 2.489075 0.259498
vt 2.542625 0.262385
vt 3.299787 0.716772
vt 3.290686 0.726503
vt 3.339039 0.746776
vt 3.332023 0.758108
vt 3.324988 0.769484
vt 3.281555 0.736275
vt 3.260040 0.759356
vt 2.625263 0.191194
vt 3.308429 0.796343
vt 3.301276 0.807906
vt 4.531823 0.268675
vt 4.482271 0.272136
vt 4.480020 0.258931
vt 4.532213 0.255281
vt 4.477753 0.245678
vt 4.532598 0.241841
vt 4.533461 0.210127
vt 4.472359 0.214412
vt 2.594561 0.275739
vt 2.642931 0.298899
vt 3.383406 0.768510
vt 3.378754 0.780996
vt 3.431149 0.781237
vt 3.429033 0.794395
vt 3.426917 0.807601
vt 3.374091 0.793530
vt 3.363132 0.823118
vt 2.746521 0.264752
vt 3.421977 0.838767
vt 3.419832 0.852193
vt 4.628207 0.290741
vt 4.581096 0.274989
vt 4.584110 0.261937
vt 4.633728 0.278531
vt 4.587131 0.248835
vt 4.639263 0.266277
vt 4.652296 0.237350
vt 4.594222 0.217909
vt 2.685803 0.331112
vt 2.721628 0.371020
vt 3.480464 0.784378
vt 3.480961 0.797694
vt 3.529475 0.777963
vt 3.532551 0.790926
vt 3.535650 0.803933
vt 3.481468 0.811060
vt 3.482724 0.842591
vt 2.830400 0.379114
vt 3.543031 0.834608
vt 3.546204 0.847827
vt 4.708888 0.347923
vt 4.671326 0.315408
vt 4.679128 0.304515
vt 4.718659 0.338761
vt 4.686957 0.293581
vt 4.728465 0.329566
vt 4.751607 0.307865
vt 4.705419 0.267771
vt 2.748909 0.417187
vt 2.766735 0.467766
vt 3.576329 0.762174
vt 3.581839 0.774265
vt 3.619117 0.737573
vt 3.626893 0.748343
vt 3.634707 0.759153
vt 3.587392 0.786401
vt 3.600583 0.815026
vt 2.864130 0.516870
vt 3.653210 0.784652
vt 3.661178 0.795663
vt 4.761735 0.431426
vt 4.739444 0.387110
vt 4.750770 0.380025
vt 4.774229 0.426698
vt 4.762152 0.372916
vt 4.786772 0.421944
vt 4.816398 0.410682
vt 4.789048 0.356127
vt 2.774272 0.520859
vt 2.771385 0.574410
vt 3.656285 0.704995
vt 3.665988 0.714029
vt 3.686234 0.665720
vt 3.697541 0.672719
vt 3.708895 0.679739
vt 3.675744 0.723108
vt 3.698833 0.744526
vt 2.842575 0.657047
vt 3.735726 0.696279
vt 3.747286 0.703431
vt 4.778296 0.528814
vt 4.774900 0.479300
vt 4.788055 0.477093
vt 4.791664 0.529203
vt 4.801275 0.474867
vt 4.805086 0.529587
vt 4.836782 0.530451
vt 4.832520 0.469561
vt 2.758030 0.626345
vt 2.734870 0.674715
vt 3.708019 0.621389
vt 3.720435 0.626045
vt 3.720574 0.573599
vt 3.733681 0.575753
vt 3.746844 0.577911
vt 3.732916 0.630717
vt 3.762425 0.641721
vt 2.769017 0.778306
vt 3.777938 0.582977
vt 3.791349 0.585186
vt 4.756141 0.625095
vt 4.772043 0.578045
vt 4.785045 0.581011
vt 4.768339 0.630539
vt 4.798116 0.583989
vt 4.780593 0.635999
vt 4.809569 0.648844
vt 4.829026 0.590986
vt 2.702657 0.717587
vt 2.662750 0.753411
vt 3.723485 0.524321
vt 3.736762 0.523861
vt 3.716717 0.475342
vt 3.729691 0.472318
vt 3.742711 0.469281
vt 3.750099 0.523408
vt 3.781598 0.522335
vt 2.654656 0.862184
vt 3.773434 0.462105
vt 3.786681 0.459047
vt 4.698563 0.705395
vt 4.731340 0.668048
vt 4.742237 0.675782
vt 4.707782 0.715114
vt 4.753195 0.683532
vt 4.717044 0.724857
vt 4.738962 0.747793
vt 4.779137 0.701762
vt 2.616583 0.780693
vt 2.566003 0.798518
vt 3.700588 0.428622
vt 3.712730 0.423129
vt 3.675771 0.385891
vt 3.686608 0.378131
vt 3.697479 0.370338
vt 3.724915 0.417613
vt 3.753655 0.404579
vt 2.516900 0.895914
vt 3.723108 0.351928
vt 3.734165 0.344016
vt 4.614708 0.757820
vt 4.659181 0.735686
vt 4.666335 0.747014
vt 4.619507 0.770330
vt 4.673523 0.758379
vt 4.624331 0.782880
vt 4.635767 0.812474
vt 4.690541 0.785160
vt 2.512911 0.806056
vt 2.459360 0.803169
vt 3.643078 0.348846
vt 3.652179 0.339114
vt 3.603827 0.318841
vt 3.610843 0.307509
vt 3.617877 0.296134
vt 3.661310 0.329343
vt 3.682825 0.306262
vt 2.376722 0.874359
vt 3.634436 0.269274
vt 3.641589 0.257712
vt 4.517213 0.774285
vt 4.566765 0.770825
vt 4.569016 0.784030
vt 4.516822 0.787679
vt 4.571282 0.797283
vt 4.516438 0.801119
vt 4.515575 0.832833
vt 4.576676 0.828548
vt 2.407424 0.789814
vt 2.359054 0.766654
vt 3.559459 0.297107
vt 3.564111 0.284622
vt 3.511716 0.284381
vt 3.513832 0.271223
vt 3.515948 0.258016
vt 3.568774 0.272087
vt 3.579734 0.242500
vt 2.255464 0.800802
vt 3.520888 0.226850
vt 3.523033 0.213425
vt 4.420829 0.752220
vt 4.467940 0.767971
vt 4.464926 0.781024
vt 4.415308 0.764429
vt 4.461905 0.794125
vt 4.409773 0.776683
vt 4.396740 0.805610
vt 4.454814 0.825051
vt 2.316182 0.734441
vt 2.280358 0.694534
vt 3.462401 0.281240
vt 3.461904 0.267923
vt 3.413390 0.287654
vt 3.410314 0.274691
vt 3.407216 0.261685
vt 3.461397 0.254557
vt 3.460141 0.223027
vt 2.171585 0.686439
vt 3.399834 0.231010
vt 3.396660 0.217790
vt 4.340148 0.695037
vt 4.377709 0.727552
vt 4.369908 0.738445
vt 4.330377 0.704200
vt 4.362079 0.749380
vt 4.320571 0.713394
vt 4.297428 0.735096
vt 4.343616 0.775189
vt 2.253077 0.648367
vt 2.235251 0.597787
vt 3.366536 0.303443
vt 3.361027 0.291353
vt 3.323748 0.328044
vt 3.315972 0.317274
vt 3.308157 0.306464
vt 3.355473 0.279216
vt 3.342282 0.250591
vt 2.137855 0.548684
vt 3.289655 0.280965
vt 3.281687 0.269954
vt 4.287301 0.611534
vt 4.309592 0.655850
vt 4.298267 0.662935
vt 4.274807 0.616263
vt 4.286884 0.670045
vt 4.262263 0.621016
vt 4.232637 0.632278
vt 4.259987 0.686833
vt 2.227714 0.544694
vt 2.230601 0.491144
vt 3.286580 0.360623
vt 3.276877 0.351588
vt 3.256630 0.399898
vt 3.245324 0.392899
vt 3.233970 0.385879
vt 3.267121 0.342510
vt 3.244032 0.321092
vt 2.159410 0.408506
vt 3.207139 0.369339
vt 3.195579 0.362187
vt 4.270741 0.514146
vt 4.274135 0.563661
vt 4.260981 0.565867
vt 4.257371 0.513757
vt 4.247760 0.568093
vt 4.243950 0.513373
vt 4.212253 0.512509
vt 4.216516 0.573399
vt 2.243955 0.439208
vt 2.267115 0.390838
vt 3.234846 0.444229
vt 3.222430 0.439573
vt 3.209949 0.434900
vt 3.180440 0.423897
vt 2.232968 0.287248
vt 4.276992 0.464915
vt 4.263990 0.461949
vt 4.250920 0.458971
vt 4.220009 0.451974
vt 2.299328 0.347967
vt 3.240672 0.540467
vt 3.243346 0.495453
vt 3.246982 0.585374
vt 3.171140 0.542960
vt 3.179061 0.601277
vt 3.174674 0.484238
vt 3.261773 0.628132
vt 3.284477 0.667227
vt 3.198217 0.656966
vt 3.227793 0.707930
vt 3.314384 0.701109
vt 3.350275 0.728545
vt 3.266786 0.752131
vt 3.313624 0.787932
vt 3.390840 0.748434
vt 3.434505 0.760092
vt 3.366571 0.813851
vt 3.423531 0.829003
vt 3.479625 0.762982
vt 3.524496 0.757155
vt 3.482335 0.832713
vt 3.540722 0.824995
vt 3.567498 0.742760
vt 3.606603 0.720296
vt 3.596450 0.806055
vt 3.647414 0.776655
vt 3.640697 0.690560
vt 3.668056 0.654510
vt 3.691600 0.737804
vt 3.727320 0.691087
vt 3.688102 0.613952
vt 3.699519 0.570165
vt 3.753177 0.638265
vt 3.768192 0.581379
vt 3.702193 0.525151
vt 3.695884 0.480244
vt 3.771725 0.522657
vt 3.763804 0.464341
vt 3.681092 0.437485
vt 3.658388 0.398391
vt 3.744648 0.408652
vt 3.715072 0.357688
vt 3.628481 0.364509
vt 3.592590 0.337073
vt 3.676079 0.313487
vt 3.629241 0.277686
vt 3.552025 0.317184
vt 3.508360 0.305525
vt 3.576294 0.251766
vt 3.519334 0.236614
vt 3.463240 0.302636
vt 3.418369 0.308462
vt 3.460530 0.232904
vt 3.402143 0.240623
vt 3.375367 0.322857
vt 3.336262 0.345321
vt 3.346415 0.259563
vt 3.295450 0.288963
vt 3.302168 0.375058
vt 3.274810 0.411108
vt 3.251265 0.327813
vt 3.215545 0.374531
vt 3.254763 0.451666
vt 3.189688 0.427353
vt 4.335171 0.387337
vt 4.365302 0.353144
vt 4.312495 0.426578
vt 4.278031 0.346912
vt 4.248550 0.398150
vt 4.316940 0.302356
vt 4.401381 0.325454
vt 4.442075 0.305217
vt 4.363823 0.266192
vt 4.416847 0.239762
vt 4.485929 0.293342
vt 4.531240 0.290193
vt 4.474044 0.224209
vt 4.533183 0.220065
vt 4.576289 0.295967
vt 4.619378 0.310369
vt 4.591992 0.227597
vt 4.648203 0.246411
vt 4.658824 0.332936
vt 4.693227 0.362676
vt 4.699625 0.275851
vt 4.744345 0.314654
vt 4.721334 0.398553
vt 4.741685 0.439044
vt 4.780609 0.361377
vt 4.807105 0.414205
vt 4.753821 0.482866
vt 4.756826 0.528226
vt 4.822721 0.471219
vt 4.826847 0.530172
vt 4.751202 0.573350
vt 4.736541 0.616382
vt 4.819335 0.588783
vt 4.800486 0.644810
vt 4.713864 0.655624
vt 4.683733 0.689817
vt 4.771005 0.696048
vt 4.732095 0.740604
vt 4.647655 0.717506
vt 4.606960 0.737743
vt 4.685212 0.776768
vt 4.632188 0.803198
vt 4.563106 0.749618
vt 4.517797 0.752767
vt 4.574992 0.818751
vt 4.515853 0.822895
vt 4.472747 0.746993
vt 4.429658 0.732592
vt 4.457043 0.815363
vt 4.400832 0.796549
vt 4.390211 0.710025
vt 4.355808 0.680284
vt 4.349410 0.767110
vt 4.304690 0.728306
vt 4.327703 0.644407
vt 4.307351 0.603916
vt 4.268427 0.681583
vt 4.241930 0.628755
vt 4.295215 0.560094
vt 4.292210 0.514734
vt 4.226314 0.571741
vt 4.222190 0.512788
vt 4.297833 0.469610
vt 4.229700 0.454177
vt 3.151517 0.480431
vt 3.167715 0.419132
vt 2.190228 0.344262
vt 3.234085 0.311835
vt 2.141742 0.477536
vt 3.336599 0.238247
vt 2.147948 0.619221
vt 3.459612 0.209445
vt 2.207903 0.747745
vt 3.584471 0.229760
vt 2.312478 0.843542
vt 3.692109 0.296334
vt 2.445752 0.892028
vt 3.766046 0.398991
vt 2.587437 0.885821
vt 3.795180 0.521908
vt 2.715961 0.825866
vt 3.775151 0.646486
vt 2.811758 0.721292
vt 3.708781 0.753782
vt 2.860244 0.588017
vt 3.606266 0.827370
vt 2.854037 0.446332
vt 3.483253 0.856173
vt 2.794082 0.317808
vt 3.358394 0.835858
vt 2.689507 0.222011
vt 3.250757 0.769284
vt 2.556233 0.173525
vt 3.176819 0.666627
vt 2.414548 0.179732
vt 3.147685 0.543709
vt 2.308867 0.356706
vt 2.346881 0.322568
vt 2.278169 0.397545
vt 2.256112 0.443632
vt 2.243380 0.493110
vt 2.240638 0.544129
vt 2.247809 0.594714
vt 2.264801 0.642899
vt 2.290784 0.686888
vt 2.324922 0.724903
vt 2.365761 0.755601
vt 2.411848 0.777658
vt 2.461326 0.790390
vt 2.512345 0.793131
vt 2.562930 0.785960
vt 2.611115 0.768969
vt 2.655104 0.742985
vt 2.693119 0.708848
vt 2.723817 0.668008
vt 2.745874 0.621921
vt 2.758606 0.572443
vt 2.761348 0.521424
vt 2.754176 0.470839
vt 2.737185 0.422655
vt 2.711201 0.378665
vt 2.677064 0.340650
vt 2.636224 0.309953
vt 2.590137 0.287896
vt 2.540659 0.275163
vt 2.489640 0.272422
vt 2.439055 0.279593
vt 2.390871 0.296585
vn -0.412241 -0.573412 0.707994
vn -0.251190 -0.555695 0.792532
vn -0.302134 0.000000 0.953265
vn -0.503182 0.000000 0.864180
vn -0.090036 -0.536796 0.838894
vn -0.106715 -0.000000 0.994290
vn -0.090036 0.536796 0.838894
vn -0.251190 0.555695 0.792532
vn -0.412241 0.573412 0.707994
vn 0.063922 -0.519675 0.851969
vn 0.074819 -0.000000 0.997197
vn 0.207120 -0.506402 0.837054
vn 0.240196 0.000000 0.970725
vn 0.207120 0.506402 0.837053
vn 0.063922 0.519675 0.851969
vn 0.338337 -0.498057 0.798416
vn 0.390174 -0.000000 0.920741
vn 0.457340 -0.495243 0.738630
vn 0.526432 -0.000000 0.850217
vn 0.457340 0.495243 0.738630
vn 0.338337 0.498057 0.798416
vn 0.563902 -0.498057 0.658752
vn 0.650297 -0.000000 0.759680
vn 0.656978 -0.506402 0.558514
vn 0.761892 0.000000 0.647704
vn 0.656978 0.506402 0.558513
vn 0.563902 0.498057 0.658752
vn 0.734158 -0.519675 0.436977
vn 0.859304 0.000000 0.511465
vn 0.791080 -0.536796 0.293331
vn 0.937618 -0.000000 0.347667
vn 0.791080 0.536796 0.293331
vn 0.734158 0.519675 0.436977
vn 0.821411 -0.555695 0.128406
vn 0.988001 -0.000000 0.154448
vn 0.817522 -0.573412 -0.053441
vn 0.997870 0.000000 -0.065230
vn 0.817523 0.573412 -0.053441
vn 0.821411 0.555694 0.128406
vn 0.772971 -0.586214 -0.242632
vn 0.954100 -0.000000 -0.299488
vn 0.685885 -0.590937 -0.424682
vn 0.850217 -0.000001 -0.526432
vn 0.685885 0.590937 -0.424682
vn 0.772971 0.586213 -0.242632
vn 0.561738 -0.586214 -0.583784
vn 0.693370 -0.000000 -0.720582
vn 0.412240 -0.573412 -0.707995
vn 0.503182 0.000001 -0.864181
vn 0.412240 0.573412 -0.707995
vn 0.561738 0.586214 -0.583784
vn 0.251190 -0.555694 -0.792532
vn 0.302134 0.000001 -0.953265
vn 0.090036 -0.536795 -0.838894
vn 0.106714 0.000000 -0.994290
vn 0.090036 0.536795 -0.838895
vn 0.251190 0.555694 -0.792532
vn -0.063923 -0.519675 -0.851969
vn -0.074819 0.000000 -0.997197
vn -0.207120 -0.506402 -0.837053
vn -0.240196 -0.000000 -0.970725
vn -0.207120 0.506402 -0.837053
vn -0.063923 0.519675 -0.851969
vn -0.338338 -0.498056 -0.798416
vn -0.390174 -0.000000 -0.920741
vn -0.457340 -0.495242 -0.738631
vn -0.526432 -0.000000 -0.850217
vn -0.457340 0.495242 -0.738631
vn -0.338338 0.498056 -0.798416
vn -0.563902 -0.498057 -0.658752
vn -0.650297 -0.000000 -0.759680
vn -0.656978 -0.506402 -0.558513
vn -0.761893 -0.000000 -0.647703
vn -0.656978 0.506402 -0.558513
vn -0.563902 0.498057 -0.658752
vn -0.734159 -0.519675 -0.436977
vn -0.859304 0.000000 -0.511465
vn -0.791080 -0.536795 -0.293331
vn -0.937618 0.000000 -0.347666
vn -0.791080 0.536795 -0.293331
vn -0.734159 0.519675 -0.436977
vn -0.821412 -0.555693 -0.128406
vn -0.988001 0.000000 -0.154447
vn -0.817523 -0.573410 0.053441
vn -0.997870 0.000000 0.065231
vn -0.817523 0.573411 0.053441
vn -0.821411 0.555693 -0.128406
vn -0.772971 -0.586213 0.242633
vn -0.954100 -0.000000 0.299488
vn -0.685886 -0.590936 0.424682
vn -0.850217 0.000000 0.526432
vn -0.685886 0.590936 0.424682
vn -0.772971 0.586213 0.242633
vn -0.561739 -0.586213 0.583784
vn -0.693371 0.000000 0.720581
vn -0.561739 0.586213 0.583784
vn -0.000000 -1.000000 0.000000
vn -0.023113 -0.999630 0.014311
vn -0.039087 -0.999232 0.002655
vn -0.015290 -0.999844 -0.008832
vn -0.175077 -0.978569 0.108403
vn -0.198745 -0.977674 0.068221
vn -0.374576 -0.926863 0.024851
vn -0.155957 -0.987154 -0.034714
vn -0.115885 -0.991901 -0.051997
vn 0.175077 0.978569 -0.108403
vn 0.023113 0.999630 -0.014311
vn 0.039087 0.999232 -0.002655
vn 0.198745 0.977674 -0.068221
vn 0.000000 1.000000 0.000000
vn 0.015290 0.999844 0.008832
vn 0.115885 0.991901 0.051997
vn 0.155957 0.987154 0.034715
vn 0.374575 0.926863 -0.024851
vn 0.000000 1.000000 0.000000
vn 0.000000 1.000000 0.000000
vn 0.005037 0.999932 0.010558
vn 0.006014 0.999935 0.009713
vn 0.000000 1.000000 0.000000
vn 0.004081 0.999920 0.011955
vn 0.024214 0.996040 0.085548
vn 0.033336 0.996620 0.075084
vn 0.042203 0.996781 0.068161
vn -0.000000 -1.000000 0.000000
vn -0.000000 -1.000000 0.000000
vn -0.005037 -0.999932 -0.010558
vn -0.004081 -0.999920 -0.011955
vn -0.000000 -1.000000 0.000000
vn -0.006014 -0.999935 -0.009712
vn -0.042203 -0.996781 -0.068160
vn -0.033335 -0.996620 -0.075084
vn -0.024214 -0.996040 -0.085548
vn 0.000000 1.000000 0.000000
vn 0.002890 0.999896 0.014125
vn 0.000000 1.000000 0.000000
vn 0.001091 0.999844 0.017624
vn -0.005109 0.991901 0.126913
vn 0.012642 0.994772 0.101334
vn -0.000000 -1.000000 0.000000
vn -0.007206 -0.999932 -0.009215
vn -0.000000 -1.000000 0.000000
vn -0.008883 -0.999920 -0.008982
vn -0.065787 -0.996040 -0.059808
vn -0.052354 -0.996620 -0.063309
vn 0.000000 1.000000 0.000000
vn 0.000000 1.000000 0.000000
vn 0.007206 0.999932 0.009215
vn 0.008883 0.999920 0.008982
vn 0.052354 0.996620 0.063309
vn 0.065787 0.996040 0.059808
vn -0.000000 -1.000000 0.000000
vn -0.000000 -1.000000 0.000000
vn -0.002890 -0.999896 -0.014124
vn -0.001091 -0.999844 -0.017624
vn -0.012642 -0.994772 -0.101333
vn 0.005109 -0.991901 -0.126913
vn 0.000000 1.000000 0.000000
vn 0.011355 0.999896 0.008883
vn 0.085075 0.994772 0.056485
vn 0.175077 -0.978569 -0.108403
vn 0.023113 -0.999630 -0.014311
vn 0.019799 -0.999232 -0.033806
vn 0.149657 -0.977674 -0.147500
vn 0.038441 -0.987154 -0.155080
vn 0.189208 -0.926863 -0.324229
vn -0.189209 0.926863 0.324230
vn -0.038441 0.987154 0.155080
vn -0.019799 0.999232 0.033806
vn -0.149657 0.977674 0.147501
vn -0.023113 0.999630 0.014311
vn -0.175077 0.978569 0.108403
vn -0.000000 -1.000000 0.000000
vn -0.011355 -0.999896 -0.008883
vn -0.085075 -0.994772 -0.056485
vn 0.005109 0.991901 -0.126913
vn -0.001091 0.999844 -0.017624
vn 0.019799 0.999232 -0.033806
vn 0.038441 0.987154 -0.155080
vn 0.149657 0.977674 -0.147501
vn 0.189208 0.926863 -0.324229
vn -0.024214 0.996040 -0.085548
vn -0.004081 0.999920 -0.011955
vn -0.002890 0.999896 -0.014125
vn -0.012642 0.994772 -0.101334
vn -0.042203 0.996781 -0.068161
vn -0.006014 0.999935 -0.009713
vn -0.005037 0.999932 -0.010558
vn -0.033336 0.996620 -0.075084
vn -0.065787 0.996040 -0.059808
vn -0.008883 0.999920 -0.008982
vn -0.007206 0.999932 -0.009215
vn -0.052354 0.996620 -0.063309
vn -0.115885 0.991901 -0.051997
vn -0.015290 0.999844 -0.008833
vn -0.011355 0.999896 -0.008883
vn -0.085075 0.994772 -0.056485
vn -0.039087 0.999232 0.002655
vn -0.198745 0.977674 0.068221
vn -0.155957 0.987154 -0.034714
vn -0.374577 0.926863 0.024851
vn 0.115885 -0.991901 0.051997
vn 0.015290 -0.999844 0.008832
vn 0.039087 -0.999232 -0.002655
vn 0.155956 -0.987154 0.034714
vn 0.198745 -0.977674 -0.068221
vn 0.374575 -0.926863 -0.024851
vn 0.065787 -0.996040 0.059808
vn 0.008883 -0.999920 0.008982
vn 0.011355 -0.999896 0.008883
vn 0.085075 -0.994772 0.056485
vn 0.042203 -0.996781 0.068160
vn 0.006014 -0.999935 0.009712
vn 0.007206 -0.999932 0.009215
vn 0.052354 -0.996620 0.063309
vn 0.024214 -0.996040 0.085548
vn 0.004081 -0.999920 0.011955
vn 0.005037 -0.999932 0.010558
vn 0.033335 -0.996620 0.075084
vn -0.005109 -0.991901 0.126913
vn 0.001091 -0.999844 0.017624
vn 0.002890 -0.999896 0.014124
vn 0.012642 -0.994772 0.101333
vn -0.189209 -0.926863 0.324230
vn -0.149657 -0.977674 0.147500
vn -0.019799 -0.999232 0.033806
vn -0.038441 -0.987154 0.155080
vn -0.316694 -0.777095 0.543901
vn -0.195495 -0.762453 0.616805
vn 0.002759 -0.999958 -0.008706
vn 0.004439 -0.999961 -0.007623
vn -0.070990 -0.746633 0.661437
vn 0.001036 -0.999953 -0.009648
vn 0.074673 -0.714397 -0.695745
vn 0.205997 -0.731534 -0.649941
vn 0.334607 -0.746860 -0.574663
vn 0.185702 -0.929407 -0.318931
vn 0.116056 -0.923282 -0.366170
vn -0.055615 -0.982912 0.175472
vn -0.088646 -0.984360 0.152243
vn 0.042718 -0.916383 -0.398017
vn -0.020614 -0.981165 0.192070
vn -0.070990 0.746633 0.661437
vn -0.195495 0.762452 0.616805
vn 0.002759 0.999958 -0.008706
vn 0.001036 0.999953 -0.009648
vn -0.316695 0.777095 0.543901
vn 0.004439 0.999961 -0.007623
vn 0.334606 0.746861 -0.574663
vn 0.205997 0.731534 -0.649941
vn 0.074673 0.714397 -0.695745
vn 0.042718 0.916383 -0.398018
vn 0.116057 0.923282 -0.366171
vn -0.055615 0.982912 0.175472
vn -0.020614 0.981165 0.192070
vn 0.185703 0.929407 -0.318931
vn -0.088646 0.984360 0.152243
vn 0.051027 -0.731347 0.680094
vn -0.000751 -0.999950 -0.010007
vn 0.166815 -0.719494 0.674166
vn -0.002525 -0.999945 -0.010205
vn -0.174805 -0.685831 -0.706456
vn -0.053532 -0.698616 -0.713491
vn -0.031108 -0.909466 -0.414614
vn 0.015081 -0.979475 0.201000
vn -0.102747 -0.903891 -0.415240
vn 0.050106 -0.978001 0.202496
vn 0.166815 0.719494 0.674166
vn 0.051027 0.731347 0.680094
vn -0.000751 0.999950 -0.010007
vn -0.002525 0.999945 -0.010205
vn -0.053532 0.698616 -0.713491
vn -0.174805 0.685831 -0.706456
vn -0.102747 0.903891 -0.415240
vn -0.031108 0.909465 -0.414615
vn 0.015081 0.979475 0.201000
vn 0.050105 0.978000 0.202496
vn 0.274164 -0.711516 0.646977
vn -0.004147 -0.999944 -0.009785
vn 0.371197 -0.709089 0.599505
vn -0.005701 -0.999941 -0.009208
vn -0.388429 -0.674962 -0.627335
vn -0.286855 -0.677851 -0.676928
vn -0.170024 -0.900061 -0.401225
vn 0.083082 -0.977066 0.196058
vn -0.230697 -0.898864 -0.372589
vn 0.112980 -0.976699 0.182469
vn 0.371197 0.709089 0.599505
vn 0.274164 0.711516 0.646977
vn -0.004147 0.999944 -0.009785
vn -0.005701 0.999941 -0.009208
vn -0.286855 0.677852 -0.676928
vn -0.388429 0.674962 -0.627335
vn -0.230697 0.898864 -0.372589
vn -0.170024 0.900061 -0.401226
vn 0.083082 0.977066 0.196058
vn 0.112980 0.976699 0.182469
vn 0.456944 -0.711516 0.533804
vn -0.006911 -0.999944 -0.008074
vn 0.529133 -0.719494 0.449829
vn -0.008009 -0.999945 -0.006809
vn -0.554476 -0.685830 -0.471374
vn -0.478098 -0.677851 -0.558516
vn -0.283375 -0.900062 -0.331040
vn 0.138471 -0.977066 0.161762
vn -0.325909 -0.903891 -0.277063
vn 0.158933 -0.978000 0.135113
vn 0.529133 0.719494 0.449829
vn 0.456944 0.711516 0.533804
vn -0.006911 0.999944 -0.008074
vn -0.008009 0.999945 -0.006809
vn -0.478098 0.677851 -0.558516
vn -0.554476 0.685831 -0.471374
vn -0.325909 0.903891 -0.277064
vn -0.283376 0.900061 -0.331041
vn 0.138471 0.977066 0.161762
vn 0.158933 0.978001 0.135113
vn 0.586051 -0.731346 0.348822
vn -0.008624 -0.999950 -0.005133
vn 0.623738 -0.746633 0.231281
vn -0.009098 -0.999953 -0.003374
vn -0.656089 -0.714397 -0.243277
vn -0.614830 -0.698616 -0.365951
vn -0.357281 -0.909466 -0.212656
vn 0.173206 -0.979475 0.103093
vn -0.375331 -0.916383 -0.139172
vn 0.181123 -0.981165 0.067160
vn 0.623738 0.746633 0.231281
vn 0.586051 0.731346 0.348822
vn -0.008624 0.999950 -0.005133
vn -0.009098 0.999953 -0.003374
vn -0.614830 0.698616 -0.365951
vn -0.656089 0.714397 -0.243276
vn -0.375331 0.916383 -0.139172
vn -0.357281 0.909465 -0.212657
vn 0.173205 0.979475 0.103093
vn 0.181123 0.981165 0.067160
vn 0.639281 -0.762451 0.099935
vn -0.009023 -0.999958 -0.001411
vn 0.628044 -0.777094 -0.041055
vn -0.008802 -0.999961 0.000575
vn -0.663566 -0.746859 0.043377
vn -0.673625 -0.731533 -0.105304
vn -0.379512 -0.923283 -0.059327
vn 0.181866 -0.982912 0.028430
vn -0.368269 -0.929408 0.024074
vn 0.175795 -0.984360 -0.011492
vn 0.628044 0.777094 -0.041055
vn 0.639281 0.762452 0.099935
vn -0.009023 0.999958 -0.001411
vn -0.008802 0.999961 0.000575
vn -0.673625 0.731533 -0.105304
vn -0.663566 0.746859 0.043377
vn -0.368270 0.929407 0.024074
vn -0.379513 0.923282 -0.059327
vn 0.181866 0.982912 0.028430
vn 0.175795 0.984360 -0.011492
vn 0.588627 -0.787007 -0.184767
vn -0.008049 -0.999964 0.002527
vn 0.520340 -0.790851 -0.322181
vn -0.007166 -0.999965 0.004437
vn -0.550916 -0.761665 0.341113
vn -0.622501 -0.757834 0.195400
vn -0.342263 -0.933442 0.107435
vn 0.162635 -0.985365 -0.051050
vn -0.301600 -0.934968 0.186743
vn 0.143308 -0.985692 -0.088733
vn 0.520340 0.790851 -0.322181
vn 0.588627 0.787007 -0.184767
vn -0.008049 0.999964 0.002527
vn -0.007166 0.999964 0.004437
vn -0.622501 0.757834 0.195400
vn -0.550916 0.761665 0.341113
vn -0.301601 0.934967 0.186743
vn -0.342264 0.933442 0.107435
vn 0.162635 0.985365 -0.051050
vn 0.143308 0.985692 -0.088733
vn 0.427771 -0.787007 -0.444559
vn -0.005849 -0.999964 0.006079
vn 0.316695 -0.777094 -0.543902
vn -0.004438 -0.999961 0.007623
vn -0.334607 -0.746859 0.574665
vn -0.452388 -0.757833 0.470143
vn -0.248731 -0.933442 0.258493
vn 0.118191 -0.985365 -0.122830
vn -0.185701 -0.929408 0.318930
vn 0.088646 -0.984360 -0.152243
vn 0.316695 0.777094 -0.543902
vn 0.427770 0.787007 -0.444559
vn -0.005849 0.999964 0.006079
vn -0.004438 0.999961 0.007623
vn -0.452388 0.757833 0.470142
vn -0.334606 0.746859 0.574665
vn -0.185702 0.929408 0.318930
vn -0.248732 0.933442 0.258494
vn 0.118191 0.985365 -0.122830
vn 0.088646 0.984360 -0.152243
vn 0.195495 -0.762452 -0.616806
vn -0.002759 -0.999958 0.008706
vn 0.070990 -0.746633 -0.661438
vn -0.001036 -0.999953 0.009648
vn -0.074673 -0.714397 0.695745
vn -0.205997 -0.731533 0.649942
vn -0.116056 -0.923283 0.366169
vn 0.055615 -0.982912 -0.175472
vn -0.042718 -0.916383 0.398016
vn 0.020614 -0.981165 -0.192070
vn 0.070990 0.746633 -0.661438
vn 0.195495 0.762451 -0.616806
vn -0.002759 0.999958 0.008706
vn -0.001036 0.999953 0.009648
vn -0.205997 0.731533 0.649942
vn -0.074673 0.714397 0.695745
vn -0.042718 0.916383 0.398017
vn -0.116056 0.923283 0.366169
vn 0.055615 0.982912 -0.175472
vn 0.020614 0.981165 -0.192070
vn -0.051027 -0.731347 -0.680095
vn 0.000751 -0.999950 0.010007
vn -0.166815 -0.719494 -0.674167
vn 0.002525 -0.999945 0.010205
vn 0.174805 -0.685830 0.706456
vn 0.053533 -0.698616 0.713491
vn 0.031108 -0.909466 0.414614
vn -0.015081 -0.979475 -0.201000
vn 0.102747 -0.903891 0.415239
vn -0.050106 -0.978000 -0.202496
vn -0.166815 0.719494 -0.674167
vn -0.051027 0.731347 -0.680094
vn 0.000751 0.999950 0.010007
vn 0.002525 0.999945 0.010205
vn 0.053533 0.698616 0.713491
vn 0.174805 0.685830 0.706456
vn 0.102747 0.903891 0.415240
vn 0.031108 0.909465 0.414614
vn -0.015081 0.979475 -0.201000
vn -0.050106 0.978001 -0.202496
vn -0.274164 -0.711516 -0.646977
vn 0.004147 -0.999943 0.009785
vn -0.371197 -0.709089 -0.599505
vn 0.005701 -0.999941 0.009208
vn 0.388429 -0.674962 0.627335
vn 0.286856 -0.677851 0.676928
vn 0.170024 -0.900061 0.401225
vn -0.083082 -0.977066 -0.196058
vn 0.230697 -0.898864 0.372589
vn -0.112980 -0.976699 -0.182469
vn -0.371197 0.709089 -0.599504
vn -0.274163 0.711516 -0.646977
vn 0.004147 0.999943 0.009785
vn 0.005701 0.999941 0.009208
vn 0.286856 0.677851 0.676928
vn 0.388429 0.674961 0.627335
vn 0.230697 0.898864 0.372589
vn 0.170024 0.900061 0.401226
vn -0.083082 0.977066 -0.196058
vn -0.112980 0.976699 -0.182469
vn -0.456945 -0.711516 -0.533804
vn 0.006911 -0.999944 0.008074
vn -0.529134 -0.719494 -0.449830
vn 0.008009 -0.999945 0.006809
vn 0.554476 -0.685830 0.471374
vn 0.478099 -0.677851 0.558516
vn 0.283376 -0.900061 0.331040
vn -0.138471 -0.977066 -0.161762
vn 0.325909 -0.903891 0.277063
vn -0.158933 -0.978000 -0.135113
vn -0.529133 0.719494 -0.449829
vn -0.456945 0.711516 -0.533804
vn 0.006911 0.999944 0.008074
vn 0.008009 0.999945 0.006809
vn 0.478099 0.677851 0.558516
vn 0.554476 0.685830 0.471374
vn 0.325909 0.903891 0.277063
vn 0.283376 0.900061 0.331041
vn -0.138471 0.977066 -0.161762
vn -0.158933 0.978001 -0.135113
vn -0.586051 -0.731346 -0.348822
vn 0.008624 -0.999950 0.005133
vn -0.623738 -0.746633 -0.231280
vn 0.009098 -0.999953 0.003374
vn 0.656089 -0.714397 0.243276
vn 0.614829 -0.698616 0.365951
vn 0.357281 -0.909466 0.212656
vn -0.173206 -0.979475 -0.103093
vn 0.375331 -0.916383 0.139172
vn -0.181123 -0.981165 -0.067160
vn -0.623738 0.746633 -0.231280
vn -0.586051 0.731346 -0.348822
vn 0.008623 0.999950 0.005133
vn 0.009098 0.999953 0.003374
vn 0.614829 0.698617 0.365951
vn 0.656089 0.714398 0.243276
vn 0.375331 0.916383 0.139172
vn 0.357281 0.909465 0.212656
vn -0.173205 0.979475 -0.103093
vn -0.181123 0.981165 -0.067160
vn -0.639280 -0.762452 -0.099934
vn 0.009023 -0.999958 0.001411
vn -0.628042 -0.777096 0.041056
vn 0.008802 -0.999961 -0.000575
vn 0.663566 -0.746859 -0.043378
vn 0.673625 -0.731533 0.105304
vn 0.379512 -0.923283 0.059327
vn -0.181866 -0.982912 -0.028430
vn 0.368269 -0.929408 -0.024074
vn -0.175796 -0.984360 0.011492
vn -0.628042 0.777096 0.041056
vn -0.639280 0.762453 -0.099934
vn 0.009023 0.999958 0.001411
vn 0.008802 0.999961 -0.000575
vn 0.673625 0.731533 0.105304
vn 0.663566 0.746859 -0.043378
vn 0.368269 0.929407 -0.024074
vn 0.379512 0.923283 0.059327
vn -0.181866 0.982912 -0.028430
vn -0.175796 0.984360 0.011492
vn -0.588627 -0.787007 0.184767
vn 0.008049 -0.999964 -0.002527
vn -0.520341 -0.790851 0.322181
vn 0.007166 -0.999964 -0.004437
vn 0.550915 -0.761666 -0.341112
vn 0.622500 -0.757834 -0.195401
vn 0.342263 -0.933442 -0.107435
vn -0.162635 -0.985365 0.051051
vn 0.301600 -0.934968 -0.186743
vn -0.143308 -0.985692 0.088733
vn -0.520341 0.790851 0.322181
vn -0.588627 0.787007 0.184767
vn 0.008049 0.999964 -0.002527
vn 0.007166 0.999964 -0.004437
vn 0.622500 0.757834 -0.195401
vn 0.550915 0.761666 -0.341112
vn 0.301601 0.934967 -0.186743
vn 0.342264 0.933442 -0.107435
vn -0.162635 0.985365 0.051051
vn -0.143308 0.985692 0.088733
vn -0.427770 -0.787007 0.444559
vn 0.005849 -0.999964 -0.006079
vn 0.452387 -0.757835 -0.470141
vn 0.248732 -0.933442 -0.258494
vn -0.118191 -0.985365 0.122830
vn -0.427770 0.787007 0.444559
vn 0.005849 0.999964 -0.006079
vn 0.452387 0.757835 -0.470141
vn 0.248733 0.933441 -0.258494
vn -0.118191 0.985365 0.122830
vn -0.236968 -0.569111 0.787374
vn -0.443110 -0.471585 0.762405
vn -0.067460 -0.682935 0.727358
vn 0.275071 -0.413670 -0.867879
vn 0.097944 -0.397026 -0.912567
vn 0.454358 -0.429704 -0.780329
vn 0.056572 -0.752515 0.656141
vn 0.151347 -0.791616 0.591979
vn -0.069141 -0.382112 -0.921526
vn -0.223070 -0.370824 -0.901515
vn 0.229953 -0.811802 0.536749
vn 0.302878 -0.817914 0.489165
vn -0.363452 -0.363706 -0.857683
vn -0.490852 -0.361393 -0.792754
vn 0.377978 -0.811802 0.445095
vn 0.462456 -0.791615 0.399349
vn -0.605761 -0.363707 -0.707652
vn -0.707571 -0.370826 -0.601524
vn 0.562137 -0.752515 0.343108
vn 0.681173 -0.682935 0.263824
vn -0.794097 -0.382113 -0.472652
vn -0.860553 -0.397026 -0.319091
vn 0.810454 -0.569111 0.138839
vn 0.879987 -0.471587 -0.056821
vn -0.899503 -0.413669 -0.140614
vn -0.901048 -0.429702 0.058901
vn 0.809691 -0.525056 -0.262139
vn 0.701467 -0.565067 -0.434330
vn -0.856134 -0.441378 0.268736
vn -0.761049 -0.445818 0.471222
vn 0.595568 -0.525055 -0.607960
vn 0.443109 -0.471586 -0.762405
vn -0.622175 -0.441378 0.646594
vn -0.454358 -0.429702 0.780330
vn 0.236968 -0.569111 -0.787375
vn 0.067460 -0.682935 -0.727358
vn -0.275071 -0.413669 0.867879
vn -0.097943 -0.397026 0.912566
vn -0.056572 -0.752515 -0.656141
vn -0.151347 -0.791616 -0.591979
vn 0.069141 -0.382112 0.921526
vn 0.223070 -0.370824 0.901515
vn -0.229953 -0.811802 -0.536749
vn -0.302878 -0.817914 -0.489165
vn 0.363452 -0.363706 0.857683
vn 0.490852 -0.361394 0.792754
vn -0.377978 -0.811802 -0.445095
vn -0.462456 -0.791615 -0.399349
vn 0.605761 -0.363707 0.707651
vn 0.707572 -0.370825 0.601524
vn -0.562137 -0.752515 -0.343109
vn -0.681173 -0.682935 -0.263823
vn 0.794097 -0.382112 0.472653
vn 0.860554 -0.397025 0.319091
vn -0.810454 -0.569112 -0.138838
vn -0.879987 -0.471588 0.056822
vn 0.899504 -0.413667 0.140614
vn 0.901048 -0.429701 -0.058902
vn -0.809691 -0.525055 0.262138
vn -0.701468 -0.565067 0.434330
vn 0.856134 -0.441378 -0.268737
vn 0.761049 -0.445819 -0.471221
vn -0.595569 -0.525053 0.607962
vn 0.622176 -0.441379 -0.646593
vn -0.236968 0.569110 0.787375
vn -0.067460 0.682935 0.727358
vn -0.443110 0.471585 0.762405
vn 0.275071 0.413670 -0.867878
vn 0.454359 0.429704 -0.780329
vn 0.097944 0.397026 -0.912566
vn 0.056572 0.752515 0.656141
vn 0.151347 0.791616 0.591979
vn -0.069141 0.382113 -0.921526
vn -0.223070 0.370824 -0.901515
vn 0.229953 0.811802 0.536749
vn 0.302878 0.817914 0.489165
vn -0.363452 0.363706 -0.857683
vn -0.490852 0.361394 -0.792754
vn 0.377978 0.811802 0.445095
vn 0.462456 0.791616 0.399349
vn -0.605761 0.363707 -0.707652
vn -0.707571 0.370825 -0.601525
vn 0.562137 0.752515 0.343108
vn 0.681173 0.682935 0.263824
vn -0.794097 0.382113 -0.472652
vn -0.860553 0.397027 -0.319091
vn 0.810454 0.569111 0.138839
vn 0.879987 0.471587 -0.056821
vn -0.899503 0.413670 -0.140614
vn -0.901047 0.429703 0.058901
vn 0.809691 0.525056 -0.262139
vn 0.701467 0.565068 -0.434330
vn -0.856134 0.441379 0.268736
vn -0.761050 0.445818 0.471222
vn 0.595568 0.525056 -0.607960
vn 0.443109 0.471586 -0.762405
vn -0.622175 0.441378 0.646594
vn -0.454358 0.429702 0.780330
vn 0.236968 0.569111 -0.787375
vn 0.067460 0.682935 -0.727358
vn -0.275071 0.413669 0.867879
vn -0.097944 0.397026 0.912567
vn -0.056572 0.752514 -0.656141
vn -0.151347 0.791615 -0.591979
vn 0.069141 0.382112 0.921526
vn 0.223070 0.370825 0.901514
vn -0.229953 0.811802 -0.536749
vn -0.302878 0.817914 -0.489165
vn 0.363452 0.363707 0.857683
vn 0.490852 0.361394 0.792754
vn -0.377978 0.811802 -0.445095
vn -0.462456 0.791615 -0.399349
vn 0.605761 0.363707 0.707651
vn 0.707572 0.370825 0.601524
vn -0.562137 0.752515 -0.343108
vn -0.681173 0.682935 -0.263823
vn 0.794097 0.382112 0.472652
vn 0.860553 0.397026 0.319091
vn -0.810454 0.569112 -0.138838
vn -0.879987 0.471587 0.056822
vn 0.899503 0.413669 0.140614
vn 0.901047 0.429702 -0.058902
vn -0.809692 0.525055 0.262138
vn -0.701468 0.565067 0.434330
vn 0.856134 0.441378 -0.268737
vn 0.761049 0.445819 -0.471221
vn -0.595568 0.525054 0.607962
vn 0.622176 0.441379 -0.646593
s 1
g _platform _group1 _group2 _nurbsCircle2
usemtl _lambert2SG
f 44/1/1 339/2/2 507/3/3 342/4/4
f 339/2/2 46/5/5 340/6/6 507/3/3
f 507/3/3 340/6/6 48/7/7 341/8/8
f 342/4/4 507/3/3 341/8/8 50/9/9
f 46/5/5 343/10/10 508/11/11 340/6/6
f 343/10/10 52/12/12 344/13/13 508/11/11
f 508/11/11 344/13/13 54/14/14 345/15/15
f 340/6/6 508/11/11 345/15/15 48/7/7
f 52/12/12 346/16/16 509/17/17 344/13/13
f 346/16/16 56/18/18 347/19/19 509/17/17
f 509/17/17 347/19/19 58/20/20 348/21/21
f 344/13/13 509/17/17 348/21/21 54/14/14
f 56/18/18 349/22/22 510/23/23 347/19/19
f 349/22/22 60/24/24 350/25/25 510/23/23
f 510/23/23 350/25/25 62/26/26 351/27/27
f 347/19/19 510/23/23 351/27/27 58/20/20
f 60/24/24 352/28/28 511/29/29 350/25/25
f 352/28/28 64/30/30 353/31/31 511/29/29
f 511/29/29 353/31/31 66/32/32 354/33/33
f 350/25/25 511/29/29 354/33/33 62/26/26
f 64/30/30 355/34/34 512/35/35 353/31/31
f 355/34/34 68/36/36 356/37/37 512/35/35
f 512/35/35 356/37/37 70/38/38 357/39/39
f 353/31/31 512/35/35 357/39/39 66/32/32
f 68/36/36 358/40/40 513/41/41 356/37/37
f 358/40/40 72/42/42 359/43/43 513/41/41
f 513/41/41 359/43/43 74/44/44 360/45/45
f 356/37/37 513/41/41 360/45/45 70/38/38
f 72/42/42 361/46/46 514/47/47 359/43/43
f 361/46/46 76/48/48 362/49/49 514/47/47
f 514/47/47 362/49/49 78/50/50 363/51/51
f 359/43/43 514/47/47 363/51/51 74/44/44
f 76/48/48 364/52/52 515/53/53 362/49/49
f 364/52/52 80/54/54 365/55/55 515/53/53
f 515/53/53 365/55/55 82/56/56 366/57/57
f 362/49/49 515/53/53 366/57/57 78/50/50
f 80/54/54 367/58/58 516/59/59 365/55/55
f 367/58/58 84/60/60 368/61/61 516/59/59
f 516/59/59 368/61/61 86/62/62 369/63/63
f 365/55/55 516/59/59 369/63/63 82/56/56
f 84/60/60 370/64/64 517/65/65 368/61/61
f 370/64/64 88/66/66 371/67/67 517/65/65
f 517/65/65 371/67/67 90/68/68 372/69/69
f 368/61/61 517/65/65 372/69/69 86/62/62
f 88/66/66 373/70/70 518/71/71 371/67/67
f 373/70/70 92/72/72 374/73/73 518/71/71
f 518/71/71 374/73/73 94/74/74 375/75/75
f 371/67/67 518/71/71 375/75/75 90/68/68
f 92/72/72 376/76/76 519/77/77 374/73/73
f 376/76/76 96/78/78 377/79/79 519/77/77
f 519/77/77 377/79/79 98/80/80 378/81/81
f 374/73/73 519/77/77 378/81/81 94/74/74
f 96/78/78 379/82/82 520/83/83 377/79/79
f 379/82/82 100/84/84 380/85/85 520/83/83
f 520/83/83 380/85/85 102/86/86 381/87/87
f 377/79/79 520/83/83 381/87/87 98/80/80
f 100/84/84 382/88/88 521/89/89 380/85/85
f 382/88/88 104/90/90 383/91/91 521/89/89
f 521/89/89 383/91/91 106/92/92 384/93/93
f 380/85/85 521/89/89 384/93/93 102/86/86
f 104/90/90 385/94/94 522/95/95 383/91/91
f 385/94/94 44/1/1 342/4/4 522/95/95
f 522/95/95 342/4/4 50/9/9 386/96/96
f 383/91/91 522/95/95 386/96/96 106/92/92
f 42/97/97 387/98/98 523/99/99 390/100/100
f 387/98/98 16/101/101 388/102/102 523/99/99
f 523/99/99 388/102/102 15/103/103 389/104/104
f 390/100/100 523/99/99 389/104/104 14/105/105
f 24/106/106 391/107/107 524/108/108 394/109/109
f 391/107/107 33/110/110 392/111/111 524/108/108
f 524/108/108 392/111/111 22/112/112 393/113/113
f 394/109/109 524/108/108 393/113/113 23/114/114
f 35/115/115 395/116/116 525/117/117 398/118/118
f 395/116/116 36/119/119 396/120/120 525/117/117
f 525/117/117 396/120/120 19/121/121 397/122/122
f 398/118/118 525/117/117 397/122/122 20/123/123
f 39/124/124 399/125/125 526/126/126 402/127/127
f 399/125/125 40/128/128 400/129/129 526/126/126
f 526/126/126 400/129/129 12/130/130 401/131/131
f 402/127/127 526/126/126 401/131/131 11/132/132
f 36/119/119 403/133/133 527/134/134 396/120/120
f 403/133/133 37/135/135 404/136/136 527/134/134
f 527/134/134 404/136/136 18/137/137 405/138/138
f 396/120/120 527/134/134 405/138/138 19/121/121
f 40/128/128 406/139/139 528/140/140 400/129/129
f 406/139/139 41/141/141 407/142/142 528/140/140
f 528/140/140 407/142/142 13/143/143 408/144/144
f 400/129/129 528/140/140 408/144/144 12/130/130
f 34/145/145 409/146/146 529/147/147 411/148/148
f 409/146/146 35/115/115 398/118/118 529/147/147
f 529/147/147 398/118/118 20/123/123 410/149/149
f 411/148/148 529/147/147 410/149/149 21/150/150
f 38/151/151 412/152/152 530/153/153 414/154/154
f 412/152/152 39/124/124 402/127/127 530/153/153
f 530/153/153 402/127/127 11/132/132 413/155/155
f 414/154/154 530/153/153 413/155/155 10/156/156
f 33/110/110 415/157/157 531/158/158 392/111/111
f 415/157/157 34/145/145 411/148/148 531/158/158
f 531/158/158 411/148/148 21/150/150 416/159/159
f 392/111/111 531/158/158 416/159/159 22/112/112
f 8/160/160 417/161/161 532/162/162 419/163/163
f 417/161/161 38/151/151 414/154/154 532/162/162
f 532/162/162 414/154/154 10/156/156 418/164/164
f 419/163/163 532/162/162 418/164/164 9/165/165
f 17/166/166 420/167/167 533/168/168 422/169/169
f 420/167/167 18/137/137 404/136/136 533/168/168
f 533/168/168 404/136/136 37/135/135 421/170/170
f 422/169/169 533/168/168 421/170/170 32/171/171
f 41/141/141 423/172/172 534/173/173 407/142/142
f 423/172/172 42/97/97 390/100/100 534/173/173
f 534/173/173 390/100/100 14/105/105 424/174/174
f 407/142/142 534/173/173 424/174/174 13/143/143
f 26/175/175 425/176/176 535/177/177 427/178/178
f 425/176/176 33/110/110 391/107/107 535/177/177
f 535/177/177 391/107/107 24/106/106 426/179/179
f 427/178/178 535/177/177 426/179/179 25/180/180
f 27/181/181 428/182/182 536/183/183 429/184/184
f 428/182/182 34/145/145 415/157/157 536/183/183
f 536/183/183 415/157/157 33/110/110 425/176/176
f 429/184/184 536/183/183 425/176/176 26/175/175
f 28/185/185 430/186/186 537/187/187 431/188/188
f 430/186/186 35/115/115 409/146/146 537/187/187
f 537/187/187 409/146/146 34/145/145 428/182/182
f 431/188/188 537/187/187 428/182/182 27/181/181
f 29/189/189 432/190/190 538/191/191 433/192/192
f 432/190/190 36/119/119 395/116/116 538/191/191
f 538/191/191 395/116/116 35/115/115 430/186/186
f 433/192/192 538/191/191 430/186/186 28/185/185
f 30/193/193 434/194/194 539/195/195 435/196/196
f 434/194/194 37/135/135 403/133/133 539/195/195
f 539/195/195 403/133/133 36/119/119 432/190/190
f 435/196/196 539/195/195 432/190/190 29/189/189
f 32/171/171 421/170/170 540/197/197 437/198/198
f 421/170/170 37/135/135 434/194/194 540/197/197
f 540/197/197 434/194/194 30/193/193 436/199/199
f 437/198/198 540/197/197 436/199/199 31/200/200
f 6/201/201 438/202/202 541/203/203 440/204/204
f 438/202/202 38/151/151 417/161/161 541/203/203
f 541/203/203 417/161/161 8/160/160 439/205/205
f 440/204/204 541/203/203 439/205/205 7/206/206
f 5/207/207 441/208/208 542/209/209 442/210/210
f 441/208/208 39/124/124 412/152/152 542/209/209
f 542/209/209 412/152/152 38/151/151 438/202/202
f 442/210/210 542/209/209 438/202/202 6/201/201
f 4/211/211 443/212/212 543/213/213 444/214/214
f 443/212/212 40/128/128 399/125/125 543/213/213
f 543/213/213 399/125/125 39/124/124 441/208/208
f 444/214/214 543/213/213 441/208/208 5/207/207
f 3/215/215 445/216/216 544/217/217 446/218/218
f 445/216/216 41/141/141 406/139/139 544/217/217
f 544/217/217 406/139/139 40/128/128 443/212/212
f 446/218/218 544/217/217 443/212/212 4/211/211
f 2/219/219 447/220/220 545/221/221 448/222/222
f 447/220/220 42/97/97 423/172/172 545/221/221
f 545/221/221 423/172/172 41/141/141 445/216/216
f 448/222/222 545/221/221 445/216/216 3/215/215
f 1/223/223 449/224/224 546/225/225 450/226/226
f 449/224/224 16/101/101 387/98/98 546/225/225
f 546/225/225 387/98/98 42/97/97 447/220/220
f 450/226/226 546/225/225 447/220/220 2/219/219
f 107/227/227 451/228/228 547/229/229 454/230/230
f 451/228/228 108/231/231 452/232/232 547/229/229
f 547/229/229 452/232/232 109/233/233 453/234/234
f 454/230/230 547/229/229 453/234/234 110/235/235
f 43/236/236 455/237/237 548/706/238 457/675/239
f 455/237/237 45/240/240 456/241/241 548/706/238
f 548/238/238 456/705/241 46/5/5 339/2/2
f 457/239/239 548/238/238 339/2/2 44/1/1
f 140/242/242 458/243/243 549/244/244 461/245/245
f 458/243/243 139/246/246 459/247/247 549/244/244
f 549/244/244 459/247/247 141/248/248 460/249/249
f 461/245/245 549/244/244 460/249/249 142/250/250
f 47/737/251 462/738/252 550/253/253 464/254/254
f 462/738/252 49/708/255 463/256/256 550/253/253
f 550/253/253 463/256/256 50/9/9 341/8/8
f 464/254/254 550/253/253 341/8/8 48/7/7
f 108/231/231 465/257/257 551/258/258 452/232/232
f 465/257/257 111/259/259 466/260/260 551/258/258
f 551/258/258 466/260/260 112/261/261 467/262/262
f 452/232/232 551/258/258 467/262/262 109/233/233
f 45/240/240 468/263/263 552/704/264 456/241/241
f 468/263/263 51/265/265 469/266/266 552/704/264
f 552/264/264 469/703/266 52/12/12 343/10/10
f 456/705/241 552/264/264 343/10/10 46/5/5
f 143/267/267 470/268/268 553/269/269 472/270/270
f 470/268/268 140/242/242 461/245/245 553/269/269
f 553/269/269 461/245/245 142/250/250 471/271/271
f 472/270/270 553/269/269 471/271/271 144/272/272
f 53/735/273 473/736/274 554/275/275 474/276/276
f 473/736/274 47/737/251 464/254/254 554/275/275
f 554/275/275 464/254/254 48/7/7 345/15/15
f 474/276/276 554/275/275 345/15/15 54/14/14
f 111/259/259 475/277/277 555/278/278 466/260/260
f 475/277/277 113/279/279 476/280/280 555/278/278
f 555/278/278 476/280/280 114/281/281 477/282/282
f 466/260/260 555/278/278 477/282/282 112/261/261
f 51/265/265 478/283/283 556/702/284 469/266/266
f 478/283/283 55/285/285 479/286/286 556/702/284
f 556/284/284 479/701/286 56/18/18 346/16/16
f 469/703/266 556/284/284 346/16/16 52/12/12
f 145/287/287 480/288/288 557/289/289 482/290/290
f 480/288/288 143/267/267 472/270/270 557/289/289
f 557/289/289 472/270/270 144/272/272 481/291/291
f 482/290/290 557/289/289 481/291/291 146/292/292
f 57/733/293 483/734/294 558/295/295 484/296/296
f 483/734/294 53/735/273 474/276/276 558/295/295
f 558/295/295 474/276/276 54/14/14 348/21/21
f 484/296/296 558/295/295 348/21/21 58/20/20
f 113/279/279 485/297/297 559/298/298 476/280/280
f 485/297/297 115/299/299 486/300/300 559/298/298
f 559/298/298 486/300/300 116/301/301 487/302/302
f 476/280/280 559/298/298 487/302/302 114/281/281
f 55/285/285 488/303/303 560/700/304 479/286/286
f 488/303/303 59/305/305 489/306/306 560/700/304
f 560/304/304 489/699/306 60/24/24 349/22/22
f 479/701/286 560/304/304 349/22/22 56/18/18
f 147/307/307 490/308/308 561/309/309 492/310/310
f 490/308/308 145/287/287 482/290/290 561/309/309
f 561/309/309 482/290/290 146/292/292 491/311/311
f 492/310/310 561/309/309 491/311/311 148/312/312
f 61/731/313 493/732/314 562/315/315 494/316/316
f 493/732/314 57/733/293 484/296/296 562/315/315
f 562/315/315 484/296/296 58/20/20 351/27/27
f 494/316/316 562/315/315 351/27/27 62/26/26
f 115/299/299 495/317/317 563/318/318 486/300/300
f 495/317/317 117/319/319 496/320/320 563/318/318
f 563/318/318 496/320/320 118/321/321 497/322/322
f 486/300/300 563/318/318 497/322/322 116/301/301
f 59/305/305 498/323/323 564/698/324 489/306/306
f 498/323/323 63/325/325 499/326/326 564/698/324
f 564/324/324 499/697/326 64/30/30 352/28/28
f 489/699/306 564/324/324 352/28/28 60/24/24
f 149/327/327 500/328/328 565/329/329 502/330/330
f 500/328/328 147/307/307 492/310/310 565/329/329
f 565/329/329 492/310/310 148/312/312 501/331/331
f 502/330/330 565/329/329 501/331/331 150/332/332
f 65/729/333 503/730/334 566/335/335 504/336/336
f 503/730/334 61/731/313 494/316/316 566/335/335
f 566/335/335 494/316/316 62/26/26 354/33/33
f 504/336/336 566/335/335 354/33/33 66/32/32
f 117/319/319 505/337/337 567/338/338 496/320/320
f 505/337/337 119/339/339 506/340/340 567/338/338
f 567/338/338 506/340/340 120/341/341 171/342/342
f 496/320/320 567/338/338 171/342/342 118/321/321
f 63/325/325 172/343/343 568/696/344 499/326/326
f 172/343/343 67/345/345 173/346/346 568/696/344
f 568/344/344 173/695/346 68/36/36 355/34/34
f 499/697/326 568/344/344 355/34/34 64/30/30
f 151/347/347 174/348/348 569/349/349 176/350/350
f 174/348/348 149/327/327 502/330/330 569/349/349
f 569/349/349 502/330/330 150/332/332 175/351/351
f 176/350/350 569/349/349 175/351/351 152/352/352
f 69/727/353 177/728/354 570/355/355 178/356/356
f 177/728/354 65/729/333 504/336/336 570/355/355
f 570/355/355 504/336/336 66/32/32 357/39/39
f 178/356/356 570/355/355 357/39/39 70/38/38
f 119/339/339 179/357/357 571/358/358 506/340/340
f 179/357/357 121/359/359 180/360/360 571/358/358
f 571/358/358 180/360/360 122/361/361 181/362/362
f 506/340/340 571/358/358 181/362/362 120/341/341
f 67/345/345 182/363/363 572/694/364 173/346/346
f 182/363/363 71/365/365 183/366/366 572/694/364
f 572/364/364 183/693/366 72/42/42 358/40/40
f 173/695/346 572/364/364 358/40/40 68/36/36
f 153/367/367 184/368/368 573/369/369 186/370/370
f 184/368/368 151/347/347 176/350/350 573/369/369
f 573/369/369 176/350/350 152/352/352 185/371/371
f 186/370/370 573/369/369 185/371/371 154/372/372
f 73/725/373 187/726/374 574/375/375 188/376/376
f 187/726/374 69/727/353 178/356/356 574/375/375
f 574/375/375 178/356/356 70/38/38 360/45/45
f 188/376/376 574/375/375 360/45/45 74/44/44
f 121/359/359 189/377/377 575/378/378 180/360/360
f 189/377/377 123/379/379 190/380/380 575/378/378
f 575/378/378 190/380/380 124/381/381 191/382/382
f 180/360/360 575/378/378 191/382/382 122/361/361
f 71/365/365 192/383/383 576/692/384 183/366/366
f 192/383/383 75/385/385 193/386/386 576/692/384
f 576/384/384 193/691/386 76/48/48 361/46/46
f 183/693/366 576/384/384 361/46/46 72/42/42
f 155/387/387 194/388/388 577/389/389 196/390/390
f 194/388/388 153/367/367 186/370/370 577/389/389
f 577/389/389 186/370/370 154/372/372 195/391/391
f 196/390/390 577/389/389 195/391/391 156/392/392
f 77/723/393 197/724/394 578/395/395 198/396/396
f 197/724/394 73/725/373 188/376/376 578/395/395
f 578/395/395 188/376/376 74/44/44 363/51/51
f 198/396/396 578/395/395 363/51/51 78/50/50
f 123/379/379 199/397/397 579/398/398 190/380/380
f 199/397/397 125/399/399 200/400/400 579/398/398
f 579/398/398 200/400/400 126/401/401 201/402/402
f 190/380/380 579/398/398 201/402/402 124/381/381
f 75/385/385 202/403/403 580/690/404 193/386/386
f 202/403/403 79/405/405 203/406/406 580/690/404
f 580/404/404 203/689/406 80/54/54 364/52/52
f 193/691/386 580/404/404 364/52/52 76/48/48
f 157/407/407 204/408/408 581/409/409 206/410/410
f 204/408/408 155/387/387 196/390/390 581/409/409
f 581/409/409 196/390/390 156/392/392 205/411/411
f 206/410/410 581/409/409 205/411/411 158/412/412
f 81/721/413 207/722/414 582/415/415 208/416/416
f 207/722/414 77/723/393 198/396/396 582/415/415
f 582/415/415 198/396/396 78/50/50 366/57/57
f 208/416/416 582/415/415 366/57/57 82/56/56
f 125/399/399 209/417/417 583/418/418 200/400/400
f 209/417/417 127/419/419 210/420/420 583/418/418
f 583/418/418 210/420/420 128/421/421 211/422/422
f 200/400/400 583/418/418 211/422/422 126/401/401
f 79/405/405 212/423/423 584/688/424 203/406/406
f 212/423/423 83/425/425 213/426/426 584/688/424
f 584/424/424 213/687/426 84/60/60 367/58/58
f 203/689/406 584/424/424 367/58/58 80/54/54
f 159/427/427 214/428/428 585/429/429 216/430/430
f 214/428/428 157/407/407 206/410/410 585/429/429
f 585/429/429 206/410/410 158/412/412 215/431/431
f 216/430/430 585/429/429 215/431/431 160/432/432
f 85/719/433 217/720/434 586/435/435 218/436/436
f 217/720/434 81/721/413 208/416/416 586/435/435
f 586/435/435 208/416/416 82/56/56 369/63/63
f 218/436/436 586/435/435 369/63/63 86/62/62
f 127/419/419 219/437/437 587/438/438 210/420/420
f 219/437/437 129/439/439 220/440/440 587/438/438
f 587/438/438 220/440/440 130/441/441 221/442/442
f 210/420/420 587/438/438 221/442/442 128/421/421
f 83/425/425 222/443/443 588/686/444 213/426/426
f 222/443/443 87/445/445 223/446/446 588/686/444
f 588/444/444 223/685/446 88/66/66 370/64/64
f 213/687/426 588/444/444 370/64/64 84/60/60
f 161/447/447 224/448/448 589/449/449 226/450/450
f 224/448/448 159/427/427 216/430/430 589/449/449
f 589/449/449 216/430/430 160/432/432 225/451/451
f 226/450/450 589/449/449 225/451/451 162/452/452
f 89/717/453 227/718/454 590/455/455 228/456/456
f 227/718/454 85/719/433 218/436/436 590/455/455
f 590/455/455 218/436/436 86/62/62 372/69/69
f 228/456/456 590/455/455 372/69/69 90/68/68
f 129/439/439 229/457/457 591/458/458 220/440/440
f 229/457/457 131/459/459 230/460/460 591/458/458
f 591/458/458 230/460/460 132/461/461 231/462/462
f 220/440/440 591/458/458 231/462/462 130/441/441
f 87/445/445 232/463/463 592/684/464 223/446/446
f 232/463/463 91/465/465 233/466/466 592/684/464
f 592/464/464 233/683/466 92/72/72 373/70/70
f 223/685/446 592/464/464 373/70/70 88/66/66
f 163/467/467 234/468/468 593/469/469 236/470/470
f 234/468/468 161/447/447 226/450/450 593/469/469
f 593/469/469 226/450/450 162/452/452 235/471/471
f 236/470/470 593/469/469 235/471/471 164/472/472
f 93/715/473 237/716/474 594/475/475 238/476/476
f 237/716/474 89/717/453 228/456/456 594/475/475
f 594/475/475 228/456/456 90/68/68 375/75/75
f 238/476/476 594/475/475 375/75/75 94/74/74
f 131/459/459 239/477/477 595/478/478 230/460/460
f 239/477/477 133/479/479 240/480/480 595/478/478
f 595/478/478 240/480/480 134/481/481 241/482/482
f 230/460/460 595/478/478 241/482/482 132/461/461
f 91/465/465 242/483/483 596/682/484 233/466/466
f 242/483/483 95/485/485 243/486/486 596/682/484
f 596/484/484 243/681/486 96/78/78 376/76/76
f 233/683/466 596/484/484 376/76/76 92/72/72
f 165/487/487 244/488/488 597/489/489 246/490/490
f 244/488/488 163/467/467 236/470/470 597/489/489
f 597/489/489 236/470/470 164/472/472 245/491/491
f 246/490/490 597/489/489 245/491/491 166/492/492
f 97/713/493 247/714/494 598/495/495 248/496/496
f 247/714/494 93/715/473 238/476/476 598/495/495
f 598/495/495 238/476/476 94/74/74 378/81/81
f 248/496/496 598/495/495 378/81/81 98/80/80
f 133/479/479 249/497/497 599/498/498 240/480/480
f 249/497/497 135/499/499 250/500/500 599/498/498
f 599/498/498 250/500/500 136/501/501 251/502/502
f 240/480/480 599/498/498 251/502/502 134/481/481
f 95/485/485 252/503/503 600/680/504 243/486/486
f 252/503/503 99/505/505 253/506/506 600/680/504
f 600/504/504 253/679/506 100/84/84 379/82/82
f 243/681/486 600/504/504 379/82/82 96/78/78
f 167/507/507 254/508/508 601/509/509 256/510/510
f 254/508/508 165/487/487 246/490/490 601/509/509
f 601/509/509 246/490/490 166/492/492 255/511/511
f 256/510/510 601/509/509 255/511/511 168/512/512
f 101/711/513 257/712/514 602/515/515 258/516/516
f 257/712/514 97/713/493 248/496/496 602/515/515
f 602/515/515 248/496/496 98/80/80 381/87/87
f 258/516/516 602/515/515 381/87/87 102/86/86
f 135/499/499 259/517/517 603/518/518 250/500/500
f 259/517/517 137/519/519 260/520/520 603/518/518
f 603/518/518 260/520/520 138/521/521 261/522/522
f 250/500/500 603/518/518 261/522/522 136/501/501
f 99/505/505 262/523/523 604/678/524 253/506/506
f 262/523/523 103/525/525 263/526/526 604/678/524
f 604/524/524 263/677/526 104/90/90 382/88/88
f 253/679/506 604/524/524 382/88/88 100/84/84
f 169/527/527 264/528/528 605/529/529 266/530/530
f 264/528/528 167/507/507 256/510/510 605/529/529
f 605/529/529 256/510/510 168/512/512 265/531/531
f 266/530/530 605/529/529 265/531/531 170/532/532
f 105/709/533 267/710/534 606/535/535 268/536/536
f 267/710/534 101/711/513 258/516/516 606/535/535
f 606/535/535 258/516/516 102/86/86 384/93/93
f 268/536/536 606/535/535 384/93/93 106/92/92
f 137/519/519 269/537/537 607/538/538 260/520/520
f 269/537/537 107/227/227 454/230/230 607/538/538
f 607/538/538 454/230/230 110/235/235 270/539/539
f 260/520/520 607/538/538 270/539/539 138/521/521
f 103/525/525 271/540/540 608/676/541 263/526/526
f 271/540/540 43/236/236 457/675/239 608/676/541
f 608/541/541 457/239/239 44/1/1 385/94/94
f 263/677/526 608/541/541 385/94/94 104/90/90
f 139/246/246 272/542/542 609/543/543 459/247/247
f 272/542/542 169/527/527 266/530/530 609/543/543
f 609/543/543 266/530/530 170/532/532 273/544/544
f 459/247/247 609/543/543 273/544/544 141/248/248
f 49/708/255 274/707/545 610/546/546 463/256/256
f 274/707/545 105/709/533 268/536/536 610/546/546
f 610/546/546 268/536/536 106/92/92 386/96/96
f 463/256/256 610/546/546 386/96/96 50/9/9
f 1/223/223 450/226/226 611/547/547 276/548/548
f 450/226/226 2/219/219 275/549/549 611/547/547
f 611/547/547 275/549/549 108/231/231 451/228/228
f 276/548/548 611/547/547 451/228/228 107/227/227
f 45/240/240 455/237/237 612/550/550 278/551/551
f 455/237/237 43/236/236 277/552/552 612/550/550
f 612/550/550 277/552/552 110/235/235 453/234/234
f 278/551/551 612/550/550 453/234/234 109/233/233
f 2/219/219 448/222/222 613/553/553 275/549/549
f 448/222/222 3/215/215 279/554/554 613/553/553
f 613/553/553 279/554/554 111/259/259 465/257/257
f 275/549/549 613/553/553 465/257/257 108/231/231
f 51/265/265 468/263/263 614/555/555 280/556/556
f 468/263/263 45/240/240 278/551/551 614/555/555
f 614/555/555 278/551/551 109/233/233 467/262/262
f 280/556/556 614/555/555 467/262/262 112/261/261
f 3/215/215 446/218/218 615/557/557 279/554/554
f 446/218/218 4/211/211 281/558/558 615/557/557
f 615/557/557 281/558/558 113/279/279 475/277/277
f 279/554/554 615/557/557 475/277/277 111/259/259
f 55/285/285 478/283/283 616/559/559 282/560/560
f 478/283/283 51/265/265 280/556/556 616/559/559
f 616/559/559 280/556/556 112/261/261 477/282/282
f 282/560/560 616/559/559 477/282/282 114/281/281
f 4/211/211 444/214/214 617/561/561 281/558/558
f 444/214/214 5/207/207 283/562/562 617/561/561
f 617/561/561 283/562/562 115/299/299 485/297/297
f 281/558/558 617/561/561 485/297/297 113/279/279
f 59/305/305 488/303/303 618/563/563 284/564/564
f 488/303/303 55/285/285 282/560/560 618/563/563
f 618/563/563 282/560/560 114/281/281 487/302/302
f 284/564/564 618/563/563 487/302/302 116/301/301
f 5/207/207 442/210/210 619/565/565 283/562/562
f 442/210/210 6/201/201 285/566/566 619/565/565
f 619/565/565 285/566/566 117/319/319 495/317/317
f 283/562/562 619/565/565 495/317/317 115/299/299
f 63/325/325 498/323/323 620/567/567 286/568/568
f 498/323/323 59/305/305 284/564/564 620/567/567
f 620/567/567 284/564/564 116/301/301 497/322/322
f 286/568/568 620/567/567 497/322/322 118/321/321
f 6/201/201 440/204/204 621/569/569 285/566/566
f 440/204/204 7/206/206 287/570/570 621/569/569
f 621/569/569 287/570/570 119/339/339 505/337/337
f 285/566/566 621/569/569 505/337/337 117/319/319
f 67/345/345 172/343/343 622/571/571 288/572/572
f 172/343/343 63/325/325 286/568/568 622/571/571
f 622/571/571 286/568/568 118/321/321 171/342/342
f 288/572/572 622/571/571 171/342/342 120/341/341
f 7/206/206 439/205/205 623/573/573 287/570/570
f 439/205/205 8/160/160 289/574/574 623/573/573
f 623/573/573 289/574/574 121/359/359 179/357/357
f 287/570/570 623/573/573 179/357/357 119/339/339
f 71/365/365 182/363/363 624/575/575 290/576/576
f 182/363/363 67/345/345 288/572/572 624/575/575
f 624/575/575 288/572/572 120/341/341 181/362/362
f 290/576/576 624/575/575 181/362/362 122/361/361
f 8/160/160 419/163/163 625/577/577 289/574/574
f 419/163/163 9/165/165 291/578/578 625/577/577
f 625/577/577 291/578/578 123/379/379 189/377/377
f 289/574/574 625/577/577 189/377/377 121/359/359
f 75/385/385 192/383/383 626/579/579 292/580/580
f 192/383/383 71/365/365 290/576/576 626/579/579
f 626/579/579 290/576/576 122/361/361 191/382/382
f 292/580/580 626/579/579 191/382/382 124/381/381
f 9/165/165 418/164/164 627/581/581 291/578/578
f 418/164/164 10/156/156 293/582/582 627/581/581
f 627/581/581 293/582/582 125/399/399 199/397/397
f 291/578/578 627/581/581 199/397/397 123/379/379
f 79/405/405 202/403/403 628/583/583 294/584/584
f 202/403/403 75/385/385 292/580/580 628/583/583
f 628/583/583 292/580/580 124/381/381 201/402/402
f 294/584/584 628/583/583 201/402/402 126/401/401
f 10/156/156 413/155/155 629/585/585 293/582/582
f 413/155/155 11/132/132 295/586/586 629/585/585
f 629/585/585 295/586/586 127/419/419 209/417/417
f 293/582/582 629/585/585 209/417/417 125/399/399
f 83/425/425 212/423/423 630/587/587 296/588/588
f 212/423/423 79/405/405 294/584/584 630/587/587
f 630/587/587 294/584/584 126/401/401 211/422/422
f 296/588/588 630/587/587 211/422/422 128/421/421
f 11/132/132 401/131/131 631/589/589 295/586/586
f 401/131/131 12/130/130 297/590/590 631/589/589
f 631/589/589 297/590/590 129/439/439 219/437/437
f 295/586/586 631/589/589 219/437/437 127/419/419
f 87/445/445 222/443/443 632/591/591 298/592/592
f 222/443/443 83/425/425 296/588/588 632/591/591
f 632/591/591 296/588/588 128/421/421 221/442/442
f 298/592/592 632/591/591 221/442/442 130/441/441
f 12/130/130 408/144/144 633/593/593 297/590/590
f 408/144/144 13/143/143 299/594/594 633/593/593
f 633/593/593 299/594/594 131/459/459 229/457/457
f 297/590/590 633/593/593 229/457/457 129/439/439
f 91/465/465 232/463/463 634/595/595 300/596/596
f 232/463/463 87/445/445 298/592/592 634/595/595
f 634/595/595 298/592/592 130/441/441 231/462/462
f 300/596/596 634/595/595 231/462/462 132/461/461
f 13/143/143 424/174/174 635/597/597 299/594/594
f 424/174/174 14/105/105 301/598/598 635/597/597
f 635/597/597 301/598/598 133/479/479 239/477/477
f 299/594/594 635/597/597 239/477/477 131/459/459
f 95/485/485 242/483/483 636/599/599 302/600/600
f 242/483/483 91/465/465 300/596/596 636/599/599
f 636/599/599 300/596/596 132/461/461 241/482/482
f 302/600/600 636/599/599 241/482/482 134/481/481
f 14/105/105 389/104/104 637/601/601 301/598/598
f 389/104/104 15/103/103 303/602/602 637/601/601
f 637/601/601 303/602/602 135/499/499 249/497/497
f 301/598/598 637/601/601 249/497/497 133/479/479
f 99/505/505 252/503/503 638/603/603 304/604/604
f 252/503/503 95/485/485 302/600/600 638/603/603
f 638/603/603 302/600/600 134/481/481 251/502/502
f 304/604/604 638/603/603 251/502/502 136/501/501
f 15/103/103 388/102/102 639/605/605 303/602/602
f 388/102/102 16/101/101 305/606/606 639/605/605
f 639/605/605 305/606/606 137/519/519 259/517/517
f 303/602/602 639/605/605 259/517/517 135/499/499
f 103/525/525 262/523/523 640/607/607 306/608/608
f 262/523/523 99/505/505 304/604/604 640/607/607
f 640/607/607 304/604/604 136/501/501 261/522/522
f 306/608/608 640/607/607 261/522/522 138/521/521
f 16/101/101 449/224/224 641/609/609 305/606/606
f 449/224/224 1/223/223 276/548/548 641/609/609
f 641/609/609 276/548/548 107/227/227 269/537/537
f 305/606/606 641/609/609 269/537/537 137/519/519
f 43/236/236 271/540/540 642/610/610 277/552/552
f 271/540/540 103/525/525 306/608/608 642/610/610
f 642/610/610 306/608/608 138/521/521 270/539/539
f 277/552/552 642/610/610 270/539/539 110/235/235
f 18/137/137 420/167/167 643/611/611 308/612/612
f 420/167/167 17/166/166 307/613/613 643/611/611
f 643/611/611 307/613/613 139/246/246 458/243/243
f 308/612/612 643/611/611 458/243/243 140/242/242
f 49/255/255 462/252/252 644/614/614 310/615/615
f 462/252/252 47/251/251 309/616/616 644/614/614
f 644/614/614 309/616/616 142/250/250 460/249/249
f 310/615/615 644/614/614 460/249/249 141/248/248
f 19/121/121 405/138/138 645/617/617 311/618/618
f 405/138/138 18/137/137 308/612/612 645/617/617
f 645/617/617 308/612/612 140/242/242 470/268/268
f 311/618/618 645/617/617 470/268/268 143/267/267
f 47/251/251 473/274/274 646/619/619 309/616/616
f 473/274/274 53/273/273 312/620/620 646/619/619
f 646/619/619 312/620/620 144/272/272 471/271/271
f 309/616/616 646/619/619 471/271/271 142/250/250
f 20/123/123 397/122/122 647/621/621 313/622/622
f 397/122/122 19/121/121 311/618/618 647/621/621
f 647/621/621 311/618/618 143/267/267 480/288/288
f 313/622/622 647/621/621 480/288/288 145/287/287
f 53/273/273 483/294/294 648/623/623 312/620/620
f 483/294/294 57/293/293 314/624/624 648/623/623
f 648/623/623 314/624/624 146/292/292 481/291/291
f 312/620/620 648/623/623 481/291/291 144/272/272
f 21/150/150 410/149/149 649/625/625 315/626/626
f 410/149/149 20/123/123 313/622/622 649/625/625
f 649/625/625 313/622/622 145/287/287 490/308/308
f 315/626/626 649/625/625 490/308/308 147/307/307
f 57/293/293 493/314/314 650/627/627 314/624/624
f 493/314/314 61/313/313 316/628/628 650/627/627
f 650/627/627 316/628/628 148/312/312 491/311/311
f 314/624/624 650/627/627 491/311/311 146/292/292
f 22/112/112 416/159/159 651/629/629 317/630/630
f 416/159/159 21/150/150 315/626/626 651/629/629
f 651/629/629 315/626/626 147/307/307 500/328/328
f 317/630/630 651/629/629 500/328/328 149/327/327
f 61/313/313 503/334/334 652/631/631 316/628/628
f 503/334/334 65/333/333 318/632/632 652/631/631
f 652/631/631 318/632/632 150/332/332 501/331/331
f 316/628/628 652/631/631 501/331/331 148/312/312
f 23/114/114 393/113/113 653/633/633 319/634/634
f 393/113/113 22/112/112 317/630/630 653/633/633
f 653/633/633 317/630/630 149/327/327 174/348/348
f 319/634/634 653/633/633 174/348/348 151/347/347
f 65/333/333 177/354/354 654/635/635 318/632/632
f 177/354/354 69/353/353 320/636/636 654/635/635
f 654/635/635 320/636/636 152/352/352 175/351/351
f 318/632/632 654/635/635 175/351/351 150/332/332
f 24/106/106 394/109/109 655/637/637 321/638/638
f 394/109/109 23/114/114 319/634/634 655/637/637
f 655/637/637 319/634/634 151/347/347 184/368/368
f 321/638/638 655/637/637 184/368/368 153/367/367
f 69/353/353 187/374/374 656/639/639 320/636/636
f 187/374/374 73/373/373 322/640/640 656/639/639
f 656/639/639 322/640/640 154/372/372 185/371/371
f 320/636/636 656/639/639 185/371/371 152/352/352
f 25/180/180 426/179/179 657/641/641 323/642/642
f 426/179/179 24/106/106 321/638/638 657/641/641
f 657/641/641 321/638/638 153/367/367 194/388/388
f 323/642/642 657/641/641 194/388/388 155/387/387
f 73/373/373 197/394/394 658/643/643 322/640/640
f 197/394/394 77/393/393 324/644/644 658/643/643
f 658/643/643 324/644/644 156/392/392 195/391/391
f 322/640/640 658/643/643 195/391/391 154/372/372
f 26/175/175 427/178/178 659/645/645 325/646/646
f 427/178/178 25/180/180 323/642/642 659/645/645
f 659/645/645 323/642/642 155/387/387 204/408/408
f 325/646/646 659/645/645 204/408/408 157/407/407
f 77/393/393 207/414/414 660/647/647 324/644/644
f 207/414/414 81/413/413 326/648/648 660/647/647
f 660/647/647 326/648/648 158/412/412 205/411/411
f 324/644/644 660/647/647 205/411/411 156/392/392
f 27/181/181 429/184/184 661/649/649 327/650/650
f 429/184/184 26/175/175 325/646/646 661/649/649
f 661/649/649 325/646/646 157/407/407 214/428/428
f 327/650/650 661/649/649 214/428/428 159/427/427
f 81/413/413 217/434/434 662/651/651 326/648/648
f 217/434/434 85/433/433 328/652/652 662/651/651
f 662/651/651 328/652/652 160/432/432 215/431/431
f 326/648/648 662/651/651 215/431/431 158/412/412
f 28/185/185 431/188/188 663/653/653 329/654/654
f 431/188/188 27/181/181 327/650/650 663/653/653
f 663/653/653 327/650/650 159/427/427 224/448/448
f 329/654/654 663/653/653 224/448/448 161/447/447
f 85/433/433 227/454/454 664/655/655 328/652/652
f 227/454/454 89/453/453 330/656/656 664/655/655
f 664/655/655 330/656/656 162/452/452 225/451/451
f 328/652/652 664/655/655 225/451/451 160/432/432
f 29/189/189 433/192/192 665/657/657 331/658/658
f 433/192/192 28/185/185 329/654/654 665/657/657
f 665/657/657 329/654/654 161/447/447 234/468/468
f 331/658/658 665/657/657 234/468/468 163/467/467
f 89/453/453 237/474/474 666/659/659 330/656/656
f 237/474/474 93/473/473 332/660/660 666/659/659
f 666/659/659 332/660/660 164/472/472 235/471/471
f 330/656/656 666/659/659 235/471/471 162/452/452
f 30/193/193 435/196/196 667/661/661 333/662/662
f 435/196/196 29/189/189 331/658/658 667/661/661
f 667/661/661 331/658/658 163/467/467 244/488/488
f 333/662/662 667/661/661 244/488/488 165/487/487
f 93/473/473 247/494/494 668/663/663 332/660/660
f 247/494/494 97/493/493 334/664/664 668/663/663
f 668/663/663 334/664/664 166/492/492 245/491/491
f 332/660/660 668/663/663 245/491/491 164/472/472
f 31/200/200 436/199/199 669/665/665 335/666/666
f 436/199/199 30/193/193 333/662/662 669/665/665
f 669/665/665 333/662/662 165/487/487 254/508/508
f 335/666/666 669/665/665 254/508/508 167/507/507
f 97/493/493 257/514/514 670/667/667 334/664/664
f 257/514/514 101/513/513 336/668/668 670/667/667
f 670/667/667 336/668/668 168/512/512 255/511/511
f 334/664/664 670/667/667 255/511/511 166/492/492
f 32/171/171 437/198/198 671/669/669 337/670/670
f 437/198/198 31/200/200 335/666/666 671/669/669
f 671/669/669 335/666/666 167/507/507 264/528/528
f 337/670/670 671/669/669 264/528/528 169/527/527
f 101/513/513 267/534/534 672/671/671 336/668/668
f 267/534/534 105/533/533 338/672/672 672/671/671
f 672/671/671 338/672/672 170/532/532 265/531/531
f 336/668/668 672/671/671 265/531/531 168/512/512
f 17/166/166 422/169/169 673/673/673 307/613/613
f 422/169/169 32/171/171 337/670/670 673/673/673
f 673/673/673 337/670/670 169/527/527 272/542/542
f 307/613/613 673/673/673 272/542/542 139/246/246
f 105/533/533 274/545/545 674/674/674 338/672/672
f 274/545/545 49/255/255 310/615/615 674/674/674
f 674/674/674 310/615/615 141/248/248 273/544/544
f 338/672/672 674/674/674 273/544/544 170/532/532
